<svg width="465" height="515" viewBox="0 0 465 515" fill="none" xmlns="http://www.w3.org/2000/svg">
<path d="M300.212 494.975L253.207 498.635V63.4973L283.082 69.8766M325.944 39.9206L390.965 1.02015M390.965 419.142V400.266M390.965 396.754V1M381.369 475.622V501.14L387.58 502.315M381.369 441.449V426.992M381.369 393.497V378.435M381.369 345.041V330.503M381.369 296.43V282.523M381.369 247.779V234.571M381.369 199.155V186.618M381.369 150.525V138.666M381.369 101.894V90.7135M300.225 498.669L332.048 505.444V479.013M332.048 443.611V428.63M332.048 393.92V378.294M332.048 343.691V328.602M332.048 293.308V278.917M332.048 242.918V229.232M332.048 192.534V179.547M332.048 142.144V129.856M332.048 91.7611V80.1709M332.048 505.437L381.382 501.14M253.207 63.4772L235.99 74.4698V494.626L253.207 498.655" stroke="url(#paint0_linear_140_3495)" stroke-width="1.37257" stroke-miterlimit="10"/>
<path d="M390.543 514.348V421.25M393.142 419.222V419.048M387.434 442.06L381.391 441.489M325.657 444.773L387.434 442.087M283.104 472.191V440.073M283.104 440.073L300.234 439.401M283.104 440.073L325.657 444.719V479.416M387.434 475.199V442.007M381.391 393.483L387.434 393.591L325.657 394.108M283.104 425.373V393.255M283.104 393.255L300.234 393.127M283.104 393.255L325.657 394.135V428.838M387.434 426.81V400.165M387.434 396.807V393.624M387.434 378.395L325.657 378.22L283.104 378.522M300.247 378.569L283.104 378.522M283.104 378.522V346.404M387.421 345.202V378.395L381.377 378.435M325.643 378.22V343.516M387.421 329.979L325.643 327.602V292.898M387.421 329.979V296.793M387.421 329.979L381.377 330.482M300.234 332.269L283.104 331.671M283.104 331.671L325.657 327.602M283.104 331.671V299.553M325.643 276.983L387.421 281.563M300.234 285.961L283.104 284.84M283.104 284.84L325.657 277.003M283.104 284.84V252.708M387.421 281.583V248.377M387.421 281.57L381.377 282.523M325.643 276.99V242.286M325.643 226.372L387.421 233.154M300.234 239.668L283.104 237.975M283.104 237.975L325.657 226.372M283.104 237.975V205.857M387.401 233.134V199.961M387.401 233.154L381.357 234.571M325.623 226.372V191.675M325.623 175.76L387.401 184.738M300.214 193.36L283.104 191.124M283.104 191.124L325.657 175.76M283.104 191.124V159.006M387.421 151.552V184.738L381.377 186.618M325.643 175.76V141.057M300.234 147.067L283.104 144.273M283.104 144.273L325.657 125.142M283.104 144.273V112.162M387.421 136.336V103.136M381.377 138.666L387.421 136.322L325.643 125.142V90.445M325.643 74.5302L387.421 87.9134M300.214 100.759L283.084 97.4018L325.637 74.5033M283.104 65.3104L325.657 39.8267V74.5302M387.434 54.7207V87.9134L381.391 90.7136" stroke="url(#paint1_linear_140_3495)" stroke-width="1.37257" stroke-miterlimit="10"/>
<path d="M381.384 475.683L387.428 475.273M283.104 472.191L300.234 475.098L325.657 479.416M332.056 428.596L325.657 428.805L300.234 426.736L283.104 425.346M325.657 343.49L332.056 343.664M283.104 346.35L300.214 345.276L325.637 343.55M325.637 292.938L332.036 293.341M283.084 299.586L300.214 296.9L325.637 292.898M325.637 242.28L332.036 242.911M283.104 252.708L300.234 248.511L325.657 242.286M332.056 192.534L325.657 191.675L300.234 200.149L283.104 205.857M325.657 141.057L332.056 142.144M283.104 159.006L300.234 151.781L325.657 141.036M325.657 90.4248L332.056 91.7678M283.104 112.162L300.234 103.432L325.657 90.4584M325.657 39.8401L325.966 39.914L387.421 54.7341M283.104 97.4286V69.8565V65.3104M300.234 393.127V378.569V378.515" stroke="url(#paint2_linear_140_3495)" stroke-width="1.37257" stroke-miterlimit="10"/>
<path d="M390.965 400.265L387.4 400.165M390.965 396.753L387.4 396.794M394.054 513.576V486.098M396.142 481.672H396.337L397.835 481.565M325.676 479.517L332.075 479.08L381.41 475.723M332.075 428.717L381.41 427.099L387.453 426.904M332.035 343.691L381.37 345.034L387.413 345.195M332.048 293.301L381.383 296.403L387.426 296.786M332.062 242.911L381.396 247.773L387.44 248.37M332.075 192.528L381.41 199.149L387.453 199.954M332.089 142.138L381.37 150.538L387.413 151.566M332.048 91.8013L381.383 101.934L387.426 103.177M394.068 486.111V485.641M394.054 485.621V481.296V421.445" stroke="url(#paint3_linear_140_3495)" stroke-width="1.37257" stroke-miterlimit="10"/>
<path d="M407.121 422.264L410.559 422.472" stroke="url(#paint4_linear_140_3495)" stroke-width="1.37257" stroke-miterlimit="10"/>
<path d="M415.973 422.808L417.96 422.929" stroke="url(#paint5_linear_140_3495)" stroke-width="1.37257" stroke-miterlimit="10"/>
<path d="M405.102 422.143L407.123 422.264" stroke="url(#paint6_linear_140_3495)" stroke-width="1.37257" stroke-miterlimit="10"/>
<path d="M410.559 422.472L412.566 422.6" stroke="url(#paint7_linear_140_3495)" stroke-width="1.37257" stroke-miterlimit="10"/>
<path d="M412.568 422.6L415.973 422.808" stroke="url(#paint8_linear_140_3495)" stroke-width="1.37257" stroke-miterlimit="10"/>
<path d="M401.643 421.928L405.101 422.143" stroke="url(#paint9_linear_140_3495)" stroke-width="1.37257" stroke-miterlimit="10"/>
<path d="M399.602 421.808L401.643 421.928" stroke="url(#paint10_linear_140_3495)" stroke-width="1.37257" stroke-miterlimit="10"/>
<path d="M394.055 421.465L396.109 421.593" stroke="url(#paint11_linear_140_3495)" stroke-width="1.37257" stroke-miterlimit="10"/>
<path d="M396.109 421.593L399.601 421.807" stroke="url(#paint12_linear_140_3495)" stroke-width="1.37257" stroke-miterlimit="10"/>
<path d="M464.085 495.065L417.921 498.659V71.301C429.379 73.7478 448.743 81.6162 460.201 84.0629V472.741M460.201 494.729V476.19M417.921 71.2812L401.012 82.0773V494.722L417.921 498.679" stroke="url(#paint13_linear_140_3495)" stroke-width="1.34803" stroke-miterlimit="10"/>
<g clip-path="url(#clip0_140_3495)">
<path d="M0.178711 369.189L2.05676 363.859" stroke="url(#paint14_linear_140_3495)" stroke-miterlimit="10"/>
<path d="M0.178711 497.74L2.05676 499.686" stroke="url(#paint15_linear_140_3495)" stroke-miterlimit="10"/>
<path d="M2.05664 499.686L16.641 498.752" stroke="url(#paint16_linear_140_3495)" stroke-miterlimit="10"/>
<path d="M0.178711 497.74V369.189" stroke="url(#paint17_linear_140_3495)" stroke-miterlimit="10"/>
<path d="M2.05664 499.686V363.859" stroke="url(#paint18_linear_140_3495)" stroke-miterlimit="10"/>
<path d="M2.05664 363.859L16.641 366.417" stroke="url(#paint19_linear_140_3495)" stroke-miterlimit="10"/>
<path d="M30.7646 360.001L40.4912 344.229" stroke="url(#paint20_linear_140_3495)" stroke-miterlimit="10"/>
<path d="M40.4912 344.229L63.8828 349.502" stroke="url(#paint21_linear_140_3495)" stroke-miterlimit="10"/>
<path d="M40.4912 501.073V344.229" stroke="url(#paint22_linear_140_3495)" stroke-miterlimit="10"/>
<path d="M40.4912 501.073L63.8828 499.406" stroke="url(#paint23_linear_140_3495)" stroke-miterlimit="10"/>
<path d="M39.3535 500.491V361.654" stroke="url(#paint24_linear_140_3495)" stroke-miterlimit="10"/>
<path d="M39.3535 500.491L40.4911 501.073" stroke="url(#paint25_linear_140_3495)" stroke-miterlimit="10"/>
<path d="M109.821 495.552V481.573" stroke="url(#paint26_linear_140_3495)" stroke-miterlimit="10"/>
<path d="M16.6416 499.694L19.6214 501.874" stroke="url(#paint27_linear_140_3495)" stroke-miterlimit="10"/>
<path d="M19.6211 501.874V357.864" stroke="url(#paint28_linear_140_3495)" stroke-miterlimit="10"/>
<path d="M16.6416 363.838L19.6214 357.864" stroke="url(#paint29_linear_140_3495)" stroke-miterlimit="10"/>
<path d="M19.6211 501.874L39.3531 500.491" stroke="url(#paint30_linear_140_3495)" stroke-miterlimit="10"/>
<path d="M83.8291 370.195L96.3959 372.609" stroke="url(#paint31_linear_140_3495)" stroke-miterlimit="10"/>
<path d="M83.8291 497.373L109.821 495.552" stroke="url(#paint32_linear_140_3495)" stroke-miterlimit="10"/>
<path d="M96.3955 372.609L105.467 377.875" stroke="url(#paint33_linear_140_3495)" stroke-miterlimit="10"/>
<path d="M109.821 481.572L105.468 481.019" stroke="url(#paint34_linear_140_3495)" stroke-miterlimit="10"/>
<path d="M96.3955 482.104L105.467 481.019" stroke="url(#paint35_linear_140_3495)" stroke-miterlimit="10"/>
<path d="M96.3955 482.104L109.821 481.573" stroke="url(#paint36_linear_140_3495)" stroke-miterlimit="10"/>
<path d="M105.468 377.875V481.019" stroke="url(#paint37_linear_140_3495)" stroke-miterlimit="10"/>
<path d="M96.3955 372.609V482.104" stroke="url(#paint38_linear_140_3495)" stroke-miterlimit="10"/>
<path d="M79.3076 352.979V498.307" stroke="url(#paint39_linear_140_3495)" stroke-miterlimit="10"/>
<path d="M79.3076 352.979L83.8292 353.999" stroke="url(#paint40_linear_140_3495)" stroke-miterlimit="10"/>
<path d="M79.3076 498.307L83.8292 497.984" stroke="url(#paint41_linear_140_3495)" stroke-miterlimit="10"/>
<path d="M73.748 498.286L78.2232 497.969" stroke="url(#paint42_linear_140_3495)" stroke-miterlimit="10"/>
<path d="M78.2236 354.042V497.969" stroke="url(#paint43_linear_140_3495)" stroke-miterlimit="10"/>
<path d="M73.748 353.048L78.2232 354.043" stroke="url(#paint44_linear_140_3495)" stroke-miterlimit="10"/>
<path d="M79.3075 498.307L78.2236 497.969" stroke="url(#paint45_linear_140_3495)" stroke-miterlimit="10"/>
<path d="M79.3075 352.979L78.2236 354.042" stroke="url(#paint46_linear_140_3495)" stroke-miterlimit="10"/>
<path d="M69.8701 350.853V498.979" stroke="url(#paint47_linear_140_3495)" stroke-miterlimit="10"/>
<path d="M69.8701 350.853L73.7478 351.726" stroke="url(#paint48_linear_140_3495)" stroke-miterlimit="10"/>
<path d="M69.8701 498.979L73.7478 498.702" stroke="url(#paint49_linear_140_3495)" stroke-miterlimit="10"/>
<path d="M63.8818 350.702L68.9722 351.837" stroke="url(#paint50_linear_140_3495)" stroke-miterlimit="10"/>
<path d="M63.8818 499.025L68.9722 498.666" stroke="url(#paint51_linear_140_3495)" stroke-miterlimit="10"/>
<path d="M68.9727 351.837V498.666" stroke="url(#paint52_linear_140_3495)" stroke-miterlimit="10"/>
<path d="M69.8705 350.853L68.9727 351.837" stroke="url(#paint53_linear_140_3495)" stroke-miterlimit="10"/>
<path d="M69.8705 498.979L68.9727 498.666" stroke="url(#paint54_linear_140_3495)" stroke-miterlimit="10"/>
<path d="M83.8291 497.984V497.373" stroke="url(#paint55_linear_140_3495)" stroke-miterlimit="10"/>
<path d="M16.6416 499.694V498.752" stroke="url(#paint56_linear_140_3495)" stroke-miterlimit="10"/>
<path d="M19.6211 357.864L30.7642 360.001" stroke="url(#paint57_linear_140_3495)" stroke-miterlimit="10"/>
<path d="M30.7646 360.001L39.3536 361.654" stroke="url(#paint58_linear_140_3495)" stroke-miterlimit="10"/>
<path d="M73.748 498.702V498.286" stroke="url(#paint59_linear_140_3495)" stroke-miterlimit="10"/>
<path d="M63.8818 499.406V499.025" stroke="url(#paint60_linear_140_3495)" stroke-miterlimit="10"/>
<path d="M83.8291 497.373V370.195" stroke="url(#paint61_linear_140_3495)" stroke-miterlimit="10"/>
<path d="M83.8291 370.195V354" stroke="url(#paint62_linear_140_3495)" stroke-miterlimit="10"/>
<path d="M16.6416 498.752V366.417" stroke="url(#paint63_linear_140_3495)" stroke-miterlimit="10"/>
<path d="M16.6416 366.417V363.838" stroke="url(#paint64_linear_140_3495)" stroke-miterlimit="10"/>
<path d="M73.748 498.286V353.048" stroke="url(#paint65_linear_140_3495)" stroke-miterlimit="10"/>
<path d="M73.748 353.048V351.726" stroke="url(#paint66_linear_140_3495)" stroke-miterlimit="10"/>
<path d="M63.8818 499.026V350.702" stroke="url(#paint67_linear_140_3495)" stroke-miterlimit="10"/>
<path d="M63.8818 350.702V349.502" stroke="url(#paint68_linear_140_3495)" stroke-miterlimit="10"/>
</g>
<g clip-path="url(#clip1_140_3495)">
<path d="M124.179 369.189L126.057 363.859" stroke="url(#paint69_linear_140_3495)" stroke-miterlimit="10"/>
<path d="M124.179 497.74L126.057 499.686" stroke="url(#paint70_linear_140_3495)" stroke-miterlimit="10"/>
<path d="M126.057 499.686L140.641 498.752" stroke="url(#paint71_linear_140_3495)" stroke-miterlimit="10"/>
<path d="M124.179 497.74V369.189" stroke="url(#paint72_linear_140_3495)" stroke-miterlimit="10"/>
<path d="M126.057 499.686V363.859" stroke="url(#paint73_linear_140_3495)" stroke-miterlimit="10"/>
<path d="M126.057 363.859L140.641 366.417" stroke="url(#paint74_linear_140_3495)" stroke-miterlimit="10"/>
<path d="M154.765 360.001L164.491 344.229" stroke="url(#paint75_linear_140_3495)" stroke-miterlimit="10"/>
<path d="M164.491 344.229L187.883 349.502" stroke="url(#paint76_linear_140_3495)" stroke-miterlimit="10"/>
<path d="M164.491 501.073V344.229" stroke="url(#paint77_linear_140_3495)" stroke-miterlimit="10"/>
<path d="M164.491 501.073L187.883 499.406" stroke="url(#paint78_linear_140_3495)" stroke-miterlimit="10"/>
<path d="M163.354 500.491V361.654" stroke="url(#paint79_linear_140_3495)" stroke-miterlimit="10"/>
<path d="M163.354 500.491L164.491 501.073" stroke="url(#paint80_linear_140_3495)" stroke-miterlimit="10"/>
<path d="M233.821 495.552V481.573" stroke="url(#paint81_linear_140_3495)" stroke-miterlimit="10"/>
<path d="M140.642 499.694L143.621 501.874" stroke="url(#paint82_linear_140_3495)" stroke-miterlimit="10"/>
<path d="M143.621 501.874V357.864" stroke="url(#paint83_linear_140_3495)" stroke-miterlimit="10"/>
<path d="M140.642 363.838L143.621 357.864" stroke="url(#paint84_linear_140_3495)" stroke-miterlimit="10"/>
<path d="M143.621 501.874L163.353 500.491" stroke="url(#paint85_linear_140_3495)" stroke-miterlimit="10"/>
<path d="M207.829 370.195L220.396 372.609" stroke="url(#paint86_linear_140_3495)" stroke-miterlimit="10"/>
<path d="M207.829 497.373L233.821 495.552" stroke="url(#paint87_linear_140_3495)" stroke-miterlimit="10"/>
<path d="M220.396 372.609L229.467 377.875" stroke="url(#paint88_linear_140_3495)" stroke-miterlimit="10"/>
<path d="M233.821 481.572L229.468 481.019" stroke="url(#paint89_linear_140_3495)" stroke-miterlimit="10"/>
<path d="M220.396 482.104L229.467 481.019" stroke="url(#paint90_linear_140_3495)" stroke-miterlimit="10"/>
<path d="M220.396 482.104L233.821 481.573" stroke="url(#paint91_linear_140_3495)" stroke-miterlimit="10"/>
<path d="M229.468 377.875V481.019" stroke="url(#paint92_linear_140_3495)" stroke-miterlimit="10"/>
<path d="M220.396 372.609V482.104" stroke="url(#paint93_linear_140_3495)" stroke-miterlimit="10"/>
<path d="M203.308 352.979V498.307" stroke="url(#paint94_linear_140_3495)" stroke-miterlimit="10"/>
<path d="M203.308 352.979L207.829 353.999" stroke="url(#paint95_linear_140_3495)" stroke-miterlimit="10"/>
<path d="M203.308 498.307L207.829 497.984" stroke="url(#paint96_linear_140_3495)" stroke-miterlimit="10"/>
<path d="M197.748 498.286L202.223 497.969" stroke="url(#paint97_linear_140_3495)" stroke-miterlimit="10"/>
<path d="M202.224 354.042V497.969" stroke="url(#paint98_linear_140_3495)" stroke-miterlimit="10"/>
<path d="M197.748 353.048L202.223 354.043" stroke="url(#paint99_linear_140_3495)" stroke-miterlimit="10"/>
<path d="M203.308 498.307L202.224 497.969" stroke="url(#paint100_linear_140_3495)" stroke-miterlimit="10"/>
<path d="M203.308 352.979L202.224 354.042" stroke="url(#paint101_linear_140_3495)" stroke-miterlimit="10"/>
<path d="M193.87 350.853V498.979" stroke="url(#paint102_linear_140_3495)" stroke-miterlimit="10"/>
<path d="M193.87 350.853L197.748 351.726" stroke="url(#paint103_linear_140_3495)" stroke-miterlimit="10"/>
<path d="M193.87 498.979L197.748 498.702" stroke="url(#paint104_linear_140_3495)" stroke-miterlimit="10"/>
<path d="M187.882 350.702L192.972 351.837" stroke="url(#paint105_linear_140_3495)" stroke-miterlimit="10"/>
<path d="M187.882 499.025L192.972 498.666" stroke="url(#paint106_linear_140_3495)" stroke-miterlimit="10"/>
<path d="M192.973 351.837V498.666" stroke="url(#paint107_linear_140_3495)" stroke-miterlimit="10"/>
<path d="M193.871 350.853L192.973 351.837" stroke="url(#paint108_linear_140_3495)" stroke-miterlimit="10"/>
<path d="M193.871 498.979L192.973 498.666" stroke="url(#paint109_linear_140_3495)" stroke-miterlimit="10"/>
<path d="M207.829 497.984V497.373" stroke="url(#paint110_linear_140_3495)" stroke-miterlimit="10"/>
<path d="M140.642 499.694V498.752" stroke="url(#paint111_linear_140_3495)" stroke-miterlimit="10"/>
<path d="M143.621 357.864L154.764 360.001" stroke="url(#paint112_linear_140_3495)" stroke-miterlimit="10"/>
<path d="M154.765 360.001L163.354 361.654" stroke="url(#paint113_linear_140_3495)" stroke-miterlimit="10"/>
<path d="M197.748 498.702V498.286" stroke="url(#paint114_linear_140_3495)" stroke-miterlimit="10"/>
<path d="M187.882 499.406V499.025" stroke="url(#paint115_linear_140_3495)" stroke-miterlimit="10"/>
<path d="M207.829 497.373V370.195" stroke="url(#paint116_linear_140_3495)" stroke-miterlimit="10"/>
<path d="M207.829 370.195V354" stroke="url(#paint117_linear_140_3495)" stroke-miterlimit="10"/>
<path d="M140.642 498.752V366.417" stroke="url(#paint118_linear_140_3495)" stroke-miterlimit="10"/>
<path d="M140.642 366.417V363.838" stroke="url(#paint119_linear_140_3495)" stroke-miterlimit="10"/>
<path d="M197.748 498.286V353.048" stroke="url(#paint120_linear_140_3495)" stroke-miterlimit="10"/>
<path d="M197.748 353.048V351.726" stroke="url(#paint121_linear_140_3495)" stroke-miterlimit="10"/>
<path d="M187.882 499.026V350.702" stroke="url(#paint122_linear_140_3495)" stroke-miterlimit="10"/>
<path d="M187.882 350.702V349.502" stroke="url(#paint123_linear_140_3495)" stroke-miterlimit="10"/>
</g>
<defs>
<linearGradient id="paint0_linear_140_3495" x1="542.582" y1="-219.658" x2="542.582" y2="566.202" gradientUnits="userSpaceOnUse">
<stop stop-color="#4E3607"/>
<stop offset="1" stop-color="#F6D66D"/>
</linearGradient>
<linearGradient id="paint1_linear_140_3495" x1="484.479" y1="39.8267" x2="484.479" y2="561.824" gradientUnits="userSpaceOnUse">
<stop stop-color="#F6D66D"/>
<stop offset="1" stop-color="#4E3607"/>
</linearGradient>
<linearGradient id="paint2_linear_140_3495" x1="484.492" y1="39.8401" x2="484.492" y2="515.839" gradientUnits="userSpaceOnUse">
<stop stop-color="#4E3607"/>
<stop offset="1" stop-color="#F6D66D"/>
</linearGradient>
<linearGradient id="paint3_linear_140_3495" x1="597.947" y1="-92.9442" x2="597.947" y2="559.339" gradientUnits="userSpaceOnUse">
<stop stop-color="#4E3607"/>
<stop offset="1" stop-color="#F6D66D"/>
</linearGradient>
<linearGradient id="paint4_linear_140_3495" x1="408.84" y1="422.264" x2="408.84" y2="422.472" gradientUnits="userSpaceOnUse">
<stop stop-color="#4E3607"/>
<stop offset="1" stop-color="#F6D66D"/>
</linearGradient>
<linearGradient id="paint5_linear_140_3495" x1="416.966" y1="422.808" x2="416.966" y2="422.929" gradientUnits="userSpaceOnUse">
<stop stop-color="#4E3607"/>
<stop offset="1" stop-color="#F6D66D"/>
</linearGradient>
<linearGradient id="paint6_linear_140_3495" x1="406.112" y1="422.143" x2="406.112" y2="422.264" gradientUnits="userSpaceOnUse">
<stop stop-color="#4E3607"/>
<stop offset="1" stop-color="#F6D66D"/>
</linearGradient>
<linearGradient id="paint7_linear_140_3495" x1="411.562" y1="422.472" x2="411.562" y2="422.6" gradientUnits="userSpaceOnUse">
<stop stop-color="#4E3607"/>
<stop offset="1" stop-color="#F6D66D"/>
</linearGradient>
<linearGradient id="paint8_linear_140_3495" x1="414.271" y1="422.6" x2="414.271" y2="422.808" gradientUnits="userSpaceOnUse">
<stop stop-color="#4E3607"/>
<stop offset="1" stop-color="#F6D66D"/>
</linearGradient>
<linearGradient id="paint9_linear_140_3495" x1="403.372" y1="421.928" x2="403.372" y2="422.143" gradientUnits="userSpaceOnUse">
<stop stop-color="#4E3607"/>
<stop offset="1" stop-color="#F6D66D"/>
</linearGradient>
<linearGradient id="paint10_linear_140_3495" x1="400.622" y1="421.808" x2="400.622" y2="421.928" gradientUnits="userSpaceOnUse">
<stop stop-color="#4E3607"/>
<stop offset="1" stop-color="#F6D66D"/>
</linearGradient>
<linearGradient id="paint11_linear_140_3495" x1="395.082" y1="421.465" x2="395.082" y2="421.593" gradientUnits="userSpaceOnUse">
<stop stop-color="#4E3607"/>
<stop offset="1" stop-color="#F6D66D"/>
</linearGradient>
<linearGradient id="paint12_linear_140_3495" x1="397.855" y1="421.593" x2="397.855" y2="421.807" gradientUnits="userSpaceOnUse">
<stop stop-color="#4E3607"/>
<stop offset="1" stop-color="#F6D66D"/>
</linearGradient>
<linearGradient id="paint13_linear_140_3495" x1="702.122" y1="-206.792" x2="702.122" y2="565.018" gradientUnits="userSpaceOnUse">
<stop stop-color="#4E3607"/>
<stop offset="1" stop-color="#F6D66D"/>
</linearGradient>
<linearGradient id="paint14_linear_140_3495" x1="1.11774" y1="363.859" x2="1.11774" y2="369.189" gradientUnits="userSpaceOnUse">
<stop offset="0.151042" stop-color="#4E3607"/>
<stop offset="1" stop-color="#F6D66D"/>
</linearGradient>
<linearGradient id="paint15_linear_140_3495" x1="1.11774" y1="497.74" x2="1.11774" y2="499.686" gradientUnits="userSpaceOnUse">
<stop offset="0.151042" stop-color="#4E3607"/>
<stop offset="1" stop-color="#F6D66D"/>
</linearGradient>
<linearGradient id="paint16_linear_140_3495" x1="9.34884" y1="498.752" x2="9.34884" y2="499.686" gradientUnits="userSpaceOnUse">
<stop offset="0.151042" stop-color="#4E3607"/>
<stop offset="1" stop-color="#F6D66D"/>
</linearGradient>
<linearGradient id="paint17_linear_140_3495" x1="0.678711" y1="369.189" x2="0.678711" y2="497.74" gradientUnits="userSpaceOnUse">
<stop offset="0.151042" stop-color="#4E3607"/>
<stop offset="1" stop-color="#F6D66D"/>
</linearGradient>
<linearGradient id="paint18_linear_140_3495" x1="2.55664" y1="363.859" x2="2.55664" y2="499.686" gradientUnits="userSpaceOnUse">
<stop offset="0.151042" stop-color="#4E3607"/>
<stop offset="1" stop-color="#F6D66D"/>
</linearGradient>
<linearGradient id="paint19_linear_140_3495" x1="9.34884" y1="363.859" x2="9.34884" y2="366.417" gradientUnits="userSpaceOnUse">
<stop offset="0.151042" stop-color="#4E3607"/>
<stop offset="1" stop-color="#F6D66D"/>
</linearGradient>
<linearGradient id="paint20_linear_140_3495" x1="35.6279" y1="344.229" x2="35.6279" y2="360.001" gradientUnits="userSpaceOnUse">
<stop offset="0.151042" stop-color="#4E3607"/>
<stop offset="1" stop-color="#F6D66D"/>
</linearGradient>
<linearGradient id="paint21_linear_140_3495" x1="52.187" y1="344.229" x2="52.187" y2="349.502" gradientUnits="userSpaceOnUse">
<stop offset="0.151042" stop-color="#4E3607"/>
<stop offset="1" stop-color="#F6D66D"/>
</linearGradient>
<linearGradient id="paint22_linear_140_3495" x1="40.9912" y1="344.229" x2="40.9912" y2="501.073" gradientUnits="userSpaceOnUse">
<stop offset="0.151042" stop-color="#4E3607"/>
<stop offset="1" stop-color="#F6D66D"/>
</linearGradient>
<linearGradient id="paint23_linear_140_3495" x1="52.187" y1="499.406" x2="52.187" y2="501.073" gradientUnits="userSpaceOnUse">
<stop offset="0.151042" stop-color="#4E3607"/>
<stop offset="1" stop-color="#F6D66D"/>
</linearGradient>
<linearGradient id="paint24_linear_140_3495" x1="39.8535" y1="361.654" x2="39.8535" y2="500.491" gradientUnits="userSpaceOnUse">
<stop offset="0.151042" stop-color="#4E3607"/>
<stop offset="1" stop-color="#F6D66D"/>
</linearGradient>
<linearGradient id="paint25_linear_140_3495" x1="39.9223" y1="500.491" x2="39.9223" y2="501.073" gradientUnits="userSpaceOnUse">
<stop offset="0.151042" stop-color="#4E3607"/>
<stop offset="1" stop-color="#F6D66D"/>
</linearGradient>
<linearGradient id="paint26_linear_140_3495" x1="110.321" y1="481.573" x2="110.321" y2="495.552" gradientUnits="userSpaceOnUse">
<stop offset="0.151042" stop-color="#4E3607"/>
<stop offset="1" stop-color="#F6D66D"/>
</linearGradient>
<linearGradient id="paint27_linear_140_3495" x1="18.1315" y1="499.694" x2="18.1315" y2="501.874" gradientUnits="userSpaceOnUse">
<stop offset="0.151042" stop-color="#4E3607"/>
<stop offset="1" stop-color="#F6D66D"/>
</linearGradient>
<linearGradient id="paint28_linear_140_3495" x1="20.1211" y1="357.864" x2="20.1211" y2="501.874" gradientUnits="userSpaceOnUse">
<stop offset="0.151042" stop-color="#4E3607"/>
<stop offset="1" stop-color="#F6D66D"/>
</linearGradient>
<linearGradient id="paint29_linear_140_3495" x1="18.1315" y1="357.864" x2="18.1315" y2="363.838" gradientUnits="userSpaceOnUse">
<stop offset="0.151042" stop-color="#4E3607"/>
<stop offset="1" stop-color="#F6D66D"/>
</linearGradient>
<linearGradient id="paint30_linear_140_3495" x1="29.4871" y1="500.491" x2="29.4871" y2="501.874" gradientUnits="userSpaceOnUse">
<stop offset="0.151042" stop-color="#4E3607"/>
<stop offset="1" stop-color="#F6D66D"/>
</linearGradient>
<linearGradient id="paint31_linear_140_3495" x1="90.1125" y1="370.195" x2="90.1125" y2="372.609" gradientUnits="userSpaceOnUse">
<stop offset="0.151042" stop-color="#4E3607"/>
<stop offset="1" stop-color="#F6D66D"/>
</linearGradient>
<linearGradient id="paint32_linear_140_3495" x1="96.8252" y1="495.552" x2="96.8252" y2="497.373" gradientUnits="userSpaceOnUse">
<stop offset="0.151042" stop-color="#4E3607"/>
<stop offset="1" stop-color="#F6D66D"/>
</linearGradient>
<linearGradient id="paint33_linear_140_3495" x1="100.931" y1="372.609" x2="100.931" y2="377.875" gradientUnits="userSpaceOnUse">
<stop offset="0.151042" stop-color="#4E3607"/>
<stop offset="1" stop-color="#F6D66D"/>
</linearGradient>
<linearGradient id="paint34_linear_140_3495" x1="107.645" y1="481.019" x2="107.645" y2="481.572" gradientUnits="userSpaceOnUse">
<stop offset="0.151042" stop-color="#4E3607"/>
<stop offset="1" stop-color="#F6D66D"/>
</linearGradient>
<linearGradient id="paint35_linear_140_3495" x1="100.931" y1="481.019" x2="100.931" y2="482.104" gradientUnits="userSpaceOnUse">
<stop offset="0.151042" stop-color="#4E3607"/>
<stop offset="1" stop-color="#F6D66D"/>
</linearGradient>
<linearGradient id="paint36_linear_140_3495" x1="103.108" y1="481.573" x2="103.108" y2="482.104" gradientUnits="userSpaceOnUse">
<stop offset="0.151042" stop-color="#4E3607"/>
<stop offset="1" stop-color="#F6D66D"/>
</linearGradient>
<linearGradient id="paint37_linear_140_3495" x1="105.968" y1="377.875" x2="105.968" y2="481.019" gradientUnits="userSpaceOnUse">
<stop offset="0.151042" stop-color="#4E3607"/>
<stop offset="1" stop-color="#F6D66D"/>
</linearGradient>
<linearGradient id="paint38_linear_140_3495" x1="96.8955" y1="372.609" x2="96.8955" y2="482.104" gradientUnits="userSpaceOnUse">
<stop offset="0.151042" stop-color="#4E3607"/>
<stop offset="1" stop-color="#F6D66D"/>
</linearGradient>
<linearGradient id="paint39_linear_140_3495" x1="79.8076" y1="352.979" x2="79.8076" y2="498.307" gradientUnits="userSpaceOnUse">
<stop offset="0.151042" stop-color="#4E3607"/>
<stop offset="1" stop-color="#F6D66D"/>
</linearGradient>
<linearGradient id="paint40_linear_140_3495" x1="81.5684" y1="352.979" x2="81.5684" y2="353.999" gradientUnits="userSpaceOnUse">
<stop offset="0.151042" stop-color="#4E3607"/>
<stop offset="1" stop-color="#F6D66D"/>
</linearGradient>
<linearGradient id="paint41_linear_140_3495" x1="81.5684" y1="497.984" x2="81.5684" y2="498.307" gradientUnits="userSpaceOnUse">
<stop offset="0.151042" stop-color="#4E3607"/>
<stop offset="1" stop-color="#F6D66D"/>
</linearGradient>
<linearGradient id="paint42_linear_140_3495" x1="75.9856" y1="497.969" x2="75.9856" y2="498.286" gradientUnits="userSpaceOnUse">
<stop offset="0.151042" stop-color="#4E3607"/>
<stop offset="1" stop-color="#F6D66D"/>
</linearGradient>
<linearGradient id="paint43_linear_140_3495" x1="78.7236" y1="354.042" x2="78.7236" y2="497.969" gradientUnits="userSpaceOnUse">
<stop offset="0.151042" stop-color="#4E3607"/>
<stop offset="1" stop-color="#F6D66D"/>
</linearGradient>
<linearGradient id="paint44_linear_140_3495" x1="75.9856" y1="353.048" x2="75.9856" y2="354.043" gradientUnits="userSpaceOnUse">
<stop offset="0.151042" stop-color="#4E3607"/>
<stop offset="1" stop-color="#F6D66D"/>
</linearGradient>
<linearGradient id="paint45_linear_140_3495" x1="78.7656" y1="497.969" x2="78.7656" y2="498.307" gradientUnits="userSpaceOnUse">
<stop offset="0.151042" stop-color="#4E3607"/>
<stop offset="1" stop-color="#F6D66D"/>
</linearGradient>
<linearGradient id="paint46_linear_140_3495" x1="78.7656" y1="352.979" x2="78.7656" y2="354.042" gradientUnits="userSpaceOnUse">
<stop offset="0.151042" stop-color="#4E3607"/>
<stop offset="1" stop-color="#F6D66D"/>
</linearGradient>
<linearGradient id="paint47_linear_140_3495" x1="70.3701" y1="350.853" x2="70.3701" y2="498.979" gradientUnits="userSpaceOnUse">
<stop offset="0.151042" stop-color="#4E3607"/>
<stop offset="1" stop-color="#F6D66D"/>
</linearGradient>
<linearGradient id="paint48_linear_140_3495" x1="71.809" y1="350.853" x2="71.809" y2="351.726" gradientUnits="userSpaceOnUse">
<stop offset="0.151042" stop-color="#4E3607"/>
<stop offset="1" stop-color="#F6D66D"/>
</linearGradient>
<linearGradient id="paint49_linear_140_3495" x1="71.809" y1="498.702" x2="71.809" y2="498.979" gradientUnits="userSpaceOnUse">
<stop offset="0.151042" stop-color="#4E3607"/>
<stop offset="1" stop-color="#F6D66D"/>
</linearGradient>
<linearGradient id="paint50_linear_140_3495" x1="66.427" y1="350.702" x2="66.427" y2="351.837" gradientUnits="userSpaceOnUse">
<stop offset="0.151042" stop-color="#4E3607"/>
<stop offset="1" stop-color="#F6D66D"/>
</linearGradient>
<linearGradient id="paint51_linear_140_3495" x1="66.427" y1="498.666" x2="66.427" y2="499.025" gradientUnits="userSpaceOnUse">
<stop offset="0.151042" stop-color="#4E3607"/>
<stop offset="1" stop-color="#F6D66D"/>
</linearGradient>
<linearGradient id="paint52_linear_140_3495" x1="69.4727" y1="351.837" x2="69.4727" y2="498.666" gradientUnits="userSpaceOnUse">
<stop offset="0.151042" stop-color="#4E3607"/>
<stop offset="1" stop-color="#F6D66D"/>
</linearGradient>
<linearGradient id="paint53_linear_140_3495" x1="69.4216" y1="350.853" x2="69.4216" y2="351.837" gradientUnits="userSpaceOnUse">
<stop offset="0.151042" stop-color="#4E3607"/>
<stop offset="1" stop-color="#F6D66D"/>
</linearGradient>
<linearGradient id="paint54_linear_140_3495" x1="69.4216" y1="498.666" x2="69.4216" y2="498.979" gradientUnits="userSpaceOnUse">
<stop offset="0.151042" stop-color="#4E3607"/>
<stop offset="1" stop-color="#F6D66D"/>
</linearGradient>
<linearGradient id="paint55_linear_140_3495" x1="84.3291" y1="497.373" x2="84.3291" y2="497.984" gradientUnits="userSpaceOnUse">
<stop offset="0.151042" stop-color="#4E3607"/>
<stop offset="1" stop-color="#F6D66D"/>
</linearGradient>
<linearGradient id="paint56_linear_140_3495" x1="17.1416" y1="498.752" x2="17.1416" y2="499.694" gradientUnits="userSpaceOnUse">
<stop offset="0.151042" stop-color="#4E3607"/>
<stop offset="1" stop-color="#F6D66D"/>
</linearGradient>
<linearGradient id="paint57_linear_140_3495" x1="25.1926" y1="357.864" x2="25.1926" y2="360.001" gradientUnits="userSpaceOnUse">
<stop offset="0.151042" stop-color="#4E3607"/>
<stop offset="1" stop-color="#F6D66D"/>
</linearGradient>
<linearGradient id="paint58_linear_140_3495" x1="35.0591" y1="360.001" x2="35.0591" y2="361.654" gradientUnits="userSpaceOnUse">
<stop offset="0.151042" stop-color="#4E3607"/>
<stop offset="1" stop-color="#F6D66D"/>
</linearGradient>
<linearGradient id="paint59_linear_140_3495" x1="74.248" y1="498.286" x2="74.248" y2="498.702" gradientUnits="userSpaceOnUse">
<stop offset="0.151042" stop-color="#4E3607"/>
<stop offset="1" stop-color="#F6D66D"/>
</linearGradient>
<linearGradient id="paint60_linear_140_3495" x1="64.3818" y1="499.025" x2="64.3818" y2="499.406" gradientUnits="userSpaceOnUse">
<stop offset="0.151042" stop-color="#4E3607"/>
<stop offset="1" stop-color="#F6D66D"/>
</linearGradient>
<linearGradient id="paint61_linear_140_3495" x1="84.3291" y1="370.195" x2="84.3291" y2="497.373" gradientUnits="userSpaceOnUse">
<stop offset="0.151042" stop-color="#4E3607"/>
<stop offset="1" stop-color="#F6D66D"/>
</linearGradient>
<linearGradient id="paint62_linear_140_3495" x1="84.3291" y1="354" x2="84.3291" y2="370.195" gradientUnits="userSpaceOnUse">
<stop offset="0.151042" stop-color="#4E3607"/>
<stop offset="1" stop-color="#F6D66D"/>
</linearGradient>
<linearGradient id="paint63_linear_140_3495" x1="17.1416" y1="366.417" x2="17.1416" y2="498.752" gradientUnits="userSpaceOnUse">
<stop offset="0.151042" stop-color="#4E3607"/>
<stop offset="1" stop-color="#F6D66D"/>
</linearGradient>
<linearGradient id="paint64_linear_140_3495" x1="17.1416" y1="363.838" x2="17.1416" y2="366.417" gradientUnits="userSpaceOnUse">
<stop offset="0.151042" stop-color="#4E3607"/>
<stop offset="1" stop-color="#F6D66D"/>
</linearGradient>
<linearGradient id="paint65_linear_140_3495" x1="74.248" y1="353.048" x2="74.248" y2="498.286" gradientUnits="userSpaceOnUse">
<stop offset="0.151042" stop-color="#4E3607"/>
<stop offset="1" stop-color="#F6D66D"/>
</linearGradient>
<linearGradient id="paint66_linear_140_3495" x1="74.248" y1="351.726" x2="74.248" y2="353.048" gradientUnits="userSpaceOnUse">
<stop offset="0.151042" stop-color="#4E3607"/>
<stop offset="1" stop-color="#F6D66D"/>
</linearGradient>
<linearGradient id="paint67_linear_140_3495" x1="64.3818" y1="350.702" x2="64.3818" y2="499.026" gradientUnits="userSpaceOnUse">
<stop offset="0.151042" stop-color="#4E3607"/>
<stop offset="1" stop-color="#F6D66D"/>
</linearGradient>
<linearGradient id="paint68_linear_140_3495" x1="64.3818" y1="349.502" x2="64.3818" y2="350.702" gradientUnits="userSpaceOnUse">
<stop offset="0.151042" stop-color="#4E3607"/>
<stop offset="1" stop-color="#F6D66D"/>
</linearGradient>
<linearGradient id="paint69_linear_140_3495" x1="125.118" y1="363.859" x2="125.118" y2="369.189" gradientUnits="userSpaceOnUse">
<stop offset="0.151042" stop-color="#4E3607"/>
<stop offset="1" stop-color="#F6D66D"/>
</linearGradient>
<linearGradient id="paint70_linear_140_3495" x1="125.118" y1="497.74" x2="125.118" y2="499.686" gradientUnits="userSpaceOnUse">
<stop offset="0.151042" stop-color="#4E3607"/>
<stop offset="1" stop-color="#F6D66D"/>
</linearGradient>
<linearGradient id="paint71_linear_140_3495" x1="133.349" y1="498.752" x2="133.349" y2="499.686" gradientUnits="userSpaceOnUse">
<stop offset="0.151042" stop-color="#4E3607"/>
<stop offset="1" stop-color="#F6D66D"/>
</linearGradient>
<linearGradient id="paint72_linear_140_3495" x1="124.679" y1="369.189" x2="124.679" y2="497.74" gradientUnits="userSpaceOnUse">
<stop offset="0.151042" stop-color="#4E3607"/>
<stop offset="1" stop-color="#F6D66D"/>
</linearGradient>
<linearGradient id="paint73_linear_140_3495" x1="126.557" y1="363.859" x2="126.557" y2="499.686" gradientUnits="userSpaceOnUse">
<stop offset="0.151042" stop-color="#4E3607"/>
<stop offset="1" stop-color="#F6D66D"/>
</linearGradient>
<linearGradient id="paint74_linear_140_3495" x1="133.349" y1="363.859" x2="133.349" y2="366.417" gradientUnits="userSpaceOnUse">
<stop offset="0.151042" stop-color="#4E3607"/>
<stop offset="1" stop-color="#F6D66D"/>
</linearGradient>
<linearGradient id="paint75_linear_140_3495" x1="159.628" y1="344.229" x2="159.628" y2="360.001" gradientUnits="userSpaceOnUse">
<stop offset="0.151042" stop-color="#4E3607"/>
<stop offset="1" stop-color="#F6D66D"/>
</linearGradient>
<linearGradient id="paint76_linear_140_3495" x1="176.187" y1="344.229" x2="176.187" y2="349.502" gradientUnits="userSpaceOnUse">
<stop offset="0.151042" stop-color="#4E3607"/>
<stop offset="1" stop-color="#F6D66D"/>
</linearGradient>
<linearGradient id="paint77_linear_140_3495" x1="164.991" y1="344.229" x2="164.991" y2="501.073" gradientUnits="userSpaceOnUse">
<stop offset="0.151042" stop-color="#4E3607"/>
<stop offset="1" stop-color="#F6D66D"/>
</linearGradient>
<linearGradient id="paint78_linear_140_3495" x1="176.187" y1="499.406" x2="176.187" y2="501.073" gradientUnits="userSpaceOnUse">
<stop offset="0.151042" stop-color="#4E3607"/>
<stop offset="1" stop-color="#F6D66D"/>
</linearGradient>
<linearGradient id="paint79_linear_140_3495" x1="163.854" y1="361.654" x2="163.854" y2="500.491" gradientUnits="userSpaceOnUse">
<stop offset="0.151042" stop-color="#4E3607"/>
<stop offset="1" stop-color="#F6D66D"/>
</linearGradient>
<linearGradient id="paint80_linear_140_3495" x1="163.922" y1="500.491" x2="163.922" y2="501.073" gradientUnits="userSpaceOnUse">
<stop offset="0.151042" stop-color="#4E3607"/>
<stop offset="1" stop-color="#F6D66D"/>
</linearGradient>
<linearGradient id="paint81_linear_140_3495" x1="234.321" y1="481.573" x2="234.321" y2="495.552" gradientUnits="userSpaceOnUse">
<stop offset="0.151042" stop-color="#4E3607"/>
<stop offset="1" stop-color="#F6D66D"/>
</linearGradient>
<linearGradient id="paint82_linear_140_3495" x1="142.132" y1="499.694" x2="142.132" y2="501.874" gradientUnits="userSpaceOnUse">
<stop offset="0.151042" stop-color="#4E3607"/>
<stop offset="1" stop-color="#F6D66D"/>
</linearGradient>
<linearGradient id="paint83_linear_140_3495" x1="144.121" y1="357.864" x2="144.121" y2="501.874" gradientUnits="userSpaceOnUse">
<stop offset="0.151042" stop-color="#4E3607"/>
<stop offset="1" stop-color="#F6D66D"/>
</linearGradient>
<linearGradient id="paint84_linear_140_3495" x1="142.132" y1="357.864" x2="142.132" y2="363.838" gradientUnits="userSpaceOnUse">
<stop offset="0.151042" stop-color="#4E3607"/>
<stop offset="1" stop-color="#F6D66D"/>
</linearGradient>
<linearGradient id="paint85_linear_140_3495" x1="153.487" y1="500.491" x2="153.487" y2="501.874" gradientUnits="userSpaceOnUse">
<stop offset="0.151042" stop-color="#4E3607"/>
<stop offset="1" stop-color="#F6D66D"/>
</linearGradient>
<linearGradient id="paint86_linear_140_3495" x1="214.113" y1="370.195" x2="214.113" y2="372.609" gradientUnits="userSpaceOnUse">
<stop offset="0.151042" stop-color="#4E3607"/>
<stop offset="1" stop-color="#F6D66D"/>
</linearGradient>
<linearGradient id="paint87_linear_140_3495" x1="220.825" y1="495.552" x2="220.825" y2="497.373" gradientUnits="userSpaceOnUse">
<stop offset="0.151042" stop-color="#4E3607"/>
<stop offset="1" stop-color="#F6D66D"/>
</linearGradient>
<linearGradient id="paint88_linear_140_3495" x1="224.931" y1="372.609" x2="224.931" y2="377.875" gradientUnits="userSpaceOnUse">
<stop offset="0.151042" stop-color="#4E3607"/>
<stop offset="1" stop-color="#F6D66D"/>
</linearGradient>
<linearGradient id="paint89_linear_140_3495" x1="231.645" y1="481.019" x2="231.645" y2="481.572" gradientUnits="userSpaceOnUse">
<stop offset="0.151042" stop-color="#4E3607"/>
<stop offset="1" stop-color="#F6D66D"/>
</linearGradient>
<linearGradient id="paint90_linear_140_3495" x1="224.931" y1="481.019" x2="224.931" y2="482.104" gradientUnits="userSpaceOnUse">
<stop offset="0.151042" stop-color="#4E3607"/>
<stop offset="1" stop-color="#F6D66D"/>
</linearGradient>
<linearGradient id="paint91_linear_140_3495" x1="227.108" y1="481.573" x2="227.108" y2="482.104" gradientUnits="userSpaceOnUse">
<stop offset="0.151042" stop-color="#4E3607"/>
<stop offset="1" stop-color="#F6D66D"/>
</linearGradient>
<linearGradient id="paint92_linear_140_3495" x1="229.968" y1="377.875" x2="229.968" y2="481.019" gradientUnits="userSpaceOnUse">
<stop offset="0.151042" stop-color="#4E3607"/>
<stop offset="1" stop-color="#F6D66D"/>
</linearGradient>
<linearGradient id="paint93_linear_140_3495" x1="220.896" y1="372.609" x2="220.896" y2="482.104" gradientUnits="userSpaceOnUse">
<stop offset="0.151042" stop-color="#4E3607"/>
<stop offset="1" stop-color="#F6D66D"/>
</linearGradient>
<linearGradient id="paint94_linear_140_3495" x1="203.808" y1="352.979" x2="203.808" y2="498.307" gradientUnits="userSpaceOnUse">
<stop offset="0.151042" stop-color="#4E3607"/>
<stop offset="1" stop-color="#F6D66D"/>
</linearGradient>
<linearGradient id="paint95_linear_140_3495" x1="205.568" y1="352.979" x2="205.568" y2="353.999" gradientUnits="userSpaceOnUse">
<stop offset="0.151042" stop-color="#4E3607"/>
<stop offset="1" stop-color="#F6D66D"/>
</linearGradient>
<linearGradient id="paint96_linear_140_3495" x1="205.568" y1="497.984" x2="205.568" y2="498.307" gradientUnits="userSpaceOnUse">
<stop offset="0.151042" stop-color="#4E3607"/>
<stop offset="1" stop-color="#F6D66D"/>
</linearGradient>
<linearGradient id="paint97_linear_140_3495" x1="199.986" y1="497.969" x2="199.986" y2="498.286" gradientUnits="userSpaceOnUse">
<stop offset="0.151042" stop-color="#4E3607"/>
<stop offset="1" stop-color="#F6D66D"/>
</linearGradient>
<linearGradient id="paint98_linear_140_3495" x1="202.724" y1="354.042" x2="202.724" y2="497.969" gradientUnits="userSpaceOnUse">
<stop offset="0.151042" stop-color="#4E3607"/>
<stop offset="1" stop-color="#F6D66D"/>
</linearGradient>
<linearGradient id="paint99_linear_140_3495" x1="199.986" y1="353.048" x2="199.986" y2="354.043" gradientUnits="userSpaceOnUse">
<stop offset="0.151042" stop-color="#4E3607"/>
<stop offset="1" stop-color="#F6D66D"/>
</linearGradient>
<linearGradient id="paint100_linear_140_3495" x1="202.766" y1="497.969" x2="202.766" y2="498.307" gradientUnits="userSpaceOnUse">
<stop offset="0.151042" stop-color="#4E3607"/>
<stop offset="1" stop-color="#F6D66D"/>
</linearGradient>
<linearGradient id="paint101_linear_140_3495" x1="202.766" y1="352.979" x2="202.766" y2="354.042" gradientUnits="userSpaceOnUse">
<stop offset="0.151042" stop-color="#4E3607"/>
<stop offset="1" stop-color="#F6D66D"/>
</linearGradient>
<linearGradient id="paint102_linear_140_3495" x1="194.37" y1="350.853" x2="194.37" y2="498.979" gradientUnits="userSpaceOnUse">
<stop offset="0.151042" stop-color="#4E3607"/>
<stop offset="1" stop-color="#F6D66D"/>
</linearGradient>
<linearGradient id="paint103_linear_140_3495" x1="195.809" y1="350.853" x2="195.809" y2="351.726" gradientUnits="userSpaceOnUse">
<stop offset="0.151042" stop-color="#4E3607"/>
<stop offset="1" stop-color="#F6D66D"/>
</linearGradient>
<linearGradient id="paint104_linear_140_3495" x1="195.809" y1="498.702" x2="195.809" y2="498.979" gradientUnits="userSpaceOnUse">
<stop offset="0.151042" stop-color="#4E3607"/>
<stop offset="1" stop-color="#F6D66D"/>
</linearGradient>
<linearGradient id="paint105_linear_140_3495" x1="190.427" y1="350.702" x2="190.427" y2="351.837" gradientUnits="userSpaceOnUse">
<stop offset="0.151042" stop-color="#4E3607"/>
<stop offset="1" stop-color="#F6D66D"/>
</linearGradient>
<linearGradient id="paint106_linear_140_3495" x1="190.427" y1="498.666" x2="190.427" y2="499.025" gradientUnits="userSpaceOnUse">
<stop offset="0.151042" stop-color="#4E3607"/>
<stop offset="1" stop-color="#F6D66D"/>
</linearGradient>
<linearGradient id="paint107_linear_140_3495" x1="193.473" y1="351.837" x2="193.473" y2="498.666" gradientUnits="userSpaceOnUse">
<stop offset="0.151042" stop-color="#4E3607"/>
<stop offset="1" stop-color="#F6D66D"/>
</linearGradient>
<linearGradient id="paint108_linear_140_3495" x1="193.422" y1="350.853" x2="193.422" y2="351.837" gradientUnits="userSpaceOnUse">
<stop offset="0.151042" stop-color="#4E3607"/>
<stop offset="1" stop-color="#F6D66D"/>
</linearGradient>
<linearGradient id="paint109_linear_140_3495" x1="193.422" y1="498.666" x2="193.422" y2="498.979" gradientUnits="userSpaceOnUse">
<stop offset="0.151042" stop-color="#4E3607"/>
<stop offset="1" stop-color="#F6D66D"/>
</linearGradient>
<linearGradient id="paint110_linear_140_3495" x1="208.329" y1="497.373" x2="208.329" y2="497.984" gradientUnits="userSpaceOnUse">
<stop offset="0.151042" stop-color="#4E3607"/>
<stop offset="1" stop-color="#F6D66D"/>
</linearGradient>
<linearGradient id="paint111_linear_140_3495" x1="141.142" y1="498.752" x2="141.142" y2="499.694" gradientUnits="userSpaceOnUse">
<stop offset="0.151042" stop-color="#4E3607"/>
<stop offset="1" stop-color="#F6D66D"/>
</linearGradient>
<linearGradient id="paint112_linear_140_3495" x1="149.193" y1="357.864" x2="149.193" y2="360.001" gradientUnits="userSpaceOnUse">
<stop offset="0.151042" stop-color="#4E3607"/>
<stop offset="1" stop-color="#F6D66D"/>
</linearGradient>
<linearGradient id="paint113_linear_140_3495" x1="159.059" y1="360.001" x2="159.059" y2="361.654" gradientUnits="userSpaceOnUse">
<stop offset="0.151042" stop-color="#4E3607"/>
<stop offset="1" stop-color="#F6D66D"/>
</linearGradient>
<linearGradient id="paint114_linear_140_3495" x1="198.248" y1="498.286" x2="198.248" y2="498.702" gradientUnits="userSpaceOnUse">
<stop offset="0.151042" stop-color="#4E3607"/>
<stop offset="1" stop-color="#F6D66D"/>
</linearGradient>
<linearGradient id="paint115_linear_140_3495" x1="188.382" y1="499.025" x2="188.382" y2="499.406" gradientUnits="userSpaceOnUse">
<stop offset="0.151042" stop-color="#4E3607"/>
<stop offset="1" stop-color="#F6D66D"/>
</linearGradient>
<linearGradient id="paint116_linear_140_3495" x1="208.329" y1="370.195" x2="208.329" y2="497.373" gradientUnits="userSpaceOnUse">
<stop offset="0.151042" stop-color="#4E3607"/>
<stop offset="1" stop-color="#F6D66D"/>
</linearGradient>
<linearGradient id="paint117_linear_140_3495" x1="208.329" y1="354" x2="208.329" y2="370.195" gradientUnits="userSpaceOnUse">
<stop offset="0.151042" stop-color="#4E3607"/>
<stop offset="1" stop-color="#F6D66D"/>
</linearGradient>
<linearGradient id="paint118_linear_140_3495" x1="141.142" y1="366.417" x2="141.142" y2="498.752" gradientUnits="userSpaceOnUse">
<stop offset="0.151042" stop-color="#4E3607"/>
<stop offset="1" stop-color="#F6D66D"/>
</linearGradient>
<linearGradient id="paint119_linear_140_3495" x1="141.142" y1="363.838" x2="141.142" y2="366.417" gradientUnits="userSpaceOnUse">
<stop offset="0.151042" stop-color="#4E3607"/>
<stop offset="1" stop-color="#F6D66D"/>
</linearGradient>
<linearGradient id="paint120_linear_140_3495" x1="198.248" y1="353.048" x2="198.248" y2="498.286" gradientUnits="userSpaceOnUse">
<stop offset="0.151042" stop-color="#4E3607"/>
<stop offset="1" stop-color="#F6D66D"/>
</linearGradient>
<linearGradient id="paint121_linear_140_3495" x1="198.248" y1="351.726" x2="198.248" y2="353.048" gradientUnits="userSpaceOnUse">
<stop offset="0.151042" stop-color="#4E3607"/>
<stop offset="1" stop-color="#F6D66D"/>
</linearGradient>
<linearGradient id="paint122_linear_140_3495" x1="188.382" y1="350.702" x2="188.382" y2="499.026" gradientUnits="userSpaceOnUse">
<stop offset="0.151042" stop-color="#4E3607"/>
<stop offset="1" stop-color="#F6D66D"/>
</linearGradient>
<linearGradient id="paint123_linear_140_3495" x1="188.382" y1="349.502" x2="188.382" y2="350.702" gradientUnits="userSpaceOnUse">
<stop offset="0.151042" stop-color="#4E3607"/>
<stop offset="1" stop-color="#F6D66D"/>
</linearGradient>
<clipPath id="clip0_140_3495">
<rect width="110" height="158" fill="white" transform="translate(0 344.053)"/>
</clipPath>
<clipPath id="clip1_140_3495">
<rect width="110" height="158" fill="white" transform="translate(124 344.053)"/>
</clipPath>
</defs>
</svg>
