<svg width="144" height="49" viewBox="0 0 144 49" fill="none" xmlns="http://www.w3.org/2000/svg">
<g id="Group">
<g id="Group_2">
<g id="Group_3">
<path id="Vector" d="M132.162 0.667026H11.4416C11.0016 0.667026 10.5668 0.667026 10.1279 0.669426C9.76056 0.671826 9.39611 0.678798 9.0252 0.684666C8.21942 0.694148 7.41553 0.765038 6.62052 0.896718C5.82663 1.03127 5.05761 1.28493 4.33946 1.64912C3.6222 2.01639 2.96681 2.49363 2.39708 3.06351C1.82436 3.63179 1.34696 4.28865 0.98322 5.00882C0.61848 5.72756 0.365569 6.49775 0.23322 7.2928C0.0996131 8.08685 0.0277181 8.89005 0.01818 9.6952C0.007044 10.0631 0.005868 10.4323 0 10.8002V38.5373C0.005868 38.9099 0.007044 39.2709 0.01818 39.6436C0.027721 40.4487 0.0996161 41.2519 0.23322 42.0459C0.365203 42.8414 0.61813 43.6121 0.98322 44.3311C1.34679 45.0489 1.82427 45.7031 2.39708 46.2682C2.96465 46.8406 3.62046 47.3182 4.33946 47.6827C5.0576 48.0478 5.82654 48.303 6.62052 48.4396C7.41566 48.5703 8.21947 48.6412 9.0252 48.6518C9.39611 48.66 9.76056 48.6646 10.1279 48.6646C10.5668 48.667 11.0016 48.667 11.4416 48.667H132.162C132.593 48.667 133.031 48.667 133.463 48.6646C133.828 48.6646 134.203 48.66 134.569 48.6518C135.373 48.6417 136.175 48.5708 136.969 48.4396C137.765 48.302 138.537 48.0469 139.259 47.6827C139.977 47.318 140.632 46.8404 141.199 46.2682C141.771 45.7009 142.249 45.0472 142.617 44.3311C142.98 43.6115 143.23 42.841 143.36 42.0459C143.494 41.2518 143.568 40.4488 143.583 39.6436C143.588 39.2709 143.588 38.9099 143.588 38.5373C143.597 38.1014 143.597 37.6678 143.597 37.2248V12.1104C143.597 11.6709 143.597 11.235 143.588 10.8002C143.588 10.4323 143.588 10.0631 143.583 9.69515C143.568 8.88993 143.494 8.08691 143.36 7.29275C143.23 6.49816 142.979 5.72803 142.617 5.00877C141.876 3.56526 140.702 2.39026 139.259 1.64901C138.537 1.28571 137.765 1.03211 136.969 0.89661C136.175 0.764349 135.373 0.693435 134.569 0.684498C134.203 0.678642 133.828 0.67161 133.463 0.66927C133.031 0.66687 132.593 0.66687 132.162 0.66687V0.667026Z" fill="#A6A6A6"/>
<path id="Vector_2" d="M10.134 47.617C9.76842 47.617 9.41164 47.6124 9.04889 47.6042C8.29743 47.5944 7.54772 47.529 6.80592 47.4085C6.11423 47.2894 5.44416 47.0678 4.81783 46.751C4.19724 46.4369 3.63121 46.025 3.14143 45.5311C2.64456 45.043 2.23089 44.4769 1.91682 43.8553C1.59929 43.2296 1.37954 42.5589 1.26522 41.8666C1.14177 41.1228 1.07498 40.3706 1.06542 39.6166C1.05781 39.3636 1.04785 38.5209 1.04785 38.5209V10.8002C1.04785 10.8002 1.05846 9.97056 1.06548 9.7268C1.07463 8.97402 1.14103 8.22302 1.26412 7.48032C1.37864 6.78614 1.59856 6.11354 1.91627 5.4858C2.22919 4.86457 2.64056 4.29807 3.13444 3.80826C3.62776 3.31379 4.1956 2.89977 4.81724 2.58129C5.44214 2.26555 6.11093 2.04552 6.80123 1.92857C7.54546 1.80684 8.29777 1.74104 9.05184 1.73169L10.1346 1.71704H133.457L134.553 1.73228C135.3 1.74116 136.045 1.80638 136.783 1.92739C137.48 2.04581 138.156 2.26738 138.788 2.58481C140.033 3.22662 141.046 4.24204 141.686 5.48873C141.998 6.11213 142.215 6.77925 142.328 7.46743C142.453 8.21623 142.522 8.97313 142.537 9.73208C142.54 10.0719 142.54 10.437 142.54 10.8002C142.55 11.2502 142.55 11.6786 142.55 12.1104V37.2248C142.55 37.6608 142.55 38.0862 142.54 38.515C142.54 38.9053 142.54 39.2628 142.535 39.6307C142.521 40.3761 142.453 41.1195 142.33 41.8549C142.218 42.5522 142 43.2281 141.682 43.8589C141.366 44.4738 140.955 45.035 140.464 45.5217C139.973 46.0183 139.406 46.4326 138.784 46.7487C138.154 47.0679 137.479 47.2903 136.783 47.4085C136.041 47.5296 135.291 47.5951 134.54 47.6042C134.188 47.6124 133.82 47.617 133.463 47.617L132.162 47.6194L10.134 47.617Z" fill="black"/>
</g>
<g id="&#60;Group&#62;">
<g id="&#60;Group&#62;_2">
<g id="&#60;Group&#62;_3">
<path id="&#60;Path&#62;" d="M29.7226 25.0279C29.7355 24.0263 30.0015 23.0443 30.496 22.1731C30.9904 21.302 31.6972 20.57 32.5505 20.0454C32.0084 19.2712 31.2932 18.6341 30.4619 18.1846C29.6305 17.7352 28.7057 17.4858 27.7611 17.4562C25.746 17.2447 23.7924 18.662 22.7656 18.662C21.7189 18.662 20.1379 17.4772 18.4354 17.5122C17.3342 17.5478 16.261 17.868 15.3203 18.4417C14.3797 19.0154 13.6037 19.8229 13.0679 20.7857C10.7471 24.8038 12.4782 30.709 14.7013 33.957C15.8136 35.5474 17.1135 37.3239 18.8145 37.2609C20.479 37.1919 21.1006 36.1996 23.1098 36.1996C25.1003 36.1996 25.6835 37.2609 27.419 37.2209C29.205 37.1919 30.3303 35.6234 31.4036 34.0179C32.2028 32.8847 32.8177 31.6322 33.2257 30.3069C32.188 29.868 31.3025 29.1334 30.6796 28.1947C30.0566 27.2559 29.7238 26.1545 29.7226 25.0279Z" fill="white"/>
<path id="&#60;Path&#62;_2" d="M26.4447 15.3201C27.4185 14.151 27.8983 12.6484 27.7821 11.1313C26.2943 11.2876 24.92 11.9987 23.933 13.1229C23.4505 13.6721 23.0809 14.311 22.8454 15.0031C22.6099 15.6952 22.5131 16.427 22.5606 17.1565C23.3047 17.1642 24.0409 17.0029 24.7137 16.6848C25.3865 16.3667 25.9784 15.9001 26.4447 15.3201Z" fill="white"/>
</g>
</g>
<g id="Group_4">
<path id="Vector_3" d="M50.7625 33.2346H45.0824L43.7184 37.2623H41.3125L46.6926 22.3607H49.1922L54.5723 37.2623H52.1254L50.7625 33.2346ZM45.6707 31.376H50.1731L47.9536 24.8393H47.8915L45.6707 31.376Z" fill="white"/>
<path id="Vector_4" d="M66.1911 31.8307C66.1911 35.2069 64.384 37.376 61.6571 37.376C60.9663 37.4122 60.2793 37.253 59.6747 36.9169C59.0702 36.5807 58.5725 36.0811 58.2387 35.4752H58.1871V40.8565H55.957V26.3979H58.1157V28.2049H58.1567C58.5058 27.602 59.0119 27.105 59.6211 26.7667C60.2302 26.4285 60.9197 26.2618 61.6161 26.2842C64.3734 26.2842 66.1911 28.4639 66.1911 31.8307ZM63.8989 31.8307C63.8989 29.6311 62.7621 28.185 61.0278 28.185C59.3239 28.185 58.1778 29.6616 58.1778 31.8307C58.1778 34.0198 59.3239 35.4858 61.0278 35.4858C62.7621 35.4858 63.8989 34.0503 63.8989 31.8307Z" fill="white"/>
<path id="Vector_5" d="M78.1491 31.8307C78.1491 35.2069 76.342 37.376 73.6151 37.376C72.9243 37.4122 72.2373 37.253 71.6327 36.9169C71.0282 36.5807 70.5305 36.0811 70.1967 35.4752H70.1451V40.8565H67.915V26.3979H70.0736V28.2049H70.1146C70.4638 27.602 70.9699 27.1049 71.579 26.7667C72.1882 26.4285 72.8776 26.2618 73.574 26.2842C76.3315 26.2842 78.1491 28.4639 78.1491 31.8307ZM75.8569 31.8307C75.8569 29.6311 74.7201 28.185 72.9858 28.185C71.2819 28.185 70.1358 29.6616 70.1358 31.8307C70.1358 34.0198 71.2819 35.4858 72.9858 35.4858C74.7202 35.4858 75.8569 34.0502 75.8569 31.8307H75.8569Z" fill="white"/>
<path id="Vector_6" d="M86.0524 33.1104C86.2176 34.5882 87.6532 35.5584 89.6149 35.5584C91.4946 35.5584 92.8469 34.5881 92.8469 33.2557C92.8469 32.099 92.0313 31.4065 90.1 30.9318L88.1688 30.4666C85.4325 29.8057 84.1621 28.526 84.1621 26.4494C84.1621 23.8783 86.4028 22.1123 89.5844 22.1123C92.7332 22.1123 94.8918 23.8783 94.9645 26.4494H92.7133C92.5785 24.9623 91.3492 24.0647 89.5527 24.0647C87.7563 24.0647 86.527 24.9729 86.527 26.2947C86.527 27.3483 87.3121 27.9682 89.2328 28.4427L90.8746 28.8459C93.932 29.5689 95.2024 30.7971 95.2024 32.9767C95.2024 35.7646 92.9816 37.5107 89.4496 37.5107C86.1449 37.5107 83.9137 35.8056 83.7695 33.1103L86.0524 33.1104Z" fill="white"/>
<path id="Vector_7" d="M100.016 23.8268V26.3979H102.082V28.1639H100.016V34.1533C100.016 35.0838 100.429 35.5174 101.337 35.5174C101.583 35.5131 101.828 35.4959 102.071 35.4658V37.2213C101.663 37.2976 101.248 37.3321 100.832 37.3244C98.6328 37.3244 97.775 36.4982 97.775 34.3912V28.1639H96.1953V26.3979H97.775V23.8268H100.016Z" fill="white"/>
<path id="Vector_8" d="M103.277 31.8307C103.277 28.4123 105.291 26.2643 108.43 26.2643C111.58 26.2643 113.584 28.4123 113.584 31.8307C113.584 35.2584 111.591 37.3971 108.43 37.3971C105.271 37.3971 103.277 35.2584 103.277 31.8307ZM111.312 31.8307C111.312 29.4858 110.237 28.1018 108.43 28.1018C106.623 28.1018 105.55 29.4963 105.55 31.8307C105.55 34.185 106.623 35.5584 108.43 35.5584C110.237 35.5584 111.312 34.185 111.312 31.8307H111.312Z" fill="white"/>
<path id="Vector_9" d="M115.423 26.3979H117.55V28.2471H117.601C117.745 27.6696 118.084 27.1592 118.56 26.8017C119.035 26.4443 119.62 26.2615 120.215 26.2842C120.472 26.2833 120.728 26.3113 120.979 26.3674V28.4534C120.654 28.3542 120.316 28.3087 119.977 28.3186C119.653 28.3055 119.33 28.3626 119.03 28.4861C118.73 28.6095 118.461 28.7964 118.24 29.0339C118.019 29.2713 117.852 29.5538 117.751 29.8618C117.65 30.1698 117.616 30.4961 117.653 30.8182V37.2624H115.423L115.423 26.3979Z" fill="white"/>
<path id="Vector_10" d="M131.261 34.0713C130.961 36.0436 129.041 37.3971 126.583 37.3971C123.423 37.3971 121.461 35.2795 121.461 31.8822C121.461 28.4744 123.433 26.2643 126.489 26.2643C129.495 26.2643 131.386 28.3291 131.386 31.6233V32.3873H123.712V32.5221C123.677 32.9219 123.727 33.3247 123.859 33.7037C123.991 34.0827 124.203 34.4293 124.479 34.7203C124.755 35.0114 125.091 35.2403 125.462 35.3919C125.834 35.5434 126.234 35.6142 126.635 35.5994C127.162 35.6488 127.691 35.5268 128.143 35.2514C128.595 34.9761 128.946 34.5622 129.144 34.0713L131.261 34.0713ZM123.723 30.8287H129.154C129.174 30.4692 129.12 30.1094 128.994 29.772C128.869 29.4345 128.675 29.1267 128.424 28.8678C128.174 28.6089 127.873 28.4045 127.54 28.2674C127.207 28.1303 126.849 28.0636 126.489 28.0713C126.126 28.0691 125.766 28.1389 125.43 28.2766C125.094 28.4143 124.789 28.6172 124.532 28.8735C124.274 29.1299 124.07 29.4347 123.932 29.7702C123.793 30.1058 123.722 30.4656 123.723 30.8287V30.8287Z" fill="white"/>
</g>
</g>
</g>
<g id="&#60;Group&#62;_4">
<g id="Group_5">
<path id="Vector_11" d="M45.391 11.1442C45.8585 11.1107 46.3277 11.1813 46.7646 11.351C47.2016 11.5208 47.5954 11.7853 47.9177 12.1257C48.24 12.466 48.4827 12.8737 48.6284 13.3192C48.7741 13.7647 48.8191 14.237 48.7602 14.702C48.7602 16.9895 47.5238 18.3044 45.391 18.3044H42.8047V11.1442H45.391ZM43.9168 17.2918H45.2668C45.6009 17.3118 45.9352 17.257 46.2455 17.1315C46.5557 17.006 46.8341 16.8128 47.0602 16.5661C47.2864 16.3195 47.4548 16.0254 47.553 15.7055C47.6512 15.3856 47.6769 15.0477 47.6281 14.7166C47.6734 14.3868 47.6451 14.0511 47.5454 13.7335C47.4456 13.4159 47.2769 13.1243 47.0512 12.8796C46.8255 12.6349 46.5485 12.4431 46.24 12.318C45.9315 12.1929 45.5992 12.1376 45.2668 12.1561H43.9168V17.2918Z" fill="white"/>
<path id="Vector_12" d="M50.016 15.6002C49.982 15.2451 50.0226 14.8868 50.1352 14.5483C50.2478 14.2098 50.4299 13.8986 50.6699 13.6346C50.9098 13.3706 51.2023 13.1597 51.5285 13.0154C51.8547 12.8711 52.2075 12.7965 52.5642 12.7965C52.9209 12.7965 53.2737 12.8711 53.5999 13.0154C53.9262 13.1597 54.2186 13.3706 54.4585 13.6346C54.6985 13.8986 54.8806 14.2098 54.9932 14.5483C55.1058 14.8868 55.1464 15.2451 55.1124 15.6002C55.1471 15.9556 55.1069 16.3144 54.9946 16.6534C54.8823 16.9925 54.7003 17.3042 54.4603 17.5687C54.2203 17.8332 53.9276 18.0446 53.6011 18.1892C53.2745 18.3339 52.9214 18.4086 52.5642 18.4086C52.2071 18.4086 51.8539 18.3339 51.5273 18.1892C51.2008 18.0446 50.9081 17.8332 50.6681 17.5687C50.4281 17.3042 50.2461 16.9925 50.1338 16.6534C50.0215 16.3144 49.9813 15.9556 50.016 15.6002ZM54.0156 15.6002C54.0156 14.4289 53.4894 13.7439 52.566 13.7439C51.639 13.7439 51.1176 14.4289 51.1176 15.6002C51.1176 16.7808 51.639 17.4605 52.566 17.4605C53.4894 17.4605 54.0156 16.7761 54.0156 15.6002H54.0156Z" fill="white"/>
<path id="Vector_13" d="M61.8875 18.3043H60.7812L59.6645 14.3246H59.5801L58.468 18.3043H57.3723L55.8828 12.9008H56.9645L57.9324 17.024H58.0121L59.1231 12.9008H60.1461L61.257 17.024H61.3414L62.3047 12.9008H63.3711L61.8875 18.3043Z" fill="white"/>
<path id="Vector_14" d="M64.624 12.9008H65.6506V13.7592H65.7303C65.8655 13.4509 66.0935 13.1924 66.3825 13.0198C66.6716 12.8473 67.0072 12.7692 67.3428 12.7965C67.6057 12.7767 67.8697 12.8163 68.1152 12.9124C68.3607 13.0086 68.5815 13.1587 68.7611 13.3517C68.9407 13.5447 69.0746 13.7757 69.1528 14.0274C69.2311 14.2792 69.2517 14.5454 69.2131 14.8062V18.3042H68.1467V15.074C68.1467 14.2057 67.7693 13.7738 66.9807 13.7738C66.8022 13.7655 66.624 13.7959 66.4583 13.8629C66.2926 13.9299 66.1434 14.0319 66.0209 14.162C65.8983 14.292 65.8053 14.447 65.7483 14.6164C65.6913 14.7858 65.6715 14.9654 65.6904 15.1431V18.3043H64.624L64.624 12.9008Z" fill="white"/>
<path id="Vector_15" d="M70.9121 10.7914H71.9785V18.3043H70.9121V10.7914Z" fill="white"/>
<path id="Vector_16" d="M73.4612 15.6001C73.4273 15.245 73.4679 14.8867 73.5806 14.5482C73.6932 14.2097 73.8754 13.8985 74.1153 13.6345C74.3553 13.3705 74.6477 13.1596 74.974 13.0153C75.3002 12.8709 75.653 12.7964 76.0098 12.7964C76.3665 12.7964 76.7193 12.8709 77.0456 13.0153C77.3718 13.1596 77.6643 13.3705 77.9042 13.6345C78.1442 13.8985 78.3263 14.2097 78.439 14.5482C78.5516 14.8867 78.5923 15.245 78.5583 15.6001C78.5929 15.9556 78.5527 16.3144 78.4404 16.6534C78.328 16.9925 78.146 17.3042 77.906 17.5687C77.666 17.8332 77.3733 18.0446 77.0467 18.1892C76.7201 18.3338 76.3669 18.4086 76.0098 18.4086C75.6526 18.4086 75.2994 18.3338 74.9729 18.1892C74.6463 18.0446 74.3536 17.8332 74.1136 17.5687C73.8736 17.3042 73.6915 16.9925 73.5792 16.6534C73.4668 16.3144 73.4267 15.9556 73.4612 15.6001ZM77.4608 15.6001C77.4608 14.4289 76.9347 13.7439 76.0112 13.7439C75.0843 13.7439 74.5628 14.4289 74.5628 15.6002C74.5628 16.7808 75.0843 17.4605 76.0112 17.4605C76.9347 17.4605 77.4609 16.7761 77.4609 15.6001H77.4608Z" fill="white"/>
<path id="Vector_17" d="M79.6807 16.7762C79.6807 15.8035 80.4049 15.2428 81.6904 15.1631L83.1541 15.0787V14.6123C83.1541 14.0416 82.7768 13.7194 82.0479 13.7194C81.4525 13.7194 81.0401 13.9379 80.9217 14.3199H79.8893C79.9982 13.3918 80.8713 12.7965 82.0971 12.7965C83.4518 12.7965 84.2158 13.4709 84.2158 14.6123V18.3043H83.1893V17.5449H83.1049C82.9336 17.8173 82.6931 18.0394 82.408 18.1884C82.1228 18.3375 81.8033 18.4082 81.4818 18.3933C81.255 18.4169 81.0257 18.3927 80.8088 18.3223C80.5919 18.2519 80.3922 18.1368 80.2225 17.9844C80.0528 17.832 79.9169 17.6458 79.8236 17.4377C79.7302 17.2296 79.6816 17.0043 79.6807 16.7762ZM83.1541 16.3145V15.8627L81.8346 15.9471C81.0904 15.9969 80.7529 16.25 80.7529 16.7264C80.7529 17.2127 81.1748 17.4957 81.7549 17.4957C81.9249 17.5129 82.0966 17.4958 82.2598 17.4452C82.423 17.3947 82.5744 17.3119 82.7049 17.2017C82.8355 17.0915 82.9425 16.9562 83.0197 16.8037C83.0968 16.6513 83.1426 16.4849 83.1541 16.3145Z" fill="white"/>
<path id="Vector_18" d="M85.6172 15.6002C85.6172 13.8928 86.4949 12.8111 87.8602 12.8111C88.1979 12.7956 88.533 12.8764 88.8264 13.0443C89.1199 13.2122 89.3595 13.4601 89.5172 13.7591H89.5969V10.7914H90.6633V18.3043H89.6414V17.4506H89.557C89.3871 17.7475 89.1392 17.9924 88.8401 18.1586C88.541 18.3247 88.2021 18.4059 87.8602 18.3933C86.4856 18.3934 85.6172 17.3117 85.6172 15.6002ZM86.7188 15.6002C86.7188 16.7463 87.259 17.4359 88.1625 17.4359C89.0613 17.4359 89.6168 16.7363 89.6168 15.6049C89.6168 14.4787 89.0555 13.7691 88.1625 13.7691C87.2649 13.7691 86.7188 14.4635 86.7188 15.6002H86.7188Z" fill="white"/>
<path id="Vector_19" d="M95.0755 15.6002C95.0416 15.2451 95.0822 14.8868 95.1948 14.5483C95.3074 14.2098 95.4895 13.8986 95.7294 13.6346C95.9694 13.3706 96.2618 13.1597 96.588 13.0154C96.9143 12.8711 97.2671 12.7965 97.6238 12.7965C97.9805 12.7965 98.3333 12.8711 98.6595 13.0154C98.9857 13.1597 99.2782 13.3706 99.5181 13.6346C99.758 13.8986 99.9401 14.2098 100.053 14.5483C100.165 14.8868 100.206 15.2451 100.172 15.6002C100.207 15.9556 100.166 16.3144 100.054 16.6534C99.9419 16.9925 99.7599 17.3042 99.5199 17.5687C99.2799 17.8332 98.9872 18.0446 98.6607 18.1892C98.3341 18.3339 97.9809 18.4086 97.6238 18.4086C97.2666 18.4086 96.9134 18.3339 96.5869 18.1892C96.2603 18.0446 95.9677 17.8332 95.7277 17.5687C95.4877 17.3042 95.3057 16.9925 95.1934 16.6534C95.081 16.3144 95.0409 15.9556 95.0755 15.6002ZM99.0751 15.6002C99.0751 14.4289 98.549 13.7439 97.6255 13.7439C96.6986 13.7439 96.1771 14.4289 96.1771 15.6002C96.1771 16.7808 96.6986 17.4605 97.6255 17.4605C98.549 17.4605 99.0751 16.7761 99.0751 15.6002Z" fill="white"/>
<path id="Vector_20" d="M101.603 12.9008H102.629V13.7592H102.709C102.844 13.4509 103.072 13.1924 103.361 13.0198C103.65 12.8473 103.986 12.7692 104.321 12.7965C104.584 12.7767 104.848 12.8163 105.094 12.9124C105.339 13.0086 105.56 13.1587 105.74 13.3517C105.919 13.5447 106.053 13.7757 106.131 14.0274C106.21 14.2792 106.23 14.5454 106.192 14.8062V18.3042H105.125V15.074C105.125 14.2057 104.748 13.7738 103.959 13.7738C103.781 13.7655 103.602 13.7959 103.437 13.8629C103.271 13.9299 103.122 14.0319 102.999 14.162C102.877 14.292 102.784 14.447 102.727 14.6164C102.67 14.7858 102.65 14.9654 102.669 15.1431V18.3043H101.603V12.9008Z" fill="white"/>
<path id="Vector_21" d="M112.217 11.5554V12.9253H113.388V13.8236H112.217V16.6021C112.217 17.1681 112.451 17.416 112.981 17.416C113.117 17.4155 113.253 17.4073 113.388 17.3914V18.2796C113.197 18.3139 113.003 18.3321 112.808 18.3341C111.622 18.3341 111.15 17.9169 111.15 16.8751V13.8235H110.292V12.9253H111.15V11.5554H112.217Z" fill="white"/>
<path id="Vector_22" d="M114.845 10.7914H115.902V13.7691H115.986C116.128 13.4579 116.362 13.198 116.657 13.0248C116.952 12.8516 117.293 12.7735 117.634 12.8012C117.895 12.7869 118.157 12.8306 118.399 12.929C118.642 13.0275 118.86 13.1783 119.038 13.3707C119.216 13.5631 119.349 13.7924 119.428 14.0421C119.507 14.2919 119.53 14.556 119.495 14.8156V18.3043H118.427V15.0787C118.427 14.2156 118.025 13.7785 117.272 13.7785C117.088 13.7634 116.904 13.7886 116.732 13.8523C116.559 13.916 116.402 14.0166 116.273 14.1471C116.143 14.2775 116.044 14.4348 115.981 14.6077C115.919 14.7807 115.895 14.9652 115.911 15.1484V18.3043H114.845L114.845 10.7914Z" fill="white"/>
<path id="Vector_23" d="M125.713 16.8453C125.568 17.3391 125.254 17.7663 124.826 18.0521C124.398 18.3379 123.883 18.4641 123.372 18.4086C123.016 18.418 122.662 18.3498 122.335 18.2088C122.008 18.0677 121.716 17.8572 121.478 17.5919C121.241 17.3265 121.064 17.0126 120.96 16.672C120.856 16.3314 120.827 15.9723 120.876 15.6195C120.828 15.2657 120.857 14.9057 120.961 14.5641C121.065 14.2225 121.241 13.9072 121.477 13.6395C121.713 13.3718 122.004 13.158 122.33 13.0126C122.656 12.8671 123.01 12.7934 123.367 12.7965C124.87 12.7965 125.778 13.8237 125.778 15.5205V15.8926H121.962V15.9523C121.945 16.1506 121.97 16.3502 122.035 16.5383C122.1 16.7264 122.204 16.8989 122.339 17.0446C122.475 17.1904 122.639 17.3062 122.822 17.3847C123.005 17.4632 123.202 17.5026 123.401 17.5003C123.656 17.531 123.914 17.485 124.143 17.3684C124.372 17.2517 124.561 17.0696 124.687 16.8453L125.713 16.8453ZM121.962 15.1039H124.691C124.705 14.9225 124.68 14.7404 124.619 14.5691C124.558 14.3979 124.461 14.2413 124.336 14.1095C124.211 13.9776 124.059 13.8735 123.891 13.8037C123.724 13.7338 123.543 13.6999 123.361 13.7041C123.177 13.7018 122.994 13.7364 122.823 13.8059C122.652 13.8755 122.497 13.9785 122.366 14.109C122.236 14.2394 122.133 14.3947 122.064 14.5655C121.994 14.7364 121.96 14.9195 121.962 15.1039H121.962Z" fill="white"/>
</g>
</g>
</g>
</svg>
