<svg width="698" height="621" viewBox="0 0 698 621" fill="none" xmlns="http://www.w3.org/2000/svg">
<path d="M593.344 72.3148L442.38 50.8917V41.834H593.344V72.3148Z" stroke="url(#paint0_angular_140_836)" stroke-miterlimit="10"/>
<path d="M593.271 41.9297L573.501 69.1187L553.73 41.9297L537.558 64.2766L520.783 41.9297L508.8 60.0557L495.322 41.9297L484.539 56.7639L474.355 41.9297L465.367 53.8757L456.982 41.9297L449.492 51.7148L442.902 41.9297" stroke="url(#paint1_linear_140_836)" stroke-miterlimit="10"/>
<path d="M620.944 26.3254H596.684V316.735H620.944V26.3254Z" stroke="url(#paint2_angular_140_836)" stroke-miterlimit="10"/>
<path d="M596.761 26.3254L620.875 62.5722L596.761 95.5271L620.647 126.422L596.761 158.963L620.647 191.509L596.761 224.459L620.647 259.474L596.761 291.191" stroke="url(#paint3_linear_140_836)" stroke-miterlimit="10"/>
<path d="M596.985 1.40356V20.3525H620.648V15.4095L596.985 1.40356Z" stroke="url(#paint4_angular_140_836)" stroke-miterlimit="10"/>
<path d="M624.67 41.4199V72.7237H670.798V64.8977L624.67 41.4199Z" stroke="url(#paint5_angular_140_836)" stroke-miterlimit="10"/>
<path d="M438.531 104.447C436.543 114.317 428.907 109.698 429.061 104.027C429.216 98.357 433.895 96.674 433.895 96.674V90.1382" stroke="url(#paint6_angular_140_836)" stroke-miterlimit="10"/>
<path d="M433.794 54.8471C436.677 54.8471 439.014 51.6333 439.014 47.6689C439.014 43.7045 436.677 40.4907 433.794 40.4907C430.912 40.4907 428.575 43.7045 428.575 47.6689C428.575 51.6333 430.912 54.8471 433.794 54.8471Z" stroke="url(#paint7_angular_140_836)" stroke-miterlimit="10"/>
<path d="M433.795 54.8469V81.3988" stroke="url(#paint8_angular_140_836)" stroke-linecap="round" stroke-linejoin="round"/>
<path d="M427.509 90.1382H440.195V81.399H427.509V90.1382Z" stroke="url(#paint9_angular_140_836)" stroke-miterlimit="10"/>
<path d="M624.288 139.191H648.853V213.341H672.515" stroke="url(#paint10_angular_140_836)" stroke-linecap="round" stroke-linejoin="round"/>
<g clip-path="url(#clip0_140_836)">
<path d="M395.034 682.863L360.788 685.529V368.506L382.553 373.153M413.781 351.329L461.152 322.987L539.917 345.154M461.152 627.613V613.861M461.152 611.302V322.973M454.161 668.763V687.354L458.686 688.21M454.161 643.866V633.332M454.161 608.93V597.956M454.161 573.626V563.035M454.161 538.211V528.079M454.161 502.766V493.143M454.161 467.34V458.206M454.161 431.91V423.27M454.161 396.48V388.334M583.15 597.54V497.36M583.15 445.648V394.278M395.043 685.553L418.228 690.49V671.233M418.228 645.441V634.526M418.228 609.238V597.853M418.228 572.643V561.65M418.228 535.936V525.452M418.228 499.224V489.253M418.228 462.517V453.055M418.228 425.805V416.852M418.228 389.097V380.653M418.228 690.485L454.171 687.354M539.937 383.975L583.15 394.273M360.788 368.491L348.244 376.5V682.608L360.788 685.544M631.94 444.4L626.113 445.839V491.249M707.78 379.269L692.159 374.596V428.168L707.78 431.734M655.883 386.421L692.159 374.616M655.883 386.421V425.878M655.883 386.421V335.624M655.883 386.421L649.934 384.812V427.478M600.6 441.049V490.628M600.6 490.628L617.317 492.8M600.6 490.628L571.335 495.965V448.774M668.02 422.659V477.942L631.94 484.547M655.883 487.971L649.934 487.125V535.804M635.986 539.59L617.298 541.381M593.213 498.568L617.298 494.439M593.233 543.685V498.568M707.78 484.195L692.159 481.748V535.305L707.78 536.66M692.159 481.739L655.883 487.947V535.187M672.12 533.573V588.558M672.12 588.558L707.78 589.12M672.12 588.558L635.986 589.213M596.202 597.472V590.593M596.202 442.189V407.253M596.202 298.281V241.946M729.428 596.973V162.21M729.428 162.21L596.246 241.956M729.428 162.21L747.573 173.292M608.829 239.906V295.282M763.757 183.169L794.984 202.22V597.32M682.829 263.374L707.78 251.109M763.766 597.154V183.169M752.363 189.392L747.598 186.574M752.363 189.392V597.095M752.363 189.392L763.791 183.169M707.804 181.525L608.805 239.896L653.779 259.221M669.62 257.518L707.78 238.051M671.411 589.712L658.823 589.536M638.584 590.251L626.113 590.089M626.113 542.002L635.986 541.083M658.803 589.517L626.094 590.07V541.997M617.288 541.371V589.972L587.778 590.461V544.204M604.901 293.878V343.202L609.436 344.587M593.184 360.575L575.572 355.629M575.572 355.629L604.925 343.202M575.572 355.629V308.662M707.736 326.764L692.115 320.986V374.596M655.839 335.624L692.115 321.03M593.233 360.575L609.485 354.034M617.312 398.73L593.228 406.558V360.57M626.113 445.858L617.307 444.2M617.307 395.599L649.924 384.812M631.94 440.486L617.317 444.18M662.815 254.529V310.174L626.789 325.893M602.132 408.574L617.298 403.755M602.132 441.299V408.593M626.784 301.256L626.104 301.578V337.63M655.873 335.624L641.999 330.981V382.649M617.307 395.58L609.48 393.623L642.003 382.63M685.525 697.001L676.019 695.676M707.266 596.85V729.79M464.611 696.302L463.407 696.419M582.166 682.574L590.234 683.699V697.133M707.276 729.79L685.535 725.842V697.016M539.335 686.615L526.449 684.58L517.77 685.367L516.219 685.113L482.619 688.156L531.189 696.889M488.49 598.059V611.004M488.49 614.629V626.86M531.204 707.583L474.713 696.292M474.713 696.292L467.864 696.962M474.713 696.292V693.288L531.204 704.227M464.626 696.292L467.874 696.952M620.536 730.661L458.412 696.904M626.524 729.731L627.542 729.57L626.524 729.364M622.165 730.411L620.536 730.67M619.714 725.279L546.297 710.602L539.002 711.488L531.204 709.898M458.398 696.908V699.932L620.517 734.755M531.184 702.955L478.671 692.916L474.694 693.293M531.184 699.306L482.614 690.353M482.614 690.353L478.671 690.715M482.614 690.353V688.161M531.184 700.509L478.671 690.724V692.926M707.271 729.804L722.676 727.123M632.17 734.609L685.549 725.856M632.17 734.614L627.542 733.635L620.517 734.755M620.517 734.755V730.67M619.695 721.365L546.277 707.153L550.509 706.664L619.695 719.873M627.522 729.584V733.635M619.695 717.035L550.509 704.12V706.649M619.695 712.813L554.706 701.121" stroke="url(#paint11_angular_140_836)" stroke-miterlimit="10"/>
<path d="M808.433 597.394V618.92M516.215 685.118V673.376M550.51 704.139L554.707 703.65V701.136L590.23 697.148M546.278 710.617V707.163M531.185 687.403L538.983 688.665M538.983 688.665L590.23 683.714M538.983 688.665V711.502M619.705 715.636L554.717 703.65M619.715 695.045L594.765 697.882L590.239 697.148M673.241 695.681L671.994 695.837M669.19 696.18L667.909 696.336M665.096 696.679L663.78 696.84M660.957 697.187L659.606 697.354M652.547 698.215L651.128 698.391M648.271 698.738L646.803 698.919M643.942 699.267L642.474 699.448M639.597 699.8L638.071 699.991M635.184 700.343L633.619 700.534M630.723 700.891L629.118 701.087M626.525 702.838L632.171 703.753L685.55 697.016M632.171 734.594V703.773M467.875 696.982V677.144M516.235 673.376L510.046 672.51M463.423 676.424L467.875 677.148M510.046 672.515L508.534 672.633M506.577 672.784L504.841 672.917M502.884 673.068L501.122 673.2M499.166 673.352L497.375 673.489M483.921 674.516L482.033 674.663M480.037 674.815L478.119 674.962M476.118 675.113L474.161 675.26M468.173 675.72L466.177 675.872M464.162 676.028L463.447 676.082M467.899 677.148L516.259 673.381M517.81 637.246V685.392M580.377 682.77V641.62M526.489 637.853V684.604M594.799 697.892V642.633L619.749 644.375M656.016 697.819V691.982M741.845 637.706L722.721 638.685V727.114M732.657 639.208V728.846L741.845 727.202M741.845 638.714L732.657 639.203L722.721 638.68M722.677 727.114L732.613 728.846M495.34 615.647V626.674M495.34 670.705V673.641M491.113 673.963V670.945M491.113 626.806V615.554L495.34 615.681M470.389 598.034L487.488 597.937H488.437M488.437 626.889V614.659M487.488 674.252V671.268M487.488 626.914V614.634M470.385 675.529V672.74M470.385 627.442V614.125M470.385 611.19V597.981M487.483 611.537V597.902M490.599 610.98L673.628 614.761V617.985M636.838 615.422V618.807L673.628 617.981M457.841 611.337L636.838 615.432M457.841 613.768V611.322M673.628 614.766L636.838 615.427M488.432 611.542H487.483L471.079 611.18M750.132 730.636L746.683 731.282M750.132 620.642L746.683 620.74M746.683 731.307V620.764M741.791 620.637L745.245 620.539M746.674 620.764L741.781 620.637M746.674 731.307L741.781 730.455M758.249 729.149L754.878 729.775M758.293 620.427L754.922 620.525V729.765M750.03 620.657V620.397L753.4 620.299M754.907 620.525L750.015 620.397M754.907 729.765L750.142 728.958M766.228 727.662L762.931 728.273V620.275M766.228 620.202L762.931 620.295M758.038 620.402V620.153L761.336 620.06M762.911 620.275L758.019 620.153M762.911 728.273L758.258 727.5M773.972 726.219L770.753 726.815V620.07L773.972 619.981M765.861 620.192V619.952L769.085 619.859M770.729 620.07L765.837 619.952M770.729 726.815L766.184 726.077M781.541 724.805L778.39 725.392M781.575 619.786L778.424 619.879M778.424 725.416V619.854L773.566 619.737M773.566 619.967V619.737M773.566 619.737L776.717 619.644M778.424 725.411L773.982 724.702M788.996 723.445L785.919 724.017V619.639L781.066 619.522M788.996 619.571L785.919 619.659M781.066 619.752V619.522M781.066 619.522L784.148 619.438M785.919 723.993L781.575 723.312M796.252 722.07L793.238 722.628M796.256 619.345L793.243 619.434V722.632M788.399 619.536V619.297M788.399 619.297L791.413 619.213M788.399 619.297L793.243 619.414M793.243 722.613L788.996 721.967M803.355 720.734L800.42 721.282V619.228M803.355 619.125L800.42 619.208M795.586 619.331V619.116L798.522 619.032M800.405 619.228L795.572 619.116M800.405 721.302L796.252 720.68M810.297 719.462L807.416 720V619.027L810.297 618.944M802.592 619.125V618.92L805.478 618.837M807.435 619.027L802.611 618.92M807.435 720L803.37 719.399M817.117 718.195L814.299 718.723M814.299 718.723V618.832M814.299 718.723L810.317 718.146M817.117 618.754L814.299 618.832M814.299 618.832L809.485 618.724M809.485 618.93V618.724M809.485 618.724L812.308 618.646M823.775 618.563V716.957L821.011 717.471L817.097 716.923M823.775 618.563L821.011 618.641M823.775 618.563L818.976 618.46L816.212 618.538M821.011 618.641V717.466M821.011 618.641L816.212 618.538M816.212 618.734V618.538M590.489 627.848L677.943 631.836L675.404 631.938M588.023 627.927L590.469 627.848M675.384 631.938L588.004 627.927M677.923 689.438V631.836M675.379 689.746V631.938M587.999 628.024V627.912M673.877 632.017L671.314 632.119L584.061 628.069M584.061 628.069L586.546 627.99M584.061 628.069V628.186M671.314 690.201V632.1M669.797 632.183L667.209 632.286M580.088 628.196L582.598 628.117M667.233 632.286L580.113 628.196M667.233 690.69V632.266M580.113 628.294V628.176M665.727 632.33L663.104 632.432L576.125 628.303L578.66 628.22M663.104 691.145V632.437M576.125 628.426V628.308M661.51 632.506L658.863 632.613L572.031 628.44L574.584 628.357M658.863 691.64V632.604M572.031 628.553V628.431M657.297 632.667L654.621 632.775M654.621 632.775L567.941 628.558M654.621 632.775V692.119M567.941 628.558L570.519 628.479M567.941 628.558V628.68M653.066 632.839L650.36 632.946L563.841 628.69L566.444 628.607M650.36 692.613V632.927M563.841 628.793V628.67M648.741 632.995L646.006 633.108M559.668 628.822L562.295 628.739M559.668 628.822L646.021 633.142M559.668 628.822V628.949M646.021 693.107V633.122M644.401 633.186L641.637 633.298L555.465 628.954M641.623 693.611V633.298M639.993 633.362L637.195 633.475L551.209 629.071M637.195 694.149V633.484" stroke="url(#paint12_angular_140_836)" stroke-miterlimit="10"/>
<path d="M635.546 633.543L632.718 633.655M632.718 633.655L546.948 629.223M632.718 633.655V694.638M631.05 633.724L628.193 633.841M628.193 633.841L542.579 629.36M628.193 633.841V695.157M626.505 633.905L623.619 634.022M623.619 634.022L538.24 629.497M623.619 634.022V731.566M623.619 731.566L626.505 731.106M623.619 731.566L622.151 731.257M538.23 629.683L486.372 626.919V627.031M488.593 671.4V630.847M548.709 631.723V631.664M547.207 631.664L548.709 631.747L549.365 631.723M481.079 627.085L478.633 627.153L538.249 630.412M480.834 671.997V630.412M478.633 627.286V627.124M540.539 632.016V631.219M540.539 632.016L539.008 631.928M540.539 632.016L543.132 631.928M500.139 626.557L497.781 626.62L547.926 629.189M500.036 670.558V631.527M497.795 626.703V626.591M540.035 629.423L490.227 626.796V626.909M492.453 671.101V631.067M519.434 631.199L522.149 631.111M458.711 627.687L519.434 631.224M460.844 696.977V629.149M519.414 631.204V632.731L522.129 632.638M509.811 669.839V632.168M558.078 628.895L507.551 626.366L505.227 626.429L555.666 628.968M507.482 670.035V632.016M505.227 626.527V626.42M484.953 626.968L482.507 627.036L538.235 630.045M484.718 671.698V630.603M482.507 627.134V627.016M544.639 631.855V631.429M544.639 631.855L543.122 631.772M544.639 631.855L547.207 631.767M543.973 629.311L494.004 626.703V626.816M496.235 670.832V631.307M473.241 627.266L470.746 627.334M532.198 630.759L534.839 630.676M470.751 627.315L532.203 630.74M472.928 672.549V629.888M470.746 627.442V627.32M532.198 632.271V630.764M532.198 632.271L530.642 632.178M532.198 632.271L534.839 632.178M469.274 627.378L466.759 627.447M466.759 627.447L527.976 630.921M466.759 627.447V627.574M527.976 630.921L530.642 630.837M527.976 630.921V632.437M468.931 672.843V629.644M527.976 632.437L526.4 632.339M527.976 632.437L530.642 632.344M465.277 627.491L462.738 627.559M523.715 631.062L526.4 630.974M462.738 627.55L523.715 631.053M464.9 673.127V629.384M462.738 627.672V627.545M523.715 631.048V632.569L522.125 632.471M526.4 632.506L523.715 632.599M477.175 627.183L474.699 627.246M536.381 630.671L538.24 630.612M474.699 627.256L536.381 630.681M476.891 672.295V630.162M474.699 627.388V627.266M536.381 632.158V630.661M536.381 632.158L534.839 632.07M536.381 632.158L538.998 632.07M503.852 626.459L501.514 626.522L551.796 629.081M503.759 670.299V631.772M501.514 626.635V626.527M627.875 695.128V703.043M627.875 703.043L626.505 702.818M627.875 703.043L629.098 702.887M632.391 694.604V702.466M632.391 702.466L630.703 702.192M632.391 702.466L633.599 702.314M636.852 694.071V701.898M636.852 701.898L635.165 701.629M636.852 701.898L638.051 701.747M641.255 693.552V701.346M641.255 701.346L639.563 701.082M641.255 701.346L642.439 701.199M645.624 693.029V700.783M645.624 700.783L643.931 700.524M645.624 700.783L646.793 700.636M649.944 692.53V700.245M649.944 700.245L648.246 699.986M649.944 700.245L651.104 700.103M654.22 692.036V699.712M654.22 699.712L652.522 699.457M654.22 699.712L655.365 699.57M658.447 691.546V699.188M658.447 699.188L656.749 698.934M658.447 699.188L659.582 699.046M662.63 691.062V698.665M662.63 698.665L660.932 698.415M662.63 698.665L663.755 698.523M666.773 690.583V698.151M666.773 698.151L665.071 697.901M666.773 698.151L667.884 698.009M670.868 690.113V697.637M670.868 697.637L669.166 697.393M670.868 697.637L671.969 697.5M674.924 689.643V697.133M674.924 697.133L673.216 696.889M674.924 697.133L676.01 696.996M476.989 672.251V675.72M492.487 671.111V674.536M496.289 670.842V674.267M500.056 670.588V673.978M503.793 670.314V673.689M465.042 673.112V676.625M484.816 671.679V675.103M480.927 671.948V675.402M507.521 669.991V673.352M488.676 671.395V674.819M473.075 672.544V676.047M469.088 672.858V676.351M458.579 644.311L454.176 643.895M413.571 646.287L458.579 644.33M382.569 666.263V642.863M382.569 642.863L395.049 642.373M382.569 642.863L413.571 646.248V671.527M458.579 668.454V644.272M454.176 608.92L458.579 608.998L413.571 609.375M382.569 632.153V608.753M382.569 608.753L395.049 608.66M382.569 608.753L413.571 609.394V634.678M458.579 633.2V613.788M458.579 611.341V609.022M458.579 597.927L413.571 597.799L382.569 598.02M395.058 598.054L382.569 598.02M382.569 598.02V574.62M458.569 573.744V597.927L454.166 597.956M413.561 597.799V572.516M458.569 562.653L413.561 560.921V535.637M458.569 562.653V538.475M458.569 562.653L454.166 563.02M395.049 564.321L382.569 563.886M382.569 563.886L413.571 560.921M382.569 563.886V540.486M413.561 524.043L458.569 527.379M395.049 530.584L382.569 529.767M382.569 529.767L413.571 524.057M382.569 529.767V506.357M458.569 527.394V503.201M458.569 527.384L454.166 528.079M413.561 524.047V498.764M413.561 487.169L458.569 492.11M395.049 496.856L382.569 495.623M382.569 495.623L413.571 487.169M382.569 495.623V472.223M458.555 492.096V467.927M458.555 492.11L454.152 493.143M413.546 487.169V461.89M413.546 450.296L458.555 456.837M395.034 463.118L382.569 461.489M382.569 461.489L413.571 450.296M382.569 461.489V438.089M458.569 432.659V456.837L454.166 458.206M413.561 450.296V425.012M395.049 429.391L382.569 427.355M382.569 427.355L413.571 413.417M382.569 427.355V403.96M458.569 421.573V397.385M454.166 423.27L458.569 421.563L413.561 413.417V388.138M413.561 376.544L458.569 386.294M395.034 395.653L382.554 393.207L413.556 376.524M382.569 369.826L413.571 351.26V376.544M458.579 362.111V386.294L454.176 388.334" stroke="url(#paint13_angular_140_836)" stroke-miterlimit="10"/>
<path d="M539.937 597.77V383.975V345.14M395.034 685.548V682.862V668.401M395.034 642.96V642.378V633.151M395.034 608.753V608.646M395.034 573.758V564.321V563.832M395.034 538.563V530.588V529.61M395.034 503.309V496.856V495.388M395.034 468.06V463.118V461.161M395.034 432.786V429.361V426.949M395.034 397.566V395.609V392.781M593.233 498.568L583.15 497.36L571.345 495.946M571.345 448.774L583.15 445.648M692.169 428.167L668.031 422.659M692.169 481.739L668.031 477.937M649.929 487.101L631.936 484.542M655.878 425.878L668.016 422.659M631.941 484.542V444.425M617.318 492.781L626.124 491.249L649.944 487.101M617.327 541.405V494.439V492.781M692.179 535.305L672.121 533.573M658.823 589.541L635.986 589.213M635.986 537.169L649.915 535.779M635.986 539.59V537.144M707.78 589.12V536.66M608.805 590.745L638.584 590.255M747.574 173.292V186.574V597.07M626.114 590.094L617.308 589.981M608.795 590.745L596.213 590.593L587.798 590.495M587.798 544.204L593.223 543.685L617.308 541.381M626.114 301.578L608.805 295.282L604.95 293.878M575.597 308.682L596.203 298.281L604.931 293.878M602.118 408.593L596.203 407.253L593.214 406.573M617.298 398.745V395.594M707.78 274.343L682.83 263.35M692.149 321.03L662.796 310.174M641.984 330.981L626.769 325.893M626.769 273.257L653.78 259.22L662.82 254.524M626.794 325.893V301.255V273.257M649.934 384.802L642.009 382.659M609.485 344.597L626.119 337.64L642.014 330.991M609.485 393.642V354.014V344.587M459.837 696.766L458.687 696.879L458.393 696.908M707.271 596.855L729.404 596.973M539.331 686.62L531.185 687.393M531.185 709.897V707.583M656.764 697.696L655.971 697.794L655.379 697.867M495.344 673.601L493.559 673.738M491.573 673.89L491.118 673.924L489.738 674.032M487.747 674.183H487.507L485.888 674.306M472.097 675.397L470.37 675.529H470.125M580.318 641.586L526.43 637.819L517.751 637.212M488.471 598.064L539.937 597.78M488.432 611.547V611.009V597.907M458.555 613.788H457.841M490.619 611.009H488.49H488.451M458.574 611.332H457.86M750.152 730.646V728.953V620.656M741.835 730.445V727.202M745.289 620.549L750.054 620.676H750.166M758.292 729.139V727.5V620.426M753.4 620.299L758.058 620.422H758.292M766.218 727.661V726.076V620.201M761.326 620.079L765.875 620.192H766.198M773.962 726.208V724.672V619.976M769.099 619.854L773.546 619.962H773.962M781.555 724.785V723.317V619.786M776.697 619.668L781.046 619.776H781.535M788.957 723.439V722.001V619.551M784.109 619.438L788.36 619.536H788.957M796.217 722.06V720.665V619.345M791.374 619.233L795.537 619.331H796.217M803.316 720.739V719.384V619.145M798.487 619.032L802.557 619.125H803.316M810.263 719.418V718.102V618.944M805.444 618.836L808.379 618.905M817.048 718.219V716.947V618.753M812.239 618.646L816.153 618.734H817.058M677.874 689.418L675.981 689.633L675.335 689.712L674.894 689.653L673.833 689.511M586.546 627.97L588.013 628.039L673.877 632.016V689.55V689.922M671.984 690.137L671.313 690.216L670.883 690.162L669.797 690.015M582.597 628.102L584.065 628.171L669.802 632.168M669.802 690.387V690.01V632.163M667.903 690.592L667.214 690.671L666.793 690.612L665.682 690.465M665.682 690.465V690.847M665.682 690.465V632.329L580.068 628.293L578.601 628.22M663.774 691.067L663.06 691.145L662.649 691.091L661.514 690.935M574.584 628.347L576.052 628.42L661.509 632.506V690.944V691.336M659.596 691.556L658.863 691.639L658.461 691.585L657.297 691.424M570.519 628.479L572.03 628.553L657.297 632.667V691.414V691.81M654.621 692.119L654.235 692.065" stroke="url(#paint14_angular_140_836)" stroke-miterlimit="10"/>
<path d="M667.899 690.592V696.341V698.063M665.085 690.94V696.708V697.955M671.984 690.128V695.852V697.539M669.18 690.45V696.194V697.432M676.029 689.663V695.705V697.036M673.236 689.986V695.695V696.928M478.065 672.173V674.942V675.636M476.064 672.138V675.074V675.563M493.534 671.028V673.748V674.438M491.548 670.984V673.919V674.408M497.321 670.783V673.494V674.179M495.364 670.754V673.689V674.179M501.103 670.568V673.269V673.953M499.146 670.529V673.43V673.919M504.85 670.323V673.014V673.601M502.893 670.177V673.068V673.557M466.201 673.097V675.896V676.605M464.186 673.063V676.052V676.542M485.932 671.649V674.394V675.089M483.936 671.61V674.545V675.035M482.047 671.943V674.702V675.397M480.051 671.904V674.839V675.328M508.583 669.986V672.623V673.298M506.626 669.873V672.755V673.244M489.709 671.316V674.051V674.741M487.717 671.272V674.208V674.697M474.112 672.481V675.26V675.964M472.106 672.447V675.416V675.906M470.149 672.784V675.573V676.277M468.139 672.755V675.729V676.219M454.171 668.807L458.574 668.508M382.569 666.263L395.049 668.381L413.571 671.527M418.233 634.502L413.571 634.653L395.049 633.147L382.569 632.134M413.571 572.496L418.233 572.623M382.569 574.58L395.034 573.798L413.556 572.54M413.556 535.667L418.218 535.96M382.554 540.51L395.034 538.553L413.556 535.637M413.556 498.759L418.218 499.219M382.569 506.357L395.049 503.299L413.571 498.764M418.233 462.517L413.571 461.89L395.049 468.064L382.569 472.223M413.571 425.012L418.233 425.804M382.569 438.089L395.049 432.825L413.571 424.997M413.571 388.124L418.233 389.102M382.569 403.96L395.049 397.6L413.571 388.148M413.571 351.27L413.796 351.324L458.569 362.121M382.569 393.226V373.139V369.826M395.049 608.66V598.054V598.015" stroke="url(#paint15_angular_140_836)" stroke-miterlimit="10"/>
<path d="M600.615 441.029L602.151 441.318L617.317 444.18V403.774V398.73M583.15 445.648L596.222 442.194L600.601 441.034M631.94 432.228L649.934 427.453L655.883 425.873M631.94 444.395V440.482V432.233M649.934 535.779L655.883 535.187L672.12 533.573M635.986 589.213V541.083V539.615M707.76 536.68V484.195M638.584 590.255L671.411 589.717L707.78 589.12M682.839 263.35L669.63 257.523L662.83 254.529M794.984 597.32L808.423 597.393M582.171 682.579L580.342 682.75L539.34 686.62M531.194 707.588V704.232M539.937 597.77L583.14 597.53M461.152 613.861L458.554 613.788M458.554 611.332L461.152 611.302L470.384 611.204H471.079M741.815 637.687V620.627M808.447 618.905H809.484H810.316M673.891 689.844L673.245 689.917L671.998 690.059M669.811 690.313L669.195 690.382L667.913 690.534M665.692 690.788L665.1 690.857L663.784 691.008M661.524 691.267L660.961 691.331L659.611 691.488M657.311 691.752L656.778 691.811L655.986 691.903L655.394 691.972L654.635 692.06M653.055 692.241L652.566 692.3L651.147 692.461M648.769 692.735L648.28 692.789L646.813 692.955M555.45 628.954H555.66L558.072 628.88M644.386 693.303L643.946 693.357L642.478 693.528M640.032 693.812L639.616 693.86L638.09 694.032M635.585 694.32L635.203 694.364L633.638 694.545M631.089 694.839L630.742 694.878L629.137 695.064M538.572 629.507L540.04 629.458L541.018 629.428M626.529 729.755V729.374M540.529 631.204L538.997 631.121M488.788 626.85H488.47H488.431H487.482L486.372 626.884M487.482 671.204L487.722 671.238L488.593 671.365H488.676L489.713 671.287M480.824 671.943H480.927L481.978 671.864M500.011 670.539H500.07L501.083 670.465M491.093 670.91L491.548 670.979L492.428 671.101H492.502L493.534 671.028M463.403 696.414V676.395M488.593 630.837L491.014 630.984M507.477 670.001H507.521L508.499 669.927M484.708 671.679H484.816L485.863 671.6M495.32 670.71L496.21 670.837H496.278L497.296 670.764M473.075 672.544L474.141 672.461L475.452 672.368M530.666 630.837L470.77 627.462H470.408M470.408 672.76L471.475 672.681M464.924 673.171H465.066L466.157 673.092M476.92 672.3H477.032L478.094 672.222M503.788 670.333H503.837L504.845 670.26M413.585 671.6L418.247 671.282L454.191 668.836M418.247 634.59L454.191 633.411L458.594 633.269M418.218 572.643L454.161 573.622L458.564 573.739M418.228 535.931L454.171 538.191L458.574 538.47M418.237 499.219L454.181 502.761L458.584 503.196M418.247 462.512L454.191 467.336L458.594 467.923M418.257 425.8L454.161 431.92L458.564 432.668M418.228 389.127L454.171 396.509L458.574 397.414M707.78 484.195V431.734V379.269M729.428 596.973L747.598 597.071M531.209 704.213V702.955M583.15 597.54L596.232 597.472L707.286 596.855M636.837 618.807L488.47 614.629M741.8 727.202V638.714V637.687M619.695 715.626V712.818V695.035M626.505 729.374V702.848M538.239 629.683V629.81V630.03V630.162V630.387V630.519M543.131 631.351L540.539 631.204M463.412 676.405V676.062M491.024 630.994L492.438 631.082L494.84 631.229M469.073 672.838L470.149 672.755H470.394M763.766 597.154L794.994 597.32M488.47 614.634H488.431M619.695 725.284V721.37M619.695 695.039V644.355V635.637M626.505 702.843V702.804M544.638 631.434L543.122 631.351M463.403 676.047V672.897V629.291M480.824 630.358L483.27 630.505M487.15 630.744L488.578 630.833M498.602 631.444L499.997 631.527L502.364 631.674" stroke="url(#paint16_angular_140_836)" stroke-miterlimit="10"/>
<path d="M488.427 614.634L487.483 614.604" stroke="url(#paint17_angular_140_836)" stroke-miterlimit="10"/>
<path d="M487.482 614.604L470.379 614.125" stroke="url(#paint18_angular_140_836)" stroke-miterlimit="10"/>
<path d="M470.379 614.125L461.153 613.866" stroke="url(#paint19_angular_140_836)" stroke-miterlimit="10"/>
<path d="M626.109 542.012L617.317 541.381" stroke="url(#paint20_angular_140_836)" stroke-miterlimit="10"/>
</g>
<g clip-path="url(#clip1_140_836)">
<path d="M182.27 512.863L185.104 504.834" stroke="url(#paint21_angular_140_836)" stroke-miterlimit="10"/>
<path d="M182.27 706.502V512.863" stroke="url(#paint22_angular_140_836)" stroke-miterlimit="10"/>
<path d="M185.104 709.435V504.834" stroke="url(#paint23_angular_140_836)" stroke-miterlimit="10"/>
<path d="M185.104 504.834L207.114 508.686" stroke="url(#paint24_angular_140_836)" stroke-miterlimit="10"/>
<path d="M228.426 499.023L243.104 475.265" stroke="url(#paint25_angular_140_836)" stroke-miterlimit="10"/>
<path d="M243.104 475.265L278.404 483.208" stroke="url(#paint26_angular_140_836)" stroke-miterlimit="10"/>
<path d="M243.104 711.523V475.265" stroke="url(#paint27_angular_140_836)" stroke-miterlimit="10"/>
<path d="M241.388 710.646V501.512" stroke="url(#paint28_angular_140_836)" stroke-miterlimit="10"/>
<path d="M211.61 712.73V495.804" stroke="url(#paint29_angular_140_836)" stroke-miterlimit="10"/>
<path d="M207.113 504.801L211.61 495.804" stroke="url(#paint30_angular_140_836)" stroke-miterlimit="10"/>
<path d="M308.506 514.378L327.47 518.014" stroke="url(#paint31_angular_140_836)" stroke-miterlimit="10"/>
<path d="M327.47 518.014L341.16 525.946" stroke="url(#paint32_angular_140_836)" stroke-miterlimit="10"/>
<path d="M341.16 525.946V681.316" stroke="url(#paint33_angular_140_836)" stroke-miterlimit="10"/>
<path d="M327.47 518.014V682.95" stroke="url(#paint34_angular_140_836)" stroke-miterlimit="10"/>
<path d="M301.682 488.445V707.357" stroke="url(#paint35_angular_140_836)" stroke-miterlimit="10"/>
<path d="M301.682 488.445L308.505 489.982" stroke="url(#paint36_angular_140_836)" stroke-miterlimit="10"/>
<path d="M300.046 490.047V706.848" stroke="url(#paint37_angular_140_836)" stroke-miterlimit="10"/>
<path d="M293.293 488.548L300.046 490.047" stroke="url(#paint38_angular_140_836)" stroke-miterlimit="10"/>
<path d="M301.682 488.445L300.046 490.047" stroke="url(#paint39_angular_140_836)" stroke-miterlimit="10"/>
<path d="M287.441 485.242V708.369" stroke="url(#paint40_angular_140_836)" stroke-miterlimit="10"/>
<path d="M287.441 485.242L293.293 486.557" stroke="url(#paint41_angular_140_836)" stroke-miterlimit="10"/>
<path d="M278.404 485.015L286.086 486.725" stroke="url(#paint42_angular_140_836)" stroke-miterlimit="10"/>
<path d="M286.086 486.725V707.898" stroke="url(#paint43_angular_140_836)" stroke-miterlimit="10"/>
<path d="M287.441 485.242L286.086 486.725" stroke="url(#paint44_angular_140_836)" stroke-miterlimit="10"/>
<path d="M211.61 495.804L228.426 499.023" stroke="url(#paint45_angular_140_836)" stroke-miterlimit="10"/>
<path d="M228.426 499.023L241.388 501.512" stroke="url(#paint46_angular_140_836)" stroke-miterlimit="10"/>
<path d="M308.506 705.95V514.378" stroke="url(#paint47_angular_140_836)" stroke-miterlimit="10"/>
<path d="M308.506 514.378V489.982" stroke="url(#paint48_angular_140_836)" stroke-miterlimit="10"/>
<path d="M207.113 708.028V508.686" stroke="url(#paint49_angular_140_836)" stroke-miterlimit="10"/>
<path d="M207.113 508.686V504.802" stroke="url(#paint50_angular_140_836)" stroke-miterlimit="10"/>
<path d="M293.293 707.324V488.548" stroke="url(#paint51_angular_140_836)" stroke-miterlimit="10"/>
<path d="M293.293 488.548V486.557" stroke="url(#paint52_angular_140_836)" stroke-miterlimit="10"/>
<path d="M278.404 708.439V485.015" stroke="url(#paint53_angular_140_836)" stroke-miterlimit="10"/>
<path d="M278.404 485.015V483.208" stroke="url(#paint54_angular_140_836)" stroke-miterlimit="10"/>
</g>
<g clip-path="url(#clip2_140_836)">
<path d="M165.821 581.136L163.943 575.806" stroke="url(#paint55_angular_140_836)" stroke-miterlimit="10"/>
<path d="M165.821 709.686V581.136" stroke="url(#paint56_angular_140_836)" stroke-miterlimit="10"/>
<path d="M163.943 711.633V575.806" stroke="url(#paint57_angular_140_836)" stroke-miterlimit="10"/>
<path d="M163.943 575.806L149.359 578.363" stroke="url(#paint58_angular_140_836)" stroke-miterlimit="10"/>
<path d="M135.235 571.948L125.509 556.176" stroke="url(#paint59_angular_140_836)" stroke-miterlimit="10"/>
<path d="M125.509 556.176L102.117 561.449" stroke="url(#paint60_angular_140_836)" stroke-miterlimit="10"/>
<path d="M125.509 713.019V556.176" stroke="url(#paint61_angular_140_836)" stroke-miterlimit="10"/>
<path d="M126.646 712.438V573.6" stroke="url(#paint62_angular_140_836)" stroke-miterlimit="10"/>
<path d="M146.379 713.82V569.811" stroke="url(#paint63_angular_140_836)" stroke-miterlimit="10"/>
<path d="M149.358 575.784L146.379 569.811" stroke="url(#paint64_angular_140_836)" stroke-miterlimit="10"/>
<path d="M82.1711 582.142L69.6042 584.556" stroke="url(#paint65_angular_140_836)" stroke-miterlimit="10"/>
<path d="M69.6045 584.556L60.5326 589.821" stroke="url(#paint66_angular_140_836)" stroke-miterlimit="10"/>
<path d="M60.5323 589.821V692.966" stroke="url(#paint67_angular_140_836)" stroke-miterlimit="10"/>
<path d="M69.6045 584.556V694.051" stroke="url(#paint68_angular_140_836)" stroke-miterlimit="10"/>
<path d="M86.6924 564.926V710.254" stroke="url(#paint69_angular_140_836)" stroke-miterlimit="10"/>
<path d="M86.6924 564.926L82.1708 565.946" stroke="url(#paint70_angular_140_836)" stroke-miterlimit="10"/>
<path d="M87.7766 565.989V709.916" stroke="url(#paint71_angular_140_836)" stroke-miterlimit="10"/>
<path d="M92.252 564.994L87.7768 565.989" stroke="url(#paint72_angular_140_836)" stroke-miterlimit="10"/>
<path d="M86.6927 564.926L87.7766 565.989" stroke="url(#paint73_angular_140_836)" stroke-miterlimit="10"/>
<path d="M96.1299 562.799V710.925" stroke="url(#paint74_angular_140_836)" stroke-miterlimit="10"/>
<path d="M96.1299 562.799L92.2522 563.672" stroke="url(#paint75_angular_140_836)" stroke-miterlimit="10"/>
<path d="M102.118 562.648L97.0278 563.783" stroke="url(#paint76_angular_140_836)" stroke-miterlimit="10"/>
<path d="M97.0273 563.784V710.613" stroke="url(#paint77_angular_140_836)" stroke-miterlimit="10"/>
<path d="M96.1294 562.8L97.0273 563.784" stroke="url(#paint78_angular_140_836)" stroke-miterlimit="10"/>
<path d="M146.379 569.811L135.236 571.948" stroke="url(#paint79_angular_140_836)" stroke-miterlimit="10"/>
<path d="M135.235 571.948L126.646 573.601" stroke="url(#paint80_angular_140_836)" stroke-miterlimit="10"/>
<path d="M82.1711 709.32V582.142" stroke="url(#paint81_angular_140_836)" stroke-miterlimit="10"/>
<path d="M82.1711 582.142V565.946" stroke="url(#paint82_angular_140_836)" stroke-miterlimit="10"/>
<path d="M149.358 710.699V578.363" stroke="url(#paint83_angular_140_836)" stroke-miterlimit="10"/>
<path d="M149.358 578.363V575.784" stroke="url(#paint84_angular_140_836)" stroke-miterlimit="10"/>
<path d="M92.252 710.232V564.994" stroke="url(#paint85_angular_140_836)" stroke-miterlimit="10"/>
<path d="M92.252 564.994V563.672" stroke="url(#paint86_angular_140_836)" stroke-miterlimit="10"/>
<path d="M102.118 710.972V562.648" stroke="url(#paint87_angular_140_836)" stroke-miterlimit="10"/>
<path d="M102.118 562.649V561.449" stroke="url(#paint88_angular_140_836)" stroke-miterlimit="10"/>
</g>
<defs>
<radialGradient id="paint0_angular_140_836" cx="0" cy="0" r="1" gradientUnits="userSpaceOnUse" gradientTransform="translate(517.862 57.0744) rotate(90) scale(15.2404 75.482)">
<stop stop-color="#F1D16A"/>
<stop offset="1" stop-color="#71581D"/>
</radialGradient>
<linearGradient id="paint1_linear_140_836" x1="518.086" y1="41.9297" x2="518.086" y2="69.1187" gradientUnits="userSpaceOnUse">
<stop stop-color="#F1D16A"/>
<stop offset="1" stop-color="#71581D"/>
</linearGradient>
<radialGradient id="paint2_angular_140_836" cx="0" cy="0" r="1" gradientUnits="userSpaceOnUse" gradientTransform="translate(608.814 171.53) rotate(90) scale(145.205 12.1302)">
<stop stop-color="#F1D16A"/>
<stop offset="1" stop-color="#71581D"/>
</radialGradient>
<linearGradient id="paint3_linear_140_836" x1="608.818" y1="26.3254" x2="608.818" y2="291.191" gradientUnits="userSpaceOnUse">
<stop stop-color="#F1D16A"/>
<stop offset="1" stop-color="#71581D"/>
</linearGradient>
<radialGradient id="paint4_angular_140_836" cx="0" cy="0" r="1" gradientUnits="userSpaceOnUse" gradientTransform="translate(608.817 10.878) rotate(90) scale(9.47448 11.831)">
<stop stop-color="#F1D16A"/>
<stop offset="1" stop-color="#71581D"/>
</radialGradient>
<radialGradient id="paint5_angular_140_836" cx="0" cy="0" r="1" gradientUnits="userSpaceOnUse" gradientTransform="translate(647.734 57.0718) rotate(90) scale(15.6519 23.0637)">
<stop stop-color="#F1D16A"/>
<stop offset="1" stop-color="#71581D"/>
</radialGradient>
<radialGradient id="paint6_angular_140_836" cx="0" cy="0" r="1" gradientUnits="userSpaceOnUse" gradientTransform="translate(433.795 100.175) rotate(90) scale(10.0366 4.73627)">
<stop stop-color="#F1D16A"/>
<stop offset="1" stop-color="#71581D"/>
</radialGradient>
<radialGradient id="paint7_angular_140_836" cx="0" cy="0" r="1" gradientUnits="userSpaceOnUse" gradientTransform="translate(433.794 47.6689) rotate(90) scale(7.1782 5.21963)">
<stop stop-color="#F1D16A"/>
<stop offset="1" stop-color="#71581D"/>
</radialGradient>
<radialGradient id="paint8_angular_140_836" cx="0" cy="0" r="1" gradientUnits="userSpaceOnUse" gradientTransform="translate(434.295 68.1229) rotate(90) scale(13.2759 0.5)">
<stop stop-color="#F1D16A"/>
<stop offset="1" stop-color="#71581D"/>
</radialGradient>
<radialGradient id="paint9_angular_140_836" cx="0" cy="0" r="1" gradientUnits="userSpaceOnUse" gradientTransform="translate(433.852 85.7686) rotate(-90) scale(4.36957 6.34309)">
<stop stop-color="#F1D16A"/>
<stop offset="1" stop-color="#71581D"/>
</radialGradient>
<radialGradient id="paint10_angular_140_836" cx="0" cy="0" r="1" gradientUnits="userSpaceOnUse" gradientTransform="translate(648.401 176.266) rotate(90) scale(37.075 24.1138)">
<stop stop-color="#F1D16A"/>
<stop offset="1" stop-color="#71581D"/>
</radialGradient>
<radialGradient id="paint11_angular_140_836" cx="0" cy="0" r="1" gradientUnits="userSpaceOnUse" gradientTransform="translate(571.614 448.483) rotate(90) scale(286.273 223.37)">
<stop stop-color="#4E3607"/>
<stop offset="1" stop-color="#F6D66D"/>
</radialGradient>
<radialGradient id="paint12_angular_140_836" cx="0" cy="0" r="1" gradientUnits="userSpaceOnUse" gradientTransform="translate(640.808 665.994) rotate(90) scale(68.6003 182.967)">
<stop stop-color="#4E3607"/>
<stop offset="1" stop-color="#F6D66D"/>
</radialGradient>
<radialGradient id="paint13_angular_140_836" cx="0" cy="0" r="1" gradientUnits="userSpaceOnUse" gradientTransform="translate(529.282 541.413) rotate(90) scale(190.153 146.728)">
<stop stop-color="#4E3607"/>
<stop offset="1" stop-color="#F6D66D"/>
</radialGradient>
<radialGradient id="paint14_angular_140_836" cx="0" cy="0" r="1" gradientUnits="userSpaceOnUse" gradientTransform="translate(606.046 451.969) rotate(90) scale(278.677 211.012)">
<stop stop-color="#4E3607"/>
<stop offset="1" stop-color="#F6D66D"/>
</radialGradient>
<radialGradient id="paint15_angular_140_836" cx="0" cy="0" r="1" gradientUnits="userSpaceOnUse" gradientTransform="translate(529.292 524.666) rotate(90) scale(173.397 146.738)">
<stop stop-color="#4E3607"/>
<stop offset="1" stop-color="#F6D66D"/>
</radialGradient>
<radialGradient id="paint16_angular_140_836" cx="0" cy="0" r="1" gradientUnits="userSpaceOnUse" gradientTransform="translate(611.951 492.142) rotate(90) scale(237.613 198.366)">
<stop stop-color="#4E3607"/>
<stop offset="1" stop-color="#F6D66D"/>
</radialGradient>
<radialGradient id="paint17_angular_140_836" cx="0" cy="0" r="1" gradientUnits="userSpaceOnUse" gradientTransform="translate(487.955 614.619) rotate(90) scale(0.0146764 0.472107)">
<stop stop-color="#4E3607"/>
<stop offset="1" stop-color="#F6D66D"/>
</radialGradient>
<radialGradient id="paint18_angular_140_836" cx="0" cy="0" r="1" gradientUnits="userSpaceOnUse" gradientTransform="translate(478.931 614.365) rotate(90) scale(0.23972 8.55163)">
<stop stop-color="#4E3607"/>
<stop offset="1" stop-color="#F6D66D"/>
</radialGradient>
<radialGradient id="paint19_angular_140_836" cx="0" cy="0" r="1" gradientUnits="userSpaceOnUse" gradientTransform="translate(465.766 613.995) rotate(90) scale(0.129654 4.61338)">
<stop stop-color="#4E3607"/>
<stop offset="1" stop-color="#F6D66D"/>
</radialGradient>
<radialGradient id="paint20_angular_140_836" cx="0" cy="0" r="1" gradientUnits="userSpaceOnUse" gradientTransform="translate(621.713 541.696) rotate(90) scale(0.31555 4.39567)">
<stop stop-color="#4E3607"/>
<stop offset="1" stop-color="#F6D66D"/>
</radialGradient>
<radialGradient id="paint21_angular_140_836" cx="0" cy="0" r="1" gradientUnits="userSpaceOnUse" gradientTransform="translate(183.687 508.849) rotate(90) scale(4.01464 1.41707)">
<stop stop-color="#4E3607"/>
<stop offset="1" stop-color="#F6D66D"/>
</radialGradient>
<radialGradient id="paint22_angular_140_836" cx="0" cy="0" r="1" gradientUnits="userSpaceOnUse" gradientTransform="translate(182.77 609.683) rotate(90) scale(96.8194 0.5)">
<stop stop-color="#4E3607"/>
<stop offset="1" stop-color="#F6D66D"/>
</radialGradient>
<radialGradient id="paint23_angular_140_836" cx="0" cy="0" r="1" gradientUnits="userSpaceOnUse" gradientTransform="translate(185.604 607.134) rotate(90) scale(102.3 0.5)">
<stop stop-color="#4E3607"/>
<stop offset="1" stop-color="#F6D66D"/>
</radialGradient>
<radialGradient id="paint24_angular_140_836" cx="0" cy="0" r="1" gradientUnits="userSpaceOnUse" gradientTransform="translate(196.109 506.76) rotate(90) scale(1.92616 11.0046)">
<stop stop-color="#4E3607"/>
<stop offset="1" stop-color="#F6D66D"/>
</radialGradient>
<radialGradient id="paint25_angular_140_836" cx="0" cy="0" r="1" gradientUnits="userSpaceOnUse" gradientTransform="translate(235.765 487.144) rotate(90) scale(11.8789 7.33909)">
<stop stop-color="#4E3607"/>
<stop offset="1" stop-color="#F6D66D"/>
</radialGradient>
<radialGradient id="paint26_angular_140_836" cx="0" cy="0" r="1" gradientUnits="userSpaceOnUse" gradientTransform="translate(260.754 479.236) rotate(90) scale(3.97136 17.65)">
<stop stop-color="#4E3607"/>
<stop offset="1" stop-color="#F6D66D"/>
</radialGradient>
<radialGradient id="paint27_angular_140_836" cx="0" cy="0" r="1" gradientUnits="userSpaceOnUse" gradientTransform="translate(243.604 593.394) rotate(90) scale(118.129 0.5)">
<stop stop-color="#4E3607"/>
<stop offset="1" stop-color="#F6D66D"/>
</radialGradient>
<radialGradient id="paint28_angular_140_836" cx="0" cy="0" r="1" gradientUnits="userSpaceOnUse" gradientTransform="translate(241.888 606.079) rotate(90) scale(104.567 0.5)">
<stop stop-color="#4E3607"/>
<stop offset="1" stop-color="#F6D66D"/>
</radialGradient>
<radialGradient id="paint29_angular_140_836" cx="0" cy="0" r="1" gradientUnits="userSpaceOnUse" gradientTransform="translate(212.11 604.267) rotate(90) scale(108.463 0.5)">
<stop stop-color="#4E3607"/>
<stop offset="1" stop-color="#F6D66D"/>
</radialGradient>
<radialGradient id="paint30_angular_140_836" cx="0" cy="0" r="1" gradientUnits="userSpaceOnUse" gradientTransform="translate(209.362 500.303) rotate(90) scale(4.49889 2.24842)">
<stop stop-color="#4E3607"/>
<stop offset="1" stop-color="#F6D66D"/>
</radialGradient>
<radialGradient id="paint31_angular_140_836" cx="0" cy="0" r="1" gradientUnits="userSpaceOnUse" gradientTransform="translate(317.988 516.196) rotate(90) scale(1.81795 9.48225)">
<stop stop-color="#4E3607"/>
<stop offset="1" stop-color="#F6D66D"/>
</radialGradient>
<radialGradient id="paint32_angular_140_836" cx="0" cy="0" r="1" gradientUnits="userSpaceOnUse" gradientTransform="translate(334.315 521.98) rotate(90) scale(3.96595 6.84513)">
<stop stop-color="#4E3607"/>
<stop offset="1" stop-color="#F6D66D"/>
</radialGradient>
<radialGradient id="paint33_angular_140_836" cx="0" cy="0" r="1" gradientUnits="userSpaceOnUse" gradientTransform="translate(341.66 603.631) rotate(90) scale(77.6849 0.5)">
<stop stop-color="#4E3607"/>
<stop offset="1" stop-color="#F6D66D"/>
</radialGradient>
<radialGradient id="paint34_angular_140_836" cx="0" cy="0" r="1" gradientUnits="userSpaceOnUse" gradientTransform="translate(327.97 600.482) rotate(90) scale(82.4678 0.5)">
<stop stop-color="#4E3607"/>
<stop offset="1" stop-color="#F6D66D"/>
</radialGradient>
<radialGradient id="paint35_angular_140_836" cx="0" cy="0" r="1" gradientUnits="userSpaceOnUse" gradientTransform="translate(302.182 597.901) rotate(90) scale(109.456 0.5)">
<stop stop-color="#4E3607"/>
<stop offset="1" stop-color="#F6D66D"/>
</radialGradient>
<radialGradient id="paint36_angular_140_836" cx="0" cy="0" r="1" gradientUnits="userSpaceOnUse" gradientTransform="translate(305.093 489.214) rotate(90) scale(0.7683 3.41177)">
<stop stop-color="#4E3607"/>
<stop offset="1" stop-color="#F6D66D"/>
</radialGradient>
<radialGradient id="paint37_angular_140_836" cx="0" cy="0" r="1" gradientUnits="userSpaceOnUse" gradientTransform="translate(300.546 598.448) rotate(90) scale(108.401 0.5)">
<stop stop-color="#4E3607"/>
<stop offset="1" stop-color="#F6D66D"/>
</radialGradient>
<radialGradient id="paint38_angular_140_836" cx="0" cy="0" r="1" gradientUnits="userSpaceOnUse" gradientTransform="translate(296.67 489.297) rotate(90) scale(0.749363 3.37668)">
<stop stop-color="#4E3607"/>
<stop offset="1" stop-color="#F6D66D"/>
</radialGradient>
<radialGradient id="paint39_angular_140_836" cx="0" cy="0" r="1" gradientUnits="userSpaceOnUse" gradientTransform="translate(300.864 489.246) rotate(90) scale(0.800764 0.817853)">
<stop stop-color="#4E3607"/>
<stop offset="1" stop-color="#F6D66D"/>
</radialGradient>
<radialGradient id="paint40_angular_140_836" cx="0" cy="0" r="1" gradientUnits="userSpaceOnUse" gradientTransform="translate(287.941 596.805) rotate(90) scale(111.563 0.5)">
<stop stop-color="#4E3607"/>
<stop offset="1" stop-color="#F6D66D"/>
</radialGradient>
<radialGradient id="paint41_angular_140_836" cx="0" cy="0" r="1" gradientUnits="userSpaceOnUse" gradientTransform="translate(290.367 485.9) rotate(90) scale(0.657384 2.92592)">
<stop stop-color="#4E3607"/>
<stop offset="1" stop-color="#F6D66D"/>
</radialGradient>
<radialGradient id="paint42_angular_140_836" cx="0" cy="0" r="1" gradientUnits="userSpaceOnUse" gradientTransform="translate(282.245 485.87) rotate(90) scale(0.854869 3.84094)">
<stop stop-color="#4E3607"/>
<stop offset="1" stop-color="#F6D66D"/>
</radialGradient>
<radialGradient id="paint43_angular_140_836" cx="0" cy="0" r="1" gradientUnits="userSpaceOnUse" gradientTransform="translate(286.586 597.311) rotate(90) scale(110.587 0.5)">
<stop stop-color="#4E3607"/>
<stop offset="1" stop-color="#F6D66D"/>
</radialGradient>
<radialGradient id="paint44_angular_140_836" cx="0" cy="0" r="1" gradientUnits="userSpaceOnUse" gradientTransform="translate(286.764 485.983) rotate(90) scale(0.741248 0.677499)">
<stop stop-color="#4E3607"/>
<stop offset="1" stop-color="#F6D66D"/>
</radialGradient>
<radialGradient id="paint45_angular_140_836" cx="0" cy="0" r="1" gradientUnits="userSpaceOnUse" gradientTransform="translate(220.018 497.413) rotate(90) scale(1.60964 8.40797)">
<stop stop-color="#4E3607"/>
<stop offset="1" stop-color="#F6D66D"/>
</radialGradient>
<radialGradient id="paint46_angular_140_836" cx="0" cy="0" r="1" gradientUnits="userSpaceOnUse" gradientTransform="translate(234.907 500.267) rotate(90) scale(1.24443 6.48075)">
<stop stop-color="#4E3607"/>
<stop offset="1" stop-color="#F6D66D"/>
</radialGradient>
<radialGradient id="paint47_angular_140_836" cx="0" cy="0" r="1" gradientUnits="userSpaceOnUse" gradientTransform="translate(309.006 610.164) rotate(90) scale(95.786 0.5)">
<stop stop-color="#4E3607"/>
<stop offset="1" stop-color="#F6D66D"/>
</radialGradient>
<radialGradient id="paint48_angular_140_836" cx="0" cy="0" r="1" gradientUnits="userSpaceOnUse" gradientTransform="translate(309.006 502.18) rotate(90) scale(12.1981 0.5)">
<stop stop-color="#4E3607"/>
<stop offset="1" stop-color="#F6D66D"/>
</radialGradient>
<radialGradient id="paint49_angular_140_836" cx="0" cy="0" r="1" gradientUnits="userSpaceOnUse" gradientTransform="translate(207.613 608.357) rotate(90) scale(99.6707 0.5)">
<stop stop-color="#4E3607"/>
<stop offset="1" stop-color="#F6D66D"/>
</radialGradient>
<radialGradient id="paint50_angular_140_836" cx="0" cy="0" r="1" gradientUnits="userSpaceOnUse" gradientTransform="translate(207.613 506.744) rotate(90) scale(1.94239 0.5)">
<stop stop-color="#4E3607"/>
<stop offset="1" stop-color="#F6D66D"/>
</radialGradient>
<radialGradient id="paint51_angular_140_836" cx="0" cy="0" r="1" gradientUnits="userSpaceOnUse" gradientTransform="translate(293.793 597.936) rotate(90) scale(109.388 0.5)">
<stop stop-color="#4E3607"/>
<stop offset="1" stop-color="#F6D66D"/>
</radialGradient>
<radialGradient id="paint52_angular_140_836" cx="0" cy="0" r="1" gradientUnits="userSpaceOnUse" gradientTransform="translate(293.793 487.552) rotate(90) scale(0.995544 0.5)">
<stop stop-color="#4E3607"/>
<stop offset="1" stop-color="#F6D66D"/>
</radialGradient>
<radialGradient id="paint53_angular_140_836" cx="0" cy="0" r="1" gradientUnits="userSpaceOnUse" gradientTransform="translate(278.904 596.727) rotate(90) scale(111.712 0.5)">
<stop stop-color="#4E3607"/>
<stop offset="1" stop-color="#F6D66D"/>
</radialGradient>
<radialGradient id="paint54_angular_140_836" cx="0" cy="0" r="1" gradientUnits="userSpaceOnUse" gradientTransform="translate(278.904 484.111) rotate(90) scale(0.903565 0.5)">
<stop stop-color="#4E3607"/>
<stop offset="1" stop-color="#F6D66D"/>
</radialGradient>
<radialGradient id="paint55_angular_140_836" cx="0" cy="0" r="1" gradientUnits="userSpaceOnUse" gradientTransform="translate(164.882 578.471) rotate(90) scale(2.66518 0.939024)">
<stop stop-color="#4E3607"/>
<stop offset="1" stop-color="#F6D66D"/>
</radialGradient>
<radialGradient id="paint56_angular_140_836" cx="0" cy="0" r="1" gradientUnits="userSpaceOnUse" gradientTransform="translate(165.321 645.411) rotate(90) scale(64.275 0.5)">
<stop stop-color="#4E3607"/>
<stop offset="1" stop-color="#F6D66D"/>
</radialGradient>
<radialGradient id="paint57_angular_140_836" cx="0" cy="0" r="1" gradientUnits="userSpaceOnUse" gradientTransform="translate(163.443 643.719) rotate(90) scale(67.9136 0.5)">
<stop stop-color="#4E3607"/>
<stop offset="1" stop-color="#F6D66D"/>
</radialGradient>
<radialGradient id="paint58_angular_140_836" cx="0" cy="0" r="1" gradientUnits="userSpaceOnUse" gradientTransform="translate(156.651 577.084) rotate(90) scale(1.27871 7.29219)">
<stop stop-color="#4E3607"/>
<stop offset="1" stop-color="#F6D66D"/>
</radialGradient>
<radialGradient id="paint59_angular_140_836" cx="0" cy="0" r="1" gradientUnits="userSpaceOnUse" gradientTransform="translate(130.372 564.062) rotate(90) scale(7.88599 4.86325)">
<stop stop-color="#4E3607"/>
<stop offset="1" stop-color="#F6D66D"/>
</radialGradient>
<radialGradient id="paint60_angular_140_836" cx="0" cy="0" r="1" gradientUnits="userSpaceOnUse" gradientTransform="translate(113.813 558.812) rotate(90) scale(2.63645 11.6958)">
<stop stop-color="#4E3607"/>
<stop offset="1" stop-color="#F6D66D"/>
</radialGradient>
<radialGradient id="paint61_angular_140_836" cx="0" cy="0" r="1" gradientUnits="userSpaceOnUse" gradientTransform="translate(125.009 634.597) rotate(90) scale(78.4217 0.5)">
<stop stop-color="#4E3607"/>
<stop offset="1" stop-color="#F6D66D"/>
</radialGradient>
<radialGradient id="paint62_angular_140_836" cx="0" cy="0" r="1" gradientUnits="userSpaceOnUse" gradientTransform="translate(126.146 643.019) rotate(90) scale(69.4186 0.5)">
<stop stop-color="#4E3607"/>
<stop offset="1" stop-color="#F6D66D"/>
</radialGradient>
<radialGradient id="paint63_angular_140_836" cx="0" cy="0" r="1" gradientUnits="userSpaceOnUse" gradientTransform="translate(145.879 641.816) rotate(90) scale(72.0048 0.5)">
<stop stop-color="#4E3607"/>
<stop offset="1" stop-color="#F6D66D"/>
</radialGradient>
<radialGradient id="paint64_angular_140_836" cx="0" cy="0" r="1" gradientUnits="userSpaceOnUse" gradientTransform="translate(147.868 572.797) rotate(90) scale(2.98666 1.48992)">
<stop stop-color="#4E3607"/>
<stop offset="1" stop-color="#F6D66D"/>
</radialGradient>
<radialGradient id="paint65_angular_140_836" cx="0" cy="0" r="1" gradientUnits="userSpaceOnUse" gradientTransform="translate(75.8876 583.349) rotate(90) scale(1.20687 6.28342)">
<stop stop-color="#4E3607"/>
<stop offset="1" stop-color="#F6D66D"/>
</radialGradient>
<radialGradient id="paint66_angular_140_836" cx="0" cy="0" r="1" gradientUnits="userSpaceOnUse" gradientTransform="translate(65.0686 587.189) rotate(90) scale(2.63285 4.53593)">
<stop stop-color="#4E3607"/>
<stop offset="1" stop-color="#F6D66D"/>
</radialGradient>
<radialGradient id="paint67_angular_140_836" cx="0" cy="0" r="1" gradientUnits="userSpaceOnUse" gradientTransform="translate(60.0323 641.394) rotate(90) scale(51.5723 0.5)">
<stop stop-color="#4E3607"/>
<stop offset="1" stop-color="#F6D66D"/>
</radialGradient>
<radialGradient id="paint68_angular_140_836" cx="0" cy="0" r="1" gradientUnits="userSpaceOnUse" gradientTransform="translate(69.1045 639.303) rotate(90) scale(54.7476 0.5)">
<stop stop-color="#4E3607"/>
<stop offset="1" stop-color="#F6D66D"/>
</radialGradient>
<radialGradient id="paint69_angular_140_836" cx="0" cy="0" r="1" gradientUnits="userSpaceOnUse" gradientTransform="translate(86.1924 637.59) rotate(90) scale(72.6639 0.5)">
<stop stop-color="#4E3607"/>
<stop offset="1" stop-color="#F6D66D"/>
</radialGradient>
<radialGradient id="paint70_angular_140_836" cx="0" cy="0" r="1" gradientUnits="userSpaceOnUse" gradientTransform="translate(84.4316 565.436) rotate(90) scale(0.510048 2.26081)">
<stop stop-color="#4E3607"/>
<stop offset="1" stop-color="#F6D66D"/>
</radialGradient>
<radialGradient id="paint71_angular_140_836" cx="0" cy="0" r="1" gradientUnits="userSpaceOnUse" gradientTransform="translate(87.2766 637.953) rotate(90) scale(71.9635 0.5)">
<stop stop-color="#4E3607"/>
<stop offset="1" stop-color="#F6D66D"/>
</radialGradient>
<radialGradient id="paint72_angular_140_836" cx="0" cy="0" r="1" gradientUnits="userSpaceOnUse" gradientTransform="translate(90.0144 565.492) rotate(90) scale(0.497476 2.23756)">
<stop stop-color="#4E3607"/>
<stop offset="1" stop-color="#F6D66D"/>
</radialGradient>
<radialGradient id="paint73_angular_140_836" cx="0" cy="0" r="1" gradientUnits="userSpaceOnUse" gradientTransform="translate(87.2346 565.457) rotate(90) scale(0.531599 0.541951)">
<stop stop-color="#4E3607"/>
<stop offset="1" stop-color="#F6D66D"/>
</radialGradient>
<radialGradient id="paint74_angular_140_836" cx="0" cy="0" r="1" gradientUnits="userSpaceOnUse" gradientTransform="translate(95.6299 636.862) rotate(90) scale(74.063 0.5)">
<stop stop-color="#4E3607"/>
<stop offset="1" stop-color="#F6D66D"/>
</radialGradient>
<radialGradient id="paint75_angular_140_836" cx="0" cy="0" r="1" gradientUnits="userSpaceOnUse" gradientTransform="translate(94.191 563.236) rotate(90) scale(0.436415 1.93886)">
<stop stop-color="#4E3607"/>
<stop offset="1" stop-color="#F6D66D"/>
</radialGradient>
<radialGradient id="paint76_angular_140_836" cx="0" cy="0" r="1" gradientUnits="userSpaceOnUse" gradientTransform="translate(99.573 563.216) rotate(90) scale(0.567518 2.5452)">
<stop stop-color="#4E3607"/>
<stop offset="1" stop-color="#F6D66D"/>
</radialGradient>
<radialGradient id="paint77_angular_140_836" cx="0" cy="0" r="1" gradientUnits="userSpaceOnUse" gradientTransform="translate(96.5273 637.198) rotate(90) scale(73.4146 0.5)">
<stop stop-color="#4E3607"/>
<stop offset="1" stop-color="#F6D66D"/>
</radialGradient>
<radialGradient id="paint78_angular_140_836" cx="0" cy="0" r="1" gradientUnits="userSpaceOnUse" gradientTransform="translate(96.5784 563.292) rotate(90) scale(0.492089 0.448945)">
<stop stop-color="#4E3607"/>
<stop offset="1" stop-color="#F6D66D"/>
</radialGradient>
<radialGradient id="paint79_angular_140_836" cx="0" cy="0" r="1" gradientUnits="userSpaceOnUse" gradientTransform="translate(140.807 570.879) rotate(90) scale(1.06859 5.57154)">
<stop stop-color="#4E3607"/>
<stop offset="1" stop-color="#F6D66D"/>
</radialGradient>
<radialGradient id="paint80_angular_140_836" cx="0" cy="0" r="1" gradientUnits="userSpaceOnUse" gradientTransform="translate(130.941 572.774) rotate(90) scale(0.826134 4.29447)">
<stop stop-color="#4E3607"/>
<stop offset="1" stop-color="#F6D66D"/>
</radialGradient>
<radialGradient id="paint81_angular_140_836" cx="0" cy="0" r="1" gradientUnits="userSpaceOnUse" gradientTransform="translate(81.6711 645.731) rotate(90) scale(63.589 0.5)">
<stop stop-color="#4E3607"/>
<stop offset="1" stop-color="#F6D66D"/>
</radialGradient>
<radialGradient id="paint82_angular_140_836" cx="0" cy="0" r="1" gradientUnits="userSpaceOnUse" gradientTransform="translate(81.6711 574.044) rotate(90) scale(8.09791 0.5)">
<stop stop-color="#4E3607"/>
<stop offset="1" stop-color="#F6D66D"/>
</radialGradient>
<radialGradient id="paint83_angular_140_836" cx="0" cy="0" r="1" gradientUnits="userSpaceOnUse" gradientTransform="translate(148.858 644.531) rotate(90) scale(66.168 0.5)">
<stop stop-color="#4E3607"/>
<stop offset="1" stop-color="#F6D66D"/>
</radialGradient>
<radialGradient id="paint84_angular_140_836" cx="0" cy="0" r="1" gradientUnits="userSpaceOnUse" gradientTransform="translate(148.858 577.074) rotate(90) scale(1.28949 0.5)">
<stop stop-color="#4E3607"/>
<stop offset="1" stop-color="#F6D66D"/>
</radialGradient>
<radialGradient id="paint85_angular_140_836" cx="0" cy="0" r="1" gradientUnits="userSpaceOnUse" gradientTransform="translate(91.752 637.613) rotate(90) scale(72.619 0.5)">
<stop stop-color="#4E3607"/>
<stop offset="1" stop-color="#F6D66D"/>
</radialGradient>
<radialGradient id="paint86_angular_140_836" cx="0" cy="0" r="1" gradientUnits="userSpaceOnUse" gradientTransform="translate(91.752 564.333) rotate(90) scale(0.660908 0.5)">
<stop stop-color="#4E3607"/>
<stop offset="1" stop-color="#F6D66D"/>
</radialGradient>
<radialGradient id="paint87_angular_140_836" cx="0" cy="0" r="1" gradientUnits="userSpaceOnUse" gradientTransform="translate(101.618 636.81) rotate(90) scale(74.1617 0.5)">
<stop stop-color="#4E3607"/>
<stop offset="1" stop-color="#F6D66D"/>
</radialGradient>
<radialGradient id="paint88_angular_140_836" cx="0" cy="0" r="1" gradientUnits="userSpaceOnUse" gradientTransform="translate(101.618 562.049) rotate(90) scale(0.599845 0.5)">
<stop stop-color="#4E3607"/>
<stop offset="1" stop-color="#F6D66D"/>
</radialGradient>
<clipPath id="clip0_140_836">
<rect width="476" height="573" fill="white" transform="translate(348 162)"/>
</clipPath>
<clipPath id="clip1_140_836">
<rect width="166" height="238" fill="white" transform="translate(182 475)"/>
</clipPath>
<clipPath id="clip2_140_836">
<rect width="110" height="158" fill="white" transform="matrix(-1 0 0 1 166 556)"/>
</clipPath>
</defs>
</svg>
