<svg width="143" height="61" viewBox="0 0 143 61" fill="none" xmlns="http://www.w3.org/2000/svg">
<g id="Group 1605">
<path id="Vector" d="M75.1803 37.1C75.2603 40.46 75.3503 41.79 75.3503 42.67C75.3503 52.21 72.8802 56.54 66.3503 58.67C61.5802 60.17 55.1303 60.67 42.0603 60.67C19.0003 60.67 11.5803 59.96 6.81027 57.23C2.92027 55.02 1.15026 51.75 0.450256 45.74C0.180256 43.09 0.0102539 38.23 0.0102539 30.74C0.0102539 17.58 0.360267 12.74 1.68027 9.45C4.87027 1.45 11.3103 0 42.1503 0C57.8703 0 63.3502 0.620006 67.4102 2.74001C72.4102 5.30001 74.2103 9.63 74.2103 19.08V22H56.2703C56.0903 18.11 55.9203 17.32 54.8603 16.43C53.5303 15.28 48.3203 14.75 37.0103 14.75C25.7003 14.75 22.5203 15.11 20.7603 16.52C18.6403 18.29 17.9303 21.73 17.9303 30.65C17.9303 45.76 18.1903 45.94 37.1003 45.94C56.8003 45.94 57.1003 45.85 57.1503 37.1H75.1803Z" fill="white"/>
<path id="Vector_2" d="M93.08 52.9201V32.6901V25.8001V7.78014H142.9V0.890137H85.21V59.8101H142.99V52.9201H93.08Z" fill="white"/>
<path id="Vector_3" d="M140.94 25.73H0V32.86H140.94V25.73Z" fill="url(#paint0_radial_140_805)"/>
</g>
<defs>
<radialGradient id="paint0_radial_140_805" cx="0" cy="0" r="1" gradientUnits="userSpaceOnUse" gradientTransform="translate(70.5627 20.913) scale(49.842 222.372)">
<stop stop-color="#FFFACB"/>
<stop offset="0.12" stop-color="#FAF1BA"/>
<stop offset="0.35" stop-color="#EED98D"/>
<stop offset="0.37" stop-color="#EDD688"/>
<stop offset="0.69" stop-color="#EABA10"/>
<stop offset="1" stop-color="#C2912E"/>
</radialGradient>
</defs>
</svg>
