<svg width="163" height="49" viewBox="0 0 163 49" fill="none" xmlns="http://www.w3.org/2000/svg">
<g id="Badges" clip-path="url(#clip0_196_3343)">
<path id="Vector" fill-rule="evenodd" clip-rule="evenodd" d="M156.594 48.667H6.59889C3.29082 48.667 0.59668 45.9618 0.59668 42.667V6.66699C0.59668 3.36026 3.29082 0.666992 6.59889 0.666992H156.594C159.9 0.666992 162.597 3.36026 162.597 6.66699V42.667C162.597 45.9618 159.9 48.667 156.594 48.667Z" fill="black"/>
<path id="Vector_2" fill-rule="evenodd" clip-rule="evenodd" d="M156.594 1.62759C159.369 1.62759 161.64 3.89293 161.64 6.66699V42.667C161.64 45.4411 159.384 47.7064 156.594 47.7064H6.59889C3.82428 47.7064 1.55334 45.4411 1.55334 42.667V6.66699C1.55334 3.89293 3.80938 1.62759 6.59889 1.62759H156.594ZM156.594 0.666992H6.59889C3.29082 0.666992 0.59668 3.37223 0.59668 6.66699V42.667C0.59668 45.9737 3.29082 48.667 6.59889 48.667H156.594C159.9 48.667 162.597 45.9737 162.597 42.667V6.66699C162.597 3.37223 159.9 0.666992 156.594 0.666992Z" fill="#A6A6A6"/>
<path id="Vector_3" d="M85.9383 16.5452C84.8565 16.5452 83.9445 16.1652 83.2233 15.4171C82.508 14.6899 82.1087 13.6874 82.1266 12.6639C82.1266 11.5717 82.4961 10.647 83.2233 9.91382C83.9415 9.16569 84.8535 8.78564 85.9353 8.78564C87.0052 8.78564 87.9172 9.16569 88.6503 9.91382C89.3775 10.6709 89.747 11.5956 89.747 12.6639C89.7351 13.7592 89.3655 14.6839 88.6503 15.4141C87.9321 16.1682 87.0201 16.5452 85.9383 16.5452ZM53.7489 16.5452C52.6909 16.5452 51.773 16.1712 51.022 15.432C50.2769 14.6959 49.8984 13.7652 49.8984 12.6669C49.8984 11.5687 50.2769 10.638 51.022 9.90185C51.7581 9.1627 52.676 8.78864 53.7489 8.78864C54.2734 8.78864 54.783 8.89338 55.2718 9.10584C55.7516 9.31233 56.142 9.59362 56.4311 9.93776L56.5026 10.0245L55.695 10.8206L55.6115 10.7218C55.1556 10.1772 54.5446 9.91083 53.737 9.91083C53.0157 9.91083 52.3869 10.1682 51.8684 10.6769C51.3468 11.1886 51.0816 11.859 51.0816 12.6699C51.0816 13.4809 51.3468 14.1512 51.8684 14.663C52.3869 15.1717 53.0157 15.429 53.737 15.429C54.5059 15.429 55.1526 15.1717 55.6562 14.663C55.9543 14.3637 56.139 13.9447 56.2046 13.4151H53.6148V12.2959H57.3162L57.3311 12.3976C57.3579 12.5861 57.3848 12.7807 57.3848 12.9602C57.3848 13.9926 57.0748 14.8275 56.4609 15.444C55.7635 16.1742 54.8516 16.5452 53.7489 16.5452ZM96.5479 16.3866H95.4065L91.9107 10.7697L91.9405 11.7812V16.3836H90.799V8.94724H92.1014L92.1372 9.0041L95.4243 14.2949L95.3945 13.2864V8.94724H96.5479V16.3866ZM77.3612 16.3866H76.2049V10.0664H74.1992V8.94724H79.3639V10.0664H77.3582V16.3866H77.3612ZM73.2574 16.3866H72.1041V8.94724H73.2574V16.3866ZM66.7754 16.3866H65.6221V10.0664H63.6164V8.94724H68.7811V10.0664H66.7754V16.3866ZM62.8863 16.3747H58.4636V8.94724H62.8863V10.0664H59.6199V12.1073H62.5674V13.2146H59.6199V15.2555H62.8863V16.3747ZM84.0697 14.648C84.5853 15.1657 85.2111 15.426 85.9383 15.426C86.6863 15.426 87.2973 15.1717 87.8069 14.648C88.3135 14.1393 88.5698 13.4719 88.5698 12.6669C88.5698 11.862 88.3135 11.1916 87.8099 10.6859C87.2943 10.1682 86.6655 9.90784 85.9413 9.90784C85.1932 9.90784 84.5823 10.1622 84.0756 10.6859C83.569 11.1946 83.3127 11.862 83.3127 12.6669C83.3127 13.4719 83.566 14.1423 84.0697 14.648Z" fill="white"/>
<path id="Vector_4" fill-rule="evenodd" clip-rule="evenodd" d="M82.0195 26.7738C79.2031 26.7738 76.9203 28.9194 76.9203 31.879C76.9203 34.8117 79.218 36.9843 82.0195 36.9843C84.8358 36.9843 87.1187 34.8237 87.1187 31.879C87.1187 28.9194 84.8358 26.7738 82.0195 26.7738ZM82.0195 34.9613C80.4787 34.9613 79.1525 33.6805 79.1525 31.8671C79.1525 30.0267 80.4817 28.7728 82.0195 28.7728C83.5603 28.7728 84.8865 30.0267 84.8865 31.8671C84.8894 33.6925 83.5603 34.9613 82.0195 34.9613ZM70.8942 26.7738C68.0779 26.7738 65.795 28.9194 65.795 31.879C65.795 34.8117 68.0928 36.9843 70.8942 36.9843C73.7105 36.9843 75.9934 34.8237 75.9934 31.879C75.9934 28.9194 73.7076 26.7738 70.8942 26.7738ZM70.8942 34.9613C69.3534 34.9613 68.0272 33.6805 68.0272 31.8671C68.0272 30.0267 69.3564 28.7728 70.8942 28.7728C72.435 28.7728 73.7612 30.0267 73.7612 31.8671C73.7612 33.6925 72.435 34.9613 70.8942 34.9613ZM57.656 28.3329V30.4935H62.8207C62.6628 31.7055 62.2634 32.6002 61.6525 33.2137C60.8955 33.9738 59.7272 34.7997 57.6679 34.7997C54.4939 34.7997 52.0114 32.2262 52.0114 29.0391C52.0114 25.8521 54.4939 23.2785 57.6679 23.2785C59.3815 23.2785 60.6302 23.9578 61.5571 24.8257L63.083 23.2935C61.7955 22.0546 60.0819 21.106 57.6798 21.106C53.3257 21.106 49.6719 24.6671 49.6719 29.0272C49.6719 33.3992 53.3227 36.9483 57.6798 36.9483C60.0312 36.9483 61.7955 36.1763 63.1903 34.7219C64.6119 33.2945 65.0619 31.2805 65.0619 29.6556C65.0619 29.1498 65.0231 28.695 64.9427 28.3089H57.653C57.656 28.306 57.656 28.3329 57.656 28.3329ZM111.804 30.0147C111.378 28.8685 110.09 26.7618 107.45 26.7618C104.833 26.7618 102.658 28.8296 102.658 31.8671C102.658 34.7339 104.809 36.9723 107.703 36.9723C110.028 36.9723 111.381 35.5449 111.938 34.707L110.213 33.5459C109.64 34.3987 108.845 34.9583 107.715 34.9583C106.574 34.9583 105.775 34.4376 105.245 33.4112L112.042 30.5833C112.042 30.5863 111.804 30.0147 111.804 30.0147ZM104.872 31.7204C104.818 29.7483 106.398 28.7459 107.527 28.7459C108.418 28.7459 109.161 29.1858 109.414 29.8262L104.872 31.7204ZM99.3496 36.6671H101.582V21.6686H99.3496V36.6671ZM95.6839 27.908H95.6034C95.0998 27.3065 94.1431 26.7618 92.9212 26.7618C90.385 26.7618 88.0485 29.0032 88.0485 31.882C88.0485 34.7488 90.3731 36.9633 92.9212 36.9633C94.1282 36.9633 95.0998 36.4157 95.6034 35.8022H95.6839V36.5354C95.6839 38.4835 94.6468 39.5339 92.9749 39.5339C91.6069 39.5339 90.7575 38.5464 90.4118 37.7204L88.4717 38.5344C89.029 39.881 90.5162 41.5478 92.9719 41.5478C95.5885 41.5478 97.8058 40.0007 97.8058 36.2272V27.0671H95.6958V27.908C95.6988 27.908 95.6839 27.908 95.6839 27.908ZM93.1209 34.9613C91.5801 34.9613 90.2926 33.6685 90.2926 31.882C90.2926 30.0805 91.5801 28.7758 93.1209 28.7758C94.6468 28.7758 95.8299 30.0955 95.8299 31.882C95.8448 33.6685 94.6498 34.9613 93.1209 34.9613ZM122.256 21.6686H116.918V36.6671H119.15V30.9873H122.259C124.729 30.9873 127.158 29.1887 127.158 26.3339C127.158 23.479 124.738 21.6686 122.256 21.6686ZM122.321 28.8925H119.147V23.7454H122.321C123.993 23.7454 124.938 25.1309 124.938 26.3189C124.938 27.495 123.981 28.8925 122.321 28.8925ZM136.105 26.7469C134.484 26.7469 132.812 27.468 132.12 29.0391L134.099 29.8651C134.525 29.0391 135.306 28.7578 136.132 28.7578C137.288 28.7578 138.456 29.4521 138.483 30.691V30.8496C138.084 30.6222 137.208 30.275 136.159 30.275C134.022 30.275 131.855 31.4481 131.855 33.6476C131.855 35.6616 133.608 36.9543 135.56 36.9543C137.059 36.9543 137.884 36.275 138.4 35.488H138.48V36.6491H140.632V30.9035C140.632 28.2282 138.653 26.7469 136.105 26.7469ZM135.825 34.9613C135.095 34.9613 134.072 34.6022 134.072 33.6805C134.072 32.5194 135.348 32.0795 136.436 32.0795C137.419 32.0795 137.884 32.292 138.468 32.5853C138.307 33.9319 137.175 34.9493 135.825 34.9613ZM148.482 27.0671L145.919 33.5728H145.838L143.183 27.0671H140.781L144.766 36.1613L142.495 41.2157H144.819L150.95 27.0671H148.482ZM128.389 36.6671H130.621V21.6686H128.389V36.6671Z" fill="white"/>
<path id="Vector_5" fill-rule="evenodd" clip-rule="evenodd" d="M13.0659 9.70739C12.7202 10.0815 12.5205 10.653 12.5205 11.4012V37.9358C12.5205 38.6839 12.7202 39.2555 13.0778 39.6146L13.1702 39.6954L27.976 24.8286V24.4964L13.1583 9.62659L13.0659 9.70739Z" fill="url(#paint0_linear_196_3343)"/>
<path id="Vector_6" fill-rule="evenodd" clip-rule="evenodd" d="M32.9022 29.7991L27.9639 24.8405V24.4934L32.9022 19.5348L33.0094 19.6006L38.8508 22.9343C40.5227 23.8799 40.5227 25.442 38.8508 26.3996L33.0094 29.7333L32.9022 29.7991Z" fill="url(#paint1_linear_196_3343)"/>
<path id="Vector_7" fill-rule="evenodd" clip-rule="evenodd" d="M33.0102 29.7333L27.9646 24.667L13.0664 39.6266C13.6118 40.2131 14.5267 40.279 15.5489 39.7074L33.0102 29.7333Z" fill="url(#paint2_linear_196_3343)"/>
<path id="Vector_8" fill-rule="evenodd" clip-rule="evenodd" d="M33.0102 19.6007L15.5489 9.64157C14.5267 9.05504 13.6088 9.13584 13.0664 9.72237L27.9646 24.667L33.0102 19.6007Z" fill="url(#paint3_linear_196_3343)"/>
<path id="Vector_9" opacity="0.2" fill-rule="evenodd" clip-rule="evenodd" d="M32.9028 29.6256L15.5607 39.5188C14.5921 40.0784 13.7278 40.0395 13.1705 39.5308L13.0781 39.6236L13.1705 39.7044C13.7278 40.2101 14.5921 40.252 15.5607 39.6924L33.022 29.7333L32.9028 29.6256Z" fill="black"/>
<path id="Vector_10" opacity="0.12" fill-rule="evenodd" clip-rule="evenodd" d="M38.8512 26.2261L32.8877 29.6256L32.995 29.7333L38.8363 26.3997C39.6737 25.9209 40.085 25.2924 40.085 24.667C40.0343 25.2416 39.6081 25.7862 38.8512 26.2261Z" fill="black"/>
<path id="Vector_11" opacity="0.25" fill-rule="evenodd" clip-rule="evenodd" d="M15.5484 9.81512L38.8509 23.1079C39.6079 23.5358 40.0341 24.0954 40.0997 24.667C40.0997 24.0416 39.6884 23.4131 38.8509 22.9343L15.5484 9.64155C13.8765 8.68095 12.5205 9.48295 12.5205 11.4012V11.5747C12.5205 9.65352 13.8765 8.86649 15.5484 9.81512Z" fill="white"/>
</g>
<defs>
<linearGradient id="paint0_linear_196_3343" x1="26.648" y1="11.1149" x2="2.9187" y2="17.4116" gradientUnits="userSpaceOnUse">
<stop stop-color="#00A0FF"/>
<stop offset="0.00657" stop-color="#00A1FF"/>
<stop offset="0.2601" stop-color="#00BEFF"/>
<stop offset="0.5122" stop-color="#00D2FF"/>
<stop offset="0.7604" stop-color="#00DFFF"/>
<stop offset="1" stop-color="#00E3FF"/>
</linearGradient>
<linearGradient id="paint1_linear_196_3343" x1="41.0311" y1="24.667" x2="12.1138" y2="24.667" gradientUnits="userSpaceOnUse">
<stop stop-color="#FFE000"/>
<stop offset="0.4087" stop-color="#FFBD00"/>
<stop offset="0.7754" stop-color="#FFA500"/>
<stop offset="1" stop-color="#FF9C00"/>
</linearGradient>
<linearGradient id="paint2_linear_196_3343" x1="30.2666" y1="27.4238" x2="11.1113" y2="59.5316" gradientUnits="userSpaceOnUse">
<stop stop-color="#FF3A44"/>
<stop offset="1" stop-color="#C31162"/>
</linearGradient>
<linearGradient id="paint3_linear_196_3343" x1="9.31487" y1="0.881558" x2="17.8609" y2="15.2214" gradientUnits="userSpaceOnUse">
<stop stop-color="#32A071"/>
<stop offset="0.0685" stop-color="#2DA771"/>
<stop offset="0.4762" stop-color="#15CF74"/>
<stop offset="0.8009" stop-color="#06E775"/>
<stop offset="1" stop-color="#00F076"/>
</linearGradient>
<clipPath id="clip0_196_3343">
<rect width="162" height="48" fill="white" transform="translate(0.59668 0.666992)"/>
</clipPath>
</defs>
</svg>
