<svg width="76" height="32" viewBox="0 0 76 32" fill="none" xmlns="http://www.w3.org/2000/svg">
<g id="Group 2">
<path id="Vector" d="M39.6528 19.5682C39.695 21.3404 39.7425 22.0419 39.7425 22.506C39.7425 27.5378 38.4397 29.8217 34.9955 30.9451C32.4796 31.7363 29.0776 32 22.1839 32C10.021 32 6.10741 31.6255 3.59151 30.1856C1.53975 29.0199 0.60617 27.2952 0.236959 24.1253C0.0945495 22.7275 0.00488281 20.1642 0.00488281 16.2136C0.00488281 9.27246 0.189495 6.71963 0.885721 4.98434C2.56827 0.764792 5.965 0 22.2314 0C30.5228 0 33.4132 0.327018 35.5546 1.4452C38.1918 2.79545 39.1412 5.07928 39.1412 10.0636V11.6038H29.6789C29.5839 9.552 29.4943 9.13533 28.9352 8.6659C28.2337 8.05934 25.4857 7.77979 19.5203 7.77979C13.5549 7.77979 11.8776 7.96968 10.9493 8.71337C9.83116 9.64694 9.45668 11.4614 9.45668 16.1662C9.45668 24.1358 9.59381 24.2308 19.5678 24.2308C29.9584 24.2308 30.1166 24.1833 30.143 19.5682H39.6528Z" fill="white"/>
<path id="Vector_2" d="M49.0943 27.9124V17.2422V13.6081V4.10357H75.3716V0.469482H44.9434V31.5464H75.419V27.9124H49.0943Z" fill="white"/>
<path id="Vector_3" d="M74.3379 13.571H0V17.3317H74.3379V13.571Z" fill="url(#paint0_radial_196_3345)"/>
</g>
<defs>
<radialGradient id="paint0_radial_196_3345" cx="0" cy="0" r="1" gradientUnits="userSpaceOnUse" gradientTransform="translate(37.2178 11.0304) scale(26.2888 117.289)">
<stop stop-color="#FFFACB"/>
<stop offset="0.12" stop-color="#FAF1BA"/>
<stop offset="0.35" stop-color="#EED98D"/>
<stop offset="0.37" stop-color="#EDD688"/>
<stop offset="0.69" stop-color="#EABA10"/>
<stop offset="1" stop-color="#C2912E"/>
</radialGradient>
</defs>
</svg>
