<svg width="695" height="795" viewBox="0 0 695 795" fill="none" xmlns="http://www.w3.org/2000/svg">
<path d="M535.007 71.9112L327.683 50.4881V41.4304H535.007V71.9112Z" stroke="url(#paint0_linear_140_3712)" stroke-miterlimit="10"/>
<path d="M534.906 41.5261L507.755 68.7151L480.603 41.5261L458.393 63.873L435.356 41.5261L418.899 59.6521L400.389 41.5261L385.581 56.3604L371.594 41.5261L359.251 53.4721L347.735 41.5261L337.449 51.3112L328.399 41.5261" stroke="url(#paint1_linear_140_3712)" stroke-miterlimit="10"/>
<path d="M572.911 25.9219H539.593V316.331H572.911V25.9219Z" stroke="url(#paint2_linear_140_3712)" stroke-miterlimit="10"/>
<path d="M539.7 25.9219L572.816 62.1686L539.7 95.1235L572.503 126.018L539.7 158.559L572.503 191.105L539.7 224.055L572.503 259.07L539.7 290.788" stroke="url(#paint3_linear_140_3712)" stroke-miterlimit="10"/>
<path d="M540.007 1V19.949H572.503V15.006L540.007 1Z" stroke="url(#paint4_angular_140_3712)" stroke-miterlimit="10"/>
<path d="M578.028 41.0164V72.3201H641.376V64.4942L578.028 41.0164Z" stroke="url(#paint5_linear_140_3712)" stroke-miterlimit="10"/>
<path d="M322.397 104.043C319.667 113.913 309.179 109.294 309.391 103.624C309.603 97.9534 316.029 96.2704 316.029 96.2704V89.7346" stroke="url(#paint6_angular_140_3712)" stroke-miterlimit="10"/>
<path d="M315.891 54.4436C319.85 54.4436 323.06 51.2298 323.06 47.2654C323.06 43.3009 319.85 40.0872 315.891 40.0872C311.933 40.0872 308.723 43.3009 308.723 47.2654C308.723 51.2298 311.933 54.4436 315.891 54.4436Z" stroke="url(#paint7_angular_140_3712)" stroke-miterlimit="10"/>
<path d="M315.892 54.4436V80.9955" stroke="url(#paint8_angular_140_3712)" stroke-linecap="round" stroke-linejoin="round"/>
<path d="M307.26 89.7346H324.682V80.9955H307.26V89.7346Z" stroke="url(#paint9_angular_140_3712)" stroke-miterlimit="10"/>
<path d="M577.502 138.787H611.239V212.937H643.735" stroke="url(#paint10_linear_140_3712)" stroke-linecap="round" stroke-linejoin="round"/>
<g clip-path="url(#clip0_140_3712)">
<path d="M339.034 742.459L304.788 745.125V428.102L326.553 432.75M357.781 410.925L405.152 382.584L483.917 404.751M405.152 687.21V673.457M405.152 670.899V382.569M398.161 728.359V746.95L402.686 747.806M398.161 703.462V692.929M398.161 668.526V657.552M398.161 633.223V622.631M398.161 597.807V587.675M398.161 562.362V552.739M398.161 526.937V517.803M398.161 491.507V482.867M398.161 456.076V447.931M527.15 657.137V556.956M527.15 505.244V453.875M339.043 745.15L362.228 750.086V730.83M362.228 705.037V694.123M362.228 668.834V657.45M362.228 632.24V621.246M362.228 595.532V585.048M362.228 558.82V548.85M362.228 522.113V512.651M362.228 485.401V476.448M362.228 448.694V440.25M362.228 750.081L398.171 746.95M483.937 443.572L527.15 453.87M304.788 428.087L292.244 436.096V742.205L304.788 745.14M575.94 503.997L570.113 505.435V550.846M651.78 438.865L636.159 434.193V487.764L651.78 491.33M599.883 446.018L636.159 434.212M599.883 446.018V485.474M599.883 446.018V395.221M599.883 446.018L593.934 444.408V487.074M544.6 500.645V550.224M544.6 550.224L561.317 552.397M544.6 550.224L515.335 555.562V508.37M612.02 482.255V537.539L575.94 544.143M599.883 547.568L593.934 546.722V595.4M579.986 599.187L561.298 600.977M537.213 558.165L561.298 554.036M537.233 603.282V558.165M651.78 543.791L636.159 541.345V594.901L651.78 596.256M636.159 541.335L599.883 547.543V594.784M616.12 593.169V648.154M616.12 648.154L651.78 648.717M616.12 648.154L579.986 648.81M540.202 657.068V650.189M540.202 501.785V466.849M540.202 357.877V301.542M673.428 656.569V221.807M673.428 221.807L540.246 301.552M673.428 221.807L691.573 232.888M552.829 299.502V354.878M707.757 242.766L738.984 261.816V656.916M626.829 322.971L651.78 310.705M707.766 656.75V242.766M696.363 248.989L691.598 246.171M696.363 248.989V656.691M696.363 248.989L707.791 242.766M651.804 241.122L552.805 299.492L597.779 318.817M613.62 317.114L651.78 297.648M615.411 649.309L602.823 649.133M582.584 649.847L570.113 649.686M570.113 601.599L579.986 600.679M602.803 649.113L570.094 649.666V601.594M561.288 600.968V649.568L531.778 650.057V603.8M548.901 353.474V402.799L553.436 404.183M537.184 420.171L519.572 415.225M519.572 415.225L548.925 402.799M519.572 415.225V368.259M651.736 386.361L636.115 380.583V434.193M599.839 395.221L636.115 380.627M537.233 420.171L553.485 413.63M561.312 458.327L537.228 466.155V420.167M570.113 505.455L561.307 503.796M561.307 455.196L593.924 444.408M575.94 500.083L561.317 503.777M606.815 314.125V369.771L570.789 385.49M546.132 468.17L561.298 463.351M546.132 500.895V468.19M570.784 360.852L570.104 361.175V397.226M599.873 395.221L585.999 390.578V442.246M561.307 455.176L553.48 453.219L586.003 442.226M629.525 756.598L620.019 755.272M651.266 656.447V789.386M408.611 755.898L407.407 756.016M526.166 742.17L534.234 743.296V756.73M651.276 789.386L629.535 785.438V756.612M483.335 746.211L470.449 744.176L461.77 744.964L460.219 744.709L426.619 747.752L475.189 756.485M432.49 657.655V670.6M432.49 674.226V686.456M475.204 767.18L418.713 755.888M418.713 755.888L411.864 756.559M418.713 755.888V752.885L475.204 763.824M408.626 755.888L411.874 756.549M564.536 790.257L402.412 756.5M570.524 789.327L571.542 789.166L570.524 788.961M566.165 790.008L564.536 790.267M563.714 784.875L490.297 770.198L483.002 771.084L475.204 769.494M402.398 756.505V759.528L564.517 794.352M475.184 762.552L422.671 752.513L418.694 752.889M475.184 758.902L426.614 749.949M426.614 749.949L422.671 750.311M426.614 749.949V747.757M475.184 760.106L422.671 750.321V752.522M651.271 789.401L666.676 786.72M576.17 794.205L629.549 785.453M576.17 794.21L571.542 793.232L564.517 794.352M564.517 794.352V790.267M563.695 780.962L490.277 766.749L494.509 766.26L563.695 779.469M571.522 789.181V793.232M563.695 776.632L494.509 763.716V766.245M563.695 772.41L498.706 760.717" stroke="url(#paint11_linear_140_3712)" stroke-miterlimit="10"/>
<path d="M752.433 656.99V678.516M460.215 744.714V732.973M494.51 763.736L498.707 763.246V760.732L534.23 756.744M490.278 770.213V766.759M475.185 746.999L482.983 748.261M482.983 748.261L534.23 743.31M482.983 748.261V771.099M563.705 775.233L498.717 763.246M563.715 754.641L538.765 757.478L534.239 756.744M617.241 755.277L615.994 755.433M613.19 755.776L611.909 755.932M609.096 756.275L607.78 756.436M604.957 756.784L603.606 756.95M596.547 757.811L595.128 757.987M592.271 758.334L590.803 758.515M587.942 758.863L586.474 759.044M583.597 759.396L582.071 759.587M579.184 759.939L577.619 760.13M574.723 760.487L573.118 760.683M570.525 762.434L576.171 763.349L629.55 756.612M576.171 794.19V763.369M411.875 756.578V736.74M460.235 732.973L454.046 732.107M407.423 736.021L411.875 736.745M454.046 732.112L452.534 732.229M450.577 732.381L448.841 732.513M446.884 732.664L445.122 732.797M443.166 732.948L441.375 733.085M427.921 734.113L426.033 734.259M424.037 734.411L422.119 734.558M420.118 734.709L418.161 734.856M412.173 735.316L410.177 735.468M408.162 735.624L407.447 735.678M411.899 736.745L460.259 732.978M461.81 696.843V744.988M524.377 742.366V701.216M470.489 697.449V744.201M538.799 757.488V702.229L563.749 703.971M600.016 757.415V751.578M685.845 697.303L666.721 698.281V786.71M676.657 698.805V788.442L685.845 786.798M685.845 698.31L676.657 698.8L666.721 698.276M666.677 786.71L676.613 788.442M439.34 675.243V686.27M439.34 730.301V733.237M435.113 733.56V730.541M435.113 686.402V675.15L439.34 675.277M414.389 657.631L431.488 657.533H432.437M432.437 686.486V674.255M431.488 733.848V730.864M431.488 686.51V674.23M414.385 735.125V732.337M414.385 687.038V673.722M414.385 670.786V657.577M431.483 671.134V657.499M434.599 670.576L617.628 674.358V677.582M580.838 675.018V678.404L617.628 677.577M401.841 670.933L580.838 675.028M401.841 673.364V670.918M617.628 674.362L580.838 675.023M432.432 671.138H431.483L415.079 670.776M694.132 790.232L690.683 790.878M694.132 680.238L690.683 680.336M690.683 790.903V680.36M685.791 680.233L689.245 680.135M690.674 680.36L685.781 680.233M690.674 790.903L685.781 790.051M702.249 788.745L698.878 789.371M702.293 680.023L698.922 680.121V789.362M694.03 680.253V679.994L697.4 679.896M698.907 680.121L694.015 679.994M698.907 789.362L694.142 788.554M710.228 787.258L706.931 787.869V679.871M710.228 679.798L706.931 679.891M702.038 679.998V679.749L705.336 679.656M706.911 679.871L702.019 679.749M706.911 787.869L702.258 787.097M717.972 785.815L714.753 786.412V679.666L717.972 679.578M709.861 679.788V679.548L713.085 679.455M714.729 679.666L709.837 679.548M714.729 786.412L710.184 785.673M725.541 784.401L722.39 784.988M725.575 679.382L722.424 679.475M722.424 785.012V679.45L717.566 679.333M717.566 679.563V679.333M717.566 679.333L720.717 679.24M722.424 785.007L717.982 784.298M732.996 783.041L729.919 783.613V679.235L725.066 679.118M732.996 679.167L729.919 679.255M725.066 679.348V679.118M725.066 679.118L728.148 679.035M729.919 783.589L725.575 782.909M740.252 781.666L737.238 782.224M740.256 678.942L737.243 679.03V782.229M732.399 679.132V678.893M732.399 678.893L735.413 678.81M732.399 678.893L737.243 679.01M737.243 782.209L732.996 781.563M747.355 780.33L744.42 780.878V678.824M747.355 678.722L744.42 678.805M739.586 678.927V678.712L742.522 678.629M744.405 678.824L739.572 678.712M744.405 780.898L740.252 780.277M754.297 779.058L751.416 779.597V678.624L754.297 678.541M746.592 678.722V678.516L749.478 678.433M751.435 678.624L746.611 678.516M751.435 779.597L747.37 778.995M761.117 777.791L758.299 778.32M758.299 778.32V678.428M758.299 778.32L754.317 777.742M761.117 678.35L758.299 678.428M758.299 678.428L753.485 678.32M753.485 678.526V678.32M753.485 678.32L756.308 678.242M767.775 678.159V776.554L765.011 777.067L761.097 776.519M767.775 678.159L765.011 678.237M767.775 678.159L762.976 678.056L760.212 678.134M765.011 678.237V777.062M765.011 678.237L760.212 678.134M760.212 678.33V678.134M534.489 687.445L621.943 691.432L619.404 691.535M532.023 687.523L534.469 687.445M619.384 691.535L532.004 687.523M621.923 749.034V691.432M619.379 749.342V691.535M531.999 687.621V687.508M617.877 691.613L615.314 691.716L528.061 687.665M528.061 687.665L530.546 687.586M528.061 687.665V687.782M615.314 749.797V691.696M613.797 691.779L611.209 691.882M524.088 687.792L526.598 687.714M611.233 691.882L524.113 687.792M611.233 750.287V691.862M524.113 687.89V687.772M609.727 691.926L607.104 692.029L520.125 687.9L522.66 687.816M607.104 750.742V692.034M520.125 688.022V687.904M605.51 692.102L602.863 692.21L516.031 688.037L518.584 687.953M602.863 751.236V692.2M516.031 688.149V688.027M601.297 692.263L598.621 692.371M598.621 692.371L511.941 688.154M598.621 692.371V751.715M511.941 688.154L514.519 688.076M511.941 688.154V688.276M597.066 692.435L594.36 692.542L507.841 688.286L510.444 688.203M594.36 752.209V692.523M507.841 688.389V688.266M592.741 692.591L590.006 692.704M503.668 688.418L506.295 688.335M503.668 688.418L590.021 692.738M503.668 688.418V688.545M590.021 752.703V692.718M588.401 692.782L585.637 692.895L499.465 688.55M585.623 753.207V692.895M583.993 692.958L581.195 693.071L495.209 688.668M581.195 753.745V693.081" stroke="url(#paint12_linear_140_3712)" stroke-miterlimit="10"/>
<path d="M579.546 693.139L576.718 693.252M576.718 693.252L490.948 688.819M576.718 693.252V754.235M575.05 693.32L572.193 693.438M572.193 693.438L486.579 688.956M572.193 693.438V754.753M570.505 693.501L567.619 693.619M567.619 693.619L482.24 689.093M567.619 693.619V791.162M567.619 791.162L570.505 790.702M567.619 791.162L566.151 790.854M482.23 689.279L430.372 686.515V686.628M432.593 730.996V690.444M492.709 691.319V691.261M491.207 691.261L492.709 691.344L493.365 691.319M425.079 686.681L422.633 686.75L482.249 690.008M424.834 731.593V690.008M422.633 686.882V686.72M484.539 691.613V690.815M484.539 691.613L483.008 691.525M484.539 691.613L487.132 691.525M444.139 686.153L441.781 686.217L491.926 688.785M444.036 730.155V691.124M441.795 686.3V686.187M484.035 689.02L434.227 686.393V686.505M436.453 730.698V690.664M463.434 690.796L466.149 690.708M402.711 687.283L463.434 690.82M404.844 756.573V688.746M463.414 690.801V692.327L466.129 692.234M453.811 729.435V691.765M502.078 688.492L451.551 685.962L449.227 686.026L499.666 688.565M451.482 729.631V691.613M449.227 686.124V686.016M428.953 686.564L426.507 686.632L482.235 689.641M428.718 731.295V690.199M426.507 686.73V686.613M488.639 691.451V691.026M488.639 691.451L487.122 691.368M488.639 691.451L491.207 691.363M487.973 688.907L438.004 686.3V686.412M440.235 730.429V690.903M417.241 686.862L414.746 686.931M476.198 690.356L478.839 690.272M414.751 686.911L476.203 690.336M416.928 732.146V689.485M414.746 687.039V686.916M476.198 691.867V690.36M476.198 691.867L474.642 691.774M476.198 691.867L478.839 691.774M413.274 686.975L410.759 687.043M410.759 687.043L471.976 690.517M410.759 687.043V687.171M471.976 690.517L474.642 690.434M471.976 690.517V692.034M412.931 732.439V689.24M471.976 692.034L470.4 691.936M471.976 692.034L474.642 691.941M409.277 687.087L406.738 687.156M467.715 690.659L470.4 690.571M406.738 687.146L467.715 690.649M408.9 732.723V688.981M406.738 687.268V687.141M467.715 690.644V692.166L466.125 692.068M470.4 692.102L467.715 692.195M421.175 686.779L418.699 686.843M480.381 690.267L482.24 690.209M418.699 686.853L480.381 690.277M420.891 731.891V689.759M418.699 686.985V686.862M480.381 691.755V690.258M480.381 691.755L478.839 691.667M480.381 691.755L482.998 691.667M447.852 686.055L445.514 686.119L495.796 688.677M447.759 729.895V691.368M445.514 686.231V686.124M571.875 754.724V762.64M571.875 762.64L570.505 762.415M571.875 762.64L573.098 762.483M576.391 754.2V762.062M576.391 762.062L574.703 761.788M576.391 762.062L577.599 761.911M580.852 753.667V761.495M580.852 761.495L579.165 761.226M580.852 761.495L582.051 761.343M585.255 753.149V760.942M585.255 760.942L583.563 760.678M585.255 760.942L586.439 760.795M589.624 752.625V760.38M589.624 760.38L587.931 760.12M589.624 760.38L590.793 760.233M593.944 752.126V759.841M593.944 759.841L592.246 759.582M593.944 759.841L595.104 759.699M598.22 751.632V759.308M598.22 759.308L596.522 759.054M598.22 759.308L599.365 759.166M602.447 751.143V758.785M602.447 758.785L600.749 758.53M602.447 758.785L603.582 758.643M606.63 750.658V758.261M606.63 758.261L604.932 758.012M606.63 758.261L607.755 758.119M610.773 750.179V757.747M610.773 757.747L609.071 757.498M610.773 757.747L611.884 757.606M614.868 749.709V757.234M614.868 757.234L613.166 756.989M614.868 757.234L615.969 757.097M618.924 749.24V756.73M618.924 756.73L617.216 756.485M618.924 756.73L620.01 756.593M420.989 731.847V735.316M436.487 730.707V734.132M440.289 730.438V733.863M444.056 730.184V733.574M447.793 729.91V733.286M409.042 732.708V736.221M428.816 731.275V734.7M424.927 731.544V734.998M451.521 729.587V732.948M432.676 730.991V734.416M417.075 732.141V735.644M413.088 732.454V735.947M402.579 703.907L398.176 703.491M357.571 705.884L402.579 703.927M326.569 725.859V702.459M326.569 702.459L339.049 701.97M326.569 702.459L357.571 705.845V731.123M402.579 728.051V703.868M398.176 668.516L402.579 668.594L357.571 668.971M326.569 691.75V668.35M326.569 668.35L339.049 668.257M326.569 668.35L357.571 668.991V694.274M402.579 692.797V673.384M402.579 670.938V668.619M402.579 657.523L357.571 657.396L326.569 657.616M339.058 657.65L326.569 657.616M326.569 657.616V634.216M402.569 633.34V657.523L398.166 657.552M357.561 657.396V632.112M402.569 622.249L357.561 620.517V595.234M402.569 622.249V598.071M402.569 622.249L398.166 622.616M339.049 623.918L326.569 623.482M326.569 623.482L357.571 620.517M326.569 623.482V600.082M357.561 583.639L402.569 586.976M339.049 590.18L326.569 589.363M326.569 589.363L357.571 583.654M326.569 589.363V565.953M402.569 586.99V562.798M402.569 586.98L398.166 587.675M357.561 583.644V558.36M357.561 546.765L402.569 551.707M339.049 556.452L326.569 555.219M326.569 555.219L357.571 546.765M326.569 555.219V531.819M402.555 551.692V527.524M402.555 551.707L398.152 552.739M357.546 546.765V521.487M357.546 509.892L402.555 516.433M339.034 522.715L326.569 521.086M326.569 521.086L357.571 509.892M326.569 521.086V497.686M402.569 492.255V516.433L398.166 517.803M357.561 509.892V484.608M339.049 488.987L326.569 486.952M326.569 486.952L357.571 473.014M326.569 486.952V463.557M402.569 481.169V456.981M398.166 482.867L402.569 481.159L357.561 473.014V447.735M357.561 436.14L402.569 445.89M339.034 455.249L326.554 452.803L357.556 436.12M326.569 429.423L357.571 410.856V436.14M402.579 421.708V445.89L398.176 447.931" stroke="url(#paint13_linear_140_3712)" stroke-miterlimit="10"/>
<path d="M483.937 657.366V443.571V404.736M339.034 745.145V742.459V727.997M339.034 702.557V701.975V692.748M339.034 668.35V668.242M339.034 633.355V623.918V623.428M339.034 598.159V590.185V589.206M339.034 562.905V556.452V554.985M339.034 527.656V522.715V520.758M339.034 492.382V488.958V486.546M339.034 457.162V455.205V452.378M537.233 558.165L527.15 556.956L515.345 555.542M515.345 508.37L527.15 505.244M636.169 487.764L612.031 482.255M636.169 541.335L612.031 537.534M593.929 546.697L575.936 544.138M599.878 485.474L612.016 482.255M575.941 544.138V504.021M561.318 552.377L570.124 550.846L593.944 546.697M561.327 601.002V554.035V552.377M636.179 594.901L616.121 593.169M602.823 649.138L579.986 648.81M579.986 596.765L593.915 595.376M579.986 599.187V596.741M651.78 648.717V596.256M552.805 650.341L582.584 649.852M691.574 232.888V246.171V656.667M570.114 649.69L561.308 649.578M552.795 650.341L540.213 650.189L531.798 650.092M531.798 603.8L537.223 603.282L561.308 600.977M570.114 361.175L552.805 354.878L548.95 353.474M519.597 368.278L540.203 357.877L548.931 353.474M546.118 468.19L540.203 466.849L537.214 466.169M561.298 458.341V455.191M651.78 333.939L626.83 322.946M636.149 380.627L606.796 369.771M585.984 390.578L570.769 385.49M570.769 332.853L597.78 318.817L606.82 314.12M570.794 385.49V360.852V332.853M593.934 444.398L586.009 442.255M553.485 404.193L570.119 397.236L586.014 390.587M553.485 453.239V413.611V404.183M403.837 756.363L402.687 756.475L402.393 756.505M651.271 656.452L673.404 656.569M483.331 746.216L475.185 746.989M475.185 769.494V767.18M600.764 757.292L599.971 757.39L599.379 757.464M439.344 733.198L437.559 733.335M435.573 733.486L435.118 733.521L433.738 733.628M431.747 733.78H431.507L429.888 733.902M416.097 734.993L414.37 735.125H414.125M524.318 701.182L470.43 697.415L461.751 696.808M432.471 657.66L483.937 657.376M432.432 671.143V670.605V657.503M402.555 673.384H401.841M434.619 670.605H432.49H432.451M402.574 670.928H401.86M694.152 790.242V788.55V680.253M685.835 790.042V786.798M689.289 680.145L694.054 680.272H694.166M702.292 788.735V787.096V680.023M697.4 679.896L702.058 680.018H702.292M710.218 787.258V785.673V679.798M705.326 679.675L709.875 679.788H710.198M717.962 785.805V784.269V679.573M713.099 679.45L717.546 679.558H717.962M725.555 784.381V782.914V679.382M720.697 679.265L725.046 679.372H725.535M732.957 783.036V781.598V679.147M728.109 679.035L732.36 679.132H732.957M740.217 781.656V780.262V678.942M735.374 678.829L739.537 678.927H740.217M747.316 780.335V778.98V678.741M742.487 678.629L746.557 678.721H747.316M754.263 779.014V777.698V678.54M749.444 678.433L752.379 678.501M761.048 777.816V776.544V678.35M756.239 678.242L760.153 678.33H761.058M621.874 749.015L619.981 749.23L619.335 749.308L618.894 749.249L617.833 749.108M530.546 687.567L532.013 687.635L617.877 691.613V749.147V749.518M615.984 749.734L615.313 749.812L614.883 749.758L613.797 749.611M526.597 687.699L528.065 687.767L613.802 691.764M613.802 749.983V749.607V691.76M611.903 750.189L611.214 750.267L610.793 750.208L609.682 750.061M609.682 750.061V750.443M609.682 750.061V691.926L524.068 687.89L522.601 687.816M607.774 750.663L607.06 750.742L606.649 750.688L605.514 750.531M518.584 687.944L520.052 688.017L605.509 692.102V750.541V750.932M603.596 751.152L602.863 751.236L602.461 751.182L601.297 751.02M514.519 688.076L516.03 688.149L601.297 692.263V751.011V751.407M598.621 751.715L598.235 751.661" stroke="url(#paint14_linear_140_3712)" stroke-miterlimit="10"/>
<path d="M598.234 751.661L597.04 751.495M510.418 688.188L511.94 688.262L597.065 692.42M597.065 751.882V751.48V692.435M595.142 752.121L594.36 752.214L593.983 752.16L592.765 751.989M506.28 688.335L507.816 688.408L592.74 692.591V751.97V752.376M590.783 752.596L589.981 752.689L589.614 752.64L588.362 752.459M588.386 692.782L503.653 688.545L502.107 688.467H502.072M588.386 752.889V752.474V692.787M586.454 753.119L585.622 753.212L585.27 753.163L583.993 752.977M499.45 688.678V688.648V688.55M499.45 688.678L497.889 688.599M499.45 688.678L583.993 692.958V752.987V753.413M497.889 688.614L495.796 688.678H495.209V688.756V688.815M582.036 753.623L581.18 753.726L580.837 753.672L579.531 753.481M493.628 688.726L495.209 688.81L579.546 693.134M493.653 688.731L491.926 688.785L490.947 688.819V688.859V688.951M579.546 753.907V753.476V693.139M577.589 754.132L576.708 754.235L576.381 754.186L575.04 753.985M490.947 688.951L489.353 688.868M490.947 688.951L575.094 693.32V753.985V754.426M486.647 688.956L488.017 688.912L489.377 688.868M573.137 754.651L572.232 754.753L571.914 754.709L570.544 754.504M486.642 689.088V688.961M485.033 689.01L486.642 689.093L570.544 693.496M482.278 689.093H482.572M563.734 789.513V784.89M570.544 790.712V789.342M482.239 689.279V689.093M482.997 690.718L482.239 690.674M435.014 730.815V730.512V690.59M482.533 689.084L434.197 686.52L432.784 686.447M431.159 730.791L431.477 730.835M433.708 730.913L435.01 730.815M427.28 731.388V731.07V690.116M482.234 689.759L426.512 686.721L425.078 686.642M487.122 691.495V691.358V690.933M423.371 731.339L423.982 731.427L424.824 731.554M425.978 731.466L427.285 731.373M446.364 729.969V729.675V691.27M495.194 688.741L445.513 686.231L444.129 686.158M442.617 729.984L443.106 730.047L444.006 730.174M445.078 730.096L446.374 730.003M438.825 730.556V730.262V690.85M486.598 688.986L437.999 686.442L436.595 686.368L435.088 686.407L434.197 686.432M435.01 730.536H435.088M437.534 730.649L438.83 730.551M407.403 756.339V756.035M466.109 690.727L406.723 687.303L405.23 687.215H405.138L402.691 687.278M466.129 692.249V692.102V690.732M402.687 756.475V747.806V687.264M450.107 729.421L450.552 729.48L451.477 729.607M452.514 729.528L453.806 729.436M431.164 731.099V730.791V690.356M482.239 689.406L430.381 686.628L428.958 686.549M491.216 691.368V691.236V691.177M427.294 731.07L427.877 731.158L428.733 731.28M429.873 731.197L431.174 731.099M442.627 691.055V729.964V730.257L441.33 730.355M490.938 688.859L441.78 686.314L440.391 686.241L439.329 686.27L438.013 686.305M438.84 730.238L439.329 730.306M419.438 731.965V731.637V689.656M478.849 690.316L418.709 686.97L417.241 686.887M478.839 691.814V691.672V690.316M415.45 731.926L416.111 732.024L416.928 732.146H417.075M415.475 732.263V731.931V689.402M414.408 687.043L413.298 686.98M474.666 691.946V691.799V690.439M411.444 732.219L412.129 732.327L412.931 732.444H413.063M411.444 732.219V732.562M411.444 732.219V689.167M470.4 690.571L410.759 687.146L409.291 687.063M470.4 692.102V691.95V690.586M407.403 732.523L408.117 732.63L408.9 732.753M410.133 732.664L411.444 732.567M423.371 731.686V731.368V689.891M482.239 690.131L422.622 686.858L421.155 686.779M482.978 691.672V691.53V690.737M419.408 731.657L420.044 731.755L420.871 731.877M422.045 731.789L423.351 731.691M450.087 729.734V729.45V691.515M499.431 688.648L449.202 686.109L447.832 686.041M446.364 729.69L446.854 729.754L447.768 729.881M448.825 729.802L450.117 729.705M573.108 754.656V760.693V762.473M577.608 754.156V760.159V761.935M574.712 754.489V760.517V761.813M582.051 753.643V759.616V761.378M579.164 753.975V759.969V761.26M586.454 753.139V759.073V760.83M583.577 753.491V759.445V760.732M590.808 752.655V758.564V760.306M587.946 752.968V758.892V760.174M595.118 752.141V758.012V759.748M592.261 752.464V758.359V759.631M599.379 751.647V757.488V759.215M596.537 751.975V757.845V759.112M603.596 751.172V756.984V758.701M600.763 751.495V757.327V758.589M607.769 750.693V756.471V758.149M604.937 750.986V756.789V758.041" stroke="url(#paint15_linear_140_3712)" stroke-miterlimit="10"/>
<path d="M611.899 750.189V755.937V757.659M609.085 750.536V756.304V757.552M615.984 749.724V755.448V757.136M613.18 750.047V755.79V757.028M620.029 749.259V755.301V756.632M617.236 749.582V755.291V756.524M422.065 731.769V734.538V735.233M420.064 731.735V734.67V735.159M437.534 730.624V733.344V734.034M435.548 730.58V733.516V734.005M441.321 730.38V733.09V733.775M439.364 730.35V733.286V733.775M445.103 730.164V732.865V733.55M443.146 730.125V733.026V733.516M448.85 729.92V732.611V733.198M446.893 729.773V732.664V733.154M410.201 732.694V735.492V736.202M408.186 732.66V735.649V736.138M429.932 731.246V733.99V734.685M427.936 731.207V734.142V734.631M426.047 731.539V734.298V734.993M424.051 731.5V734.435V734.925M452.583 729.582V732.219V732.894M450.626 729.47V732.351V732.841M433.709 730.913V733.648V734.338M431.717 730.869V733.804V734.294M418.112 732.077V734.856V735.561M416.106 732.043V735.013V735.502M414.149 732.381V735.169V735.874M412.139 732.351V735.326V735.815M398.171 728.403L402.574 728.105M326.569 725.859L339.049 727.978L357.571 731.123M362.233 694.098L357.571 694.25L339.049 692.743L326.569 691.73M357.571 632.093L362.233 632.22M326.569 634.177L339.034 633.394L357.556 632.137M357.556 595.263L362.218 595.557M326.554 600.107L339.034 598.15L357.556 595.234M357.556 558.355L362.218 558.815M326.569 565.953L339.049 562.896L357.571 558.36M362.233 522.113L357.571 521.487L339.049 527.661L326.569 531.819M357.571 484.608L362.233 485.401M326.569 497.686L339.049 492.421L357.571 484.594M357.571 447.72L362.233 448.699M326.569 463.557L339.049 457.197L357.571 447.745M357.571 410.866L357.796 410.92L402.569 421.717M326.569 452.823V432.735V429.423M339.049 668.257V657.65V657.611" stroke="url(#paint16_linear_140_3712)" stroke-miterlimit="10"/>
<path d="M544.615 500.626L546.151 500.915L561.317 503.777V463.371V458.327M527.15 505.244L540.222 501.79L544.601 500.631M575.94 491.825L593.934 487.05L599.883 485.469M575.94 503.992V500.078V491.83M593.934 595.376L599.883 594.784L616.12 593.169M579.986 648.81V600.679V599.211M651.76 596.276V543.791M582.584 649.852L615.411 649.314L651.78 648.717M626.839 322.946L613.63 317.119L606.83 314.125M738.984 656.916L752.423 656.99M526.171 742.175L524.342 742.346L483.34 746.216M475.194 767.185V763.829M483.937 657.367L527.14 657.127M405.152 673.457L402.554 673.384M402.554 670.928L405.152 670.899L414.384 670.801H415.079M685.815 697.283V680.223M752.447 678.501H753.484H754.316M617.891 749.44L617.245 749.514L615.998 749.656M613.811 749.91L613.195 749.978L611.913 750.13M609.692 750.384L609.1 750.453L607.784 750.605M605.524 750.864L604.961 750.928L603.611 751.084M601.311 751.348L600.778 751.407L599.986 751.5L599.394 751.568L598.635 751.656M597.055 751.837L596.566 751.896L595.147 752.058M592.769 752.332L592.28 752.385L590.813 752.552M499.45 688.55H499.66L502.072 688.477M588.386 752.899L587.946 752.953L586.478 753.124M584.032 753.408L583.616 753.457L582.09 753.628M579.585 753.917L579.203 753.961L577.638 754.142M575.089 754.435L574.742 754.474L573.137 754.66M482.572 689.103L484.04 689.054L485.018 689.025M570.529 789.352V788.97M484.529 690.801L482.997 690.718M432.788 686.447H432.47H432.431H431.482L430.372 686.481M431.482 730.8L431.722 730.835L432.593 730.962H432.676L433.713 730.884M424.824 731.539H424.927L425.978 731.461M444.011 730.135H444.07L445.083 730.062M435.093 730.507L435.548 730.575L436.428 730.698H436.502L437.534 730.624M407.403 756.011V735.991M432.593 690.434L435.014 690.581M451.477 729.597H451.521L452.499 729.524M428.708 731.275H428.816L429.863 731.197M439.32 730.306L440.21 730.434H440.278L441.296 730.36M417.075 732.141L418.141 732.058L419.452 731.965M474.666 690.434L414.77 687.058H414.408M414.408 732.356L415.475 732.278M408.924 732.767H409.066L410.157 732.689M420.92 731.896H421.032L422.094 731.818M447.788 729.93H447.837L448.845 729.856M357.585 731.197L362.247 730.879L398.191 728.433M362.247 694.186L398.191 693.007L402.594 692.865M362.218 632.239L398.161 633.218L402.564 633.335M362.228 595.527L398.171 597.788L402.574 598.067M362.237 558.815L398.181 562.357L402.584 562.793M362.247 522.108L398.191 526.932L402.594 527.519M362.257 485.396L398.161 491.516L402.564 492.265M362.228 448.723L398.171 456.106L402.574 457.011M651.78 543.791V491.33V438.865M673.428 656.569L691.598 656.667M475.209 763.809V762.552M527.15 657.137L540.232 657.068L651.286 656.452M580.837 678.404L432.47 674.226M685.8 786.798V698.31V697.283M563.695 775.223V772.415V754.631M570.505 788.97V762.444M482.239 689.279V689.406V689.627V689.759V689.984V690.116M487.131 690.948L484.539 690.801M407.412 736.001V735.659M435.024 690.59L436.438 690.678L438.84 690.825M413.073 732.434L414.149 732.351H414.394M707.766 656.75L738.994 656.916M432.47 674.23H432.431M563.695 784.88V780.966M563.695 754.636V703.951V695.233M570.505 762.439V762.4M488.638 691.031L487.122 690.948M407.403 735.644V732.493V688.888M424.824 689.954L427.27 690.101M431.15 690.341L432.578 690.429M442.602 691.04L443.997 691.124L446.364 691.27" stroke="url(#paint17_linear_140_3712)" stroke-miterlimit="10"/>
<path d="M651.775 438.87V386.405" stroke="url(#paint18_linear_140_3712)" stroke-miterlimit="10"/>
<path d="M691.568 656.667L696.338 656.691" stroke="url(#paint19_linear_140_3712)" stroke-miterlimit="10"/>
<path d="M475.18 762.557V760.115" stroke="url(#paint20_linear_140_3712)" stroke-miterlimit="10"/>
<path d="M475.18 760.115V758.902" stroke="url(#paint21_linear_140_3712)" stroke-miterlimit="10"/>
<path d="M475.18 758.902V756.495" stroke="url(#paint22_linear_140_3712)" stroke-miterlimit="10"/>
<path d="M475.18 756.495V746.989" stroke="url(#paint23_linear_140_3712)" stroke-miterlimit="10"/>
<path d="M432.427 674.23L431.483 674.201" stroke="url(#paint24_linear_140_3712)" stroke-miterlimit="10"/>
<path d="M563.695 780.961V779.479" stroke="url(#paint25_linear_140_3712)" stroke-miterlimit="10"/>
<path d="M570.505 762.4V754.504" stroke="url(#paint26_linear_140_3712)" stroke-miterlimit="10"/>
<path d="M570.505 754.504V693.506" stroke="url(#paint27_linear_140_3712)" stroke-miterlimit="10"/>
<path d="M482.234 690.674V690.184" stroke="url(#paint28_linear_140_3712)" stroke-miterlimit="10"/>
<path d="M482.234 690.184V690.116" stroke="url(#paint29_linear_140_3712)" stroke-miterlimit="10"/>
<path d="M491.207 691.178L488.634 691.031" stroke="url(#paint30_linear_140_3712)" stroke-miterlimit="10"/>
<path d="M404.84 688.746L407.403 688.902" stroke="url(#paint31_linear_140_3712)" stroke-miterlimit="10"/>
<path d="M427.28 690.121L428.723 690.209" stroke="url(#paint32_linear_140_3712)" stroke-miterlimit="10"/>
<path d="M428.724 690.209L431.16 690.356" stroke="url(#paint33_linear_140_3712)" stroke-miterlimit="10"/>
<path d="M438.831 690.825L440.235 690.908" stroke="url(#paint34_linear_140_3712)" stroke-miterlimit="10"/>
<path d="M440.234 690.908L442.617 691.055" stroke="url(#paint35_linear_140_3712)" stroke-miterlimit="10"/>
<path d="M651.775 386.405V333.944" stroke="url(#paint36_linear_140_3712)" stroke-miterlimit="10"/>
<path d="M431.482 674.201L414.379 673.722" stroke="url(#paint37_linear_140_3712)" stroke-miterlimit="10"/>
<path d="M414.379 673.721L405.153 673.462" stroke="url(#paint38_linear_140_3712)" stroke-miterlimit="10"/>
<path d="M563.695 779.479V776.637" stroke="url(#paint39_linear_140_3712)" stroke-miterlimit="10"/>
<path d="M563.695 776.637V775.223" stroke="url(#paint40_linear_140_3712)" stroke-miterlimit="10"/>
<path d="M492.709 691.261L491.207 691.177" stroke="url(#paint41_linear_140_3712)" stroke-miterlimit="10"/>
<path d="M450.102 691.515L451.477 691.598" stroke="url(#paint42_linear_140_3712)" stroke-miterlimit="10"/>
<path d="M451.478 691.598L453.806 691.74" stroke="url(#paint43_linear_140_3712)" stroke-miterlimit="10"/>
<path d="M453.806 691.74L463.409 692.327" stroke="url(#paint44_linear_140_3712)" stroke-miterlimit="10"/>
<path d="M651.775 333.944V310.681" stroke="url(#paint45_linear_140_3712)" stroke-miterlimit="10"/>
<path d="M563.695 695.233L493.36 691.295" stroke="url(#paint46_linear_140_3712)" stroke-miterlimit="10"/>
<path d="M493.36 691.295L492.709 691.26" stroke="url(#paint47_linear_140_3712)" stroke-miterlimit="10"/>
<path d="M416.923 689.485L419.428 689.636" stroke="url(#paint48_linear_140_3712)" stroke-miterlimit="10"/>
<path d="M423.371 689.881L424.819 689.969" stroke="url(#paint49_linear_140_3712)" stroke-miterlimit="10"/>
<path d="M446.375 691.285L447.76 691.368" stroke="url(#paint50_linear_140_3712)" stroke-miterlimit="10"/>
<path d="M447.759 691.368L450.102 691.515" stroke="url(#paint51_linear_140_3712)" stroke-miterlimit="10"/>
<path d="M651.775 310.681V297.653" stroke="url(#paint52_linear_140_3712)" stroke-miterlimit="10"/>
<path d="M651.775 297.653V241.122" stroke="url(#paint53_linear_140_3712)" stroke-miterlimit="10"/>
<path d="M415.451 689.396L416.924 689.485" stroke="url(#paint54_linear_140_3712)" stroke-miterlimit="10"/>
<path d="M419.428 689.636L420.891 689.729" stroke="url(#paint55_linear_140_3712)" stroke-miterlimit="10"/>
<path d="M420.891 689.729L423.371 689.881" stroke="url(#paint56_linear_140_3712)" stroke-miterlimit="10"/>
<path d="M412.932 689.24L415.451 689.397" stroke="url(#paint57_linear_140_3712)" stroke-miterlimit="10"/>
<path d="M411.444 689.152L412.932 689.24" stroke="url(#paint58_linear_140_3712)" stroke-miterlimit="10"/>
<path d="M407.403 688.902L408.9 688.995" stroke="url(#paint59_linear_140_3712)" stroke-miterlimit="10"/>
<path d="M408.9 688.995L411.444 689.152" stroke="url(#paint60_linear_140_3712)" stroke-miterlimit="10"/>
<path d="M570.109 601.609L561.317 600.978" stroke="url(#paint61_linear_140_3712)" stroke-miterlimit="10"/>
</g>
<g clip-path="url(#clip1_140_3712)">
<path d="M126.27 552.459L129.104 544.43" stroke="url(#paint62_linear_140_3712)" stroke-miterlimit="10"/>
<path d="M126.27 746.098L129.104 749.031" stroke="url(#paint63_linear_140_3712)" stroke-miterlimit="10"/>
<path d="M129.104 749.031L151.114 747.624" stroke="url(#paint64_linear_140_3712)" stroke-miterlimit="10"/>
<path d="M126.27 746.098V552.459" stroke="url(#paint65_linear_140_3712)" stroke-miterlimit="10"/>
<path d="M129.104 749.031V544.43" stroke="url(#paint66_linear_140_3712)" stroke-miterlimit="10"/>
<path d="M129.104 544.43L151.114 548.282" stroke="url(#paint67_linear_140_3712)" stroke-miterlimit="10"/>
<path d="M172.426 538.619L187.104 514.862" stroke="url(#paint68_linear_140_3712)" stroke-miterlimit="10"/>
<path d="M187.104 514.862L222.404 522.804" stroke="url(#paint69_linear_140_3712)" stroke-miterlimit="10"/>
<path d="M187.104 751.119V514.862" stroke="url(#paint70_linear_140_3712)" stroke-miterlimit="10"/>
<path d="M187.104 751.119L222.404 748.609" stroke="url(#paint71_linear_140_3712)" stroke-miterlimit="10"/>
<path d="M185.388 750.243V541.108" stroke="url(#paint72_linear_140_3712)" stroke-miterlimit="10"/>
<path d="M185.388 750.243L187.104 751.119" stroke="url(#paint73_linear_140_3712)" stroke-miterlimit="10"/>
<path d="M291.73 742.803V721.745" stroke="url(#paint74_linear_140_3712)" stroke-miterlimit="10"/>
<path d="M151.113 749.042L155.61 752.326" stroke="url(#paint75_linear_140_3712)" stroke-miterlimit="10"/>
<path d="M155.61 752.326V535.4" stroke="url(#paint76_linear_140_3712)" stroke-miterlimit="10"/>
<path d="M151.113 544.398L155.61 535.4" stroke="url(#paint77_linear_140_3712)" stroke-miterlimit="10"/>
<path d="M155.61 752.326L185.388 750.243" stroke="url(#paint78_linear_140_3712)" stroke-miterlimit="10"/>
<path d="M252.506 553.975L271.47 557.611" stroke="url(#paint79_linear_140_3712)" stroke-miterlimit="10"/>
<path d="M252.506 745.546L291.73 742.803" stroke="url(#paint80_linear_140_3712)" stroke-miterlimit="10"/>
<path d="M271.47 557.61L285.16 565.542" stroke="url(#paint81_linear_140_3712)" stroke-miterlimit="10"/>
<path d="M291.73 721.745L285.16 720.912" stroke="url(#paint82_linear_140_3712)" stroke-miterlimit="10"/>
<path d="M271.47 722.546L285.16 720.912" stroke="url(#paint83_linear_140_3712)" stroke-miterlimit="10"/>
<path d="M271.47 722.546L291.73 721.745" stroke="url(#paint84_linear_140_3712)" stroke-miterlimit="10"/>
<path d="M285.16 565.542V720.912" stroke="url(#paint85_linear_140_3712)" stroke-miterlimit="10"/>
<path d="M271.47 557.61V722.546" stroke="url(#paint86_linear_140_3712)" stroke-miterlimit="10"/>
<path d="M245.682 528.042V746.953" stroke="url(#paint87_linear_140_3712)" stroke-miterlimit="10"/>
<path d="M245.682 528.042L252.505 529.578" stroke="url(#paint88_linear_140_3712)" stroke-miterlimit="10"/>
<path d="M245.682 746.953L252.505 746.466" stroke="url(#paint89_linear_140_3712)" stroke-miterlimit="10"/>
<path d="M237.293 746.921L244.046 746.445" stroke="url(#paint90_linear_140_3712)" stroke-miterlimit="10"/>
<path d="M244.046 529.643V746.445" stroke="url(#paint91_linear_140_3712)" stroke-miterlimit="10"/>
<path d="M237.293 528.145L244.046 529.643" stroke="url(#paint92_linear_140_3712)" stroke-miterlimit="10"/>
<path d="M245.682 746.953L244.046 746.445" stroke="url(#paint93_linear_140_3712)" stroke-miterlimit="10"/>
<path d="M245.682 528.042L244.046 529.643" stroke="url(#paint94_linear_140_3712)" stroke-miterlimit="10"/>
<path d="M231.441 524.839V747.965" stroke="url(#paint95_linear_140_3712)" stroke-miterlimit="10"/>
<path d="M231.441 524.839L237.293 526.153" stroke="url(#paint96_linear_140_3712)" stroke-miterlimit="10"/>
<path d="M231.441 747.965L237.293 747.548" stroke="url(#paint97_linear_140_3712)" stroke-miterlimit="10"/>
<path d="M222.404 524.611L230.086 526.321" stroke="url(#paint98_linear_140_3712)" stroke-miterlimit="10"/>
<path d="M222.404 748.035L230.086 747.494" stroke="url(#paint99_linear_140_3712)" stroke-miterlimit="10"/>
<path d="M230.086 526.321V747.494" stroke="url(#paint100_linear_140_3712)" stroke-miterlimit="10"/>
<path d="M231.441 524.839L230.086 526.321" stroke="url(#paint101_linear_140_3712)" stroke-miterlimit="10"/>
<path d="M231.441 747.965L230.086 747.494" stroke="url(#paint102_linear_140_3712)" stroke-miterlimit="10"/>
<path d="M252.506 746.466V745.546" stroke="url(#paint103_linear_140_3712)" stroke-miterlimit="10"/>
<path d="M151.113 749.042V747.624" stroke="url(#paint104_linear_140_3712)" stroke-miterlimit="10"/>
<path d="M155.61 535.4L172.426 538.619" stroke="url(#paint105_linear_140_3712)" stroke-miterlimit="10"/>
<path d="M172.426 538.619L185.388 541.108" stroke="url(#paint106_linear_140_3712)" stroke-miterlimit="10"/>
<path d="M237.293 747.548V746.921" stroke="url(#paint107_linear_140_3712)" stroke-miterlimit="10"/>
<path d="M222.404 748.609V748.035" stroke="url(#paint108_linear_140_3712)" stroke-miterlimit="10"/>
<path d="M252.506 745.547V553.975" stroke="url(#paint109_linear_140_3712)" stroke-miterlimit="10"/>
<path d="M252.506 553.975V529.578" stroke="url(#paint110_linear_140_3712)" stroke-miterlimit="10"/>
<path d="M151.113 747.624V548.283" stroke="url(#paint111_linear_140_3712)" stroke-miterlimit="10"/>
<path d="M151.113 548.283V544.398" stroke="url(#paint112_linear_140_3712)" stroke-miterlimit="10"/>
<path d="M237.293 746.921V528.145" stroke="url(#paint113_linear_140_3712)" stroke-miterlimit="10"/>
<path d="M237.293 528.144V526.153" stroke="url(#paint114_linear_140_3712)" stroke-miterlimit="10"/>
<path d="M222.404 748.035V524.611" stroke="url(#paint115_linear_140_3712)" stroke-miterlimit="10"/>
<path d="M222.404 524.611V522.804" stroke="url(#paint116_linear_140_3712)" stroke-miterlimit="10"/>
</g>
<g clip-path="url(#clip2_140_3712)">
<path d="M109.821 620.732L107.943 615.402" stroke="url(#paint117_linear_140_3712)" stroke-miterlimit="10"/>
<path d="M109.821 749.282L107.943 751.229" stroke="url(#paint118_linear_140_3712)" stroke-miterlimit="10"/>
<path d="M107.943 751.229L93.359 750.295" stroke="url(#paint119_linear_140_3712)" stroke-miterlimit="10"/>
<path d="M109.821 749.283V620.732" stroke="url(#paint120_linear_140_3712)" stroke-miterlimit="10"/>
<path d="M107.943 751.229V615.402" stroke="url(#paint121_linear_140_3712)" stroke-miterlimit="10"/>
<path d="M107.943 615.402L93.359 617.96" stroke="url(#paint122_linear_140_3712)" stroke-miterlimit="10"/>
<path d="M79.2354 611.544L69.5088 595.772" stroke="url(#paint123_linear_140_3712)" stroke-miterlimit="10"/>
<path d="M69.5088 595.772L46.1172 601.045" stroke="url(#paint124_linear_140_3712)" stroke-miterlimit="10"/>
<path d="M69.5088 752.616V595.772" stroke="url(#paint125_linear_140_3712)" stroke-miterlimit="10"/>
<path d="M69.5088 752.616L46.1172 750.949" stroke="url(#paint126_linear_140_3712)" stroke-miterlimit="10"/>
<path d="M70.6465 752.034V613.197" stroke="url(#paint127_linear_140_3712)" stroke-miterlimit="10"/>
<path d="M70.6465 752.034L69.5089 752.616" stroke="url(#paint128_linear_140_3712)" stroke-miterlimit="10"/>
<path d="M0.178864 747.095V733.115" stroke="url(#paint129_linear_140_3712)" stroke-miterlimit="10"/>
<path d="M93.3584 751.237L90.3786 753.417" stroke="url(#paint130_linear_140_3712)" stroke-miterlimit="10"/>
<path d="M90.3789 753.417V609.407" stroke="url(#paint131_linear_140_3712)" stroke-miterlimit="10"/>
<path d="M93.3584 615.381L90.3786 609.407" stroke="url(#paint132_linear_140_3712)" stroke-miterlimit="10"/>
<path d="M90.3789 753.417L70.6468 752.034" stroke="url(#paint133_linear_140_3712)" stroke-miterlimit="10"/>
<path d="M26.1711 621.738L13.6042 624.152" stroke="url(#paint134_linear_140_3712)" stroke-miterlimit="10"/>
<path d="M26.1711 748.916L0.178856 747.095" stroke="url(#paint135_linear_140_3712)" stroke-miterlimit="10"/>
<path d="M13.6045 624.152L4.53263 629.418" stroke="url(#paint136_linear_140_3712)" stroke-miterlimit="10"/>
<path d="M0.178848 733.115L4.53235 732.562" stroke="url(#paint137_linear_140_3712)" stroke-miterlimit="10"/>
<path d="M13.6045 733.647L4.53263 732.562" stroke="url(#paint138_linear_140_3712)" stroke-miterlimit="10"/>
<path d="M13.6045 733.647L0.179127 733.115" stroke="url(#paint139_linear_140_3712)" stroke-miterlimit="10"/>
<path d="M4.53235 629.418V732.562" stroke="url(#paint140_linear_140_3712)" stroke-miterlimit="10"/>
<path d="M13.6045 624.152V733.647" stroke="url(#paint141_linear_140_3712)" stroke-miterlimit="10"/>
<path d="M30.6924 604.522V749.85" stroke="url(#paint142_linear_140_3712)" stroke-miterlimit="10"/>
<path d="M30.6924 604.522L26.1708 605.542" stroke="url(#paint143_linear_140_3712)" stroke-miterlimit="10"/>
<path d="M30.6924 749.85L26.1708 749.527" stroke="url(#paint144_linear_140_3712)" stroke-miterlimit="10"/>
<path d="M36.252 749.829L31.7768 749.512" stroke="url(#paint145_linear_140_3712)" stroke-miterlimit="10"/>
<path d="M31.7766 605.585V749.512" stroke="url(#paint146_linear_140_3712)" stroke-miterlimit="10"/>
<path d="M36.252 604.591L31.7768 605.586" stroke="url(#paint147_linear_140_3712)" stroke-miterlimit="10"/>
<path d="M30.6927 749.85L31.7766 749.512" stroke="url(#paint148_linear_140_3712)" stroke-miterlimit="10"/>
<path d="M30.6927 604.522L31.7766 605.585" stroke="url(#paint149_linear_140_3712)" stroke-miterlimit="10"/>
<path d="M40.1299 602.396V750.522" stroke="url(#paint150_linear_140_3712)" stroke-miterlimit="10"/>
<path d="M40.1299 602.396L36.2522 603.269" stroke="url(#paint151_linear_140_3712)" stroke-miterlimit="10"/>
<path d="M40.1299 750.522L36.2522 750.245" stroke="url(#paint152_linear_140_3712)" stroke-miterlimit="10"/>
<path d="M46.1182 602.245L41.0278 603.38" stroke="url(#paint153_linear_140_3712)" stroke-miterlimit="10"/>
<path d="M46.1182 750.568L41.0278 750.209" stroke="url(#paint154_linear_140_3712)" stroke-miterlimit="10"/>
<path d="M41.0273 603.38V750.209" stroke="url(#paint155_linear_140_3712)" stroke-miterlimit="10"/>
<path d="M40.1294 602.396L41.0273 603.38" stroke="url(#paint156_linear_140_3712)" stroke-miterlimit="10"/>
<path d="M40.1294 750.522L41.0273 750.209" stroke="url(#paint157_linear_140_3712)" stroke-miterlimit="10"/>
<path d="M26.1711 749.527V748.916" stroke="url(#paint158_linear_140_3712)" stroke-miterlimit="10"/>
<path d="M93.3584 751.236V750.295" stroke="url(#paint159_linear_140_3712)" stroke-miterlimit="10"/>
<path d="M90.3789 609.407L79.2358 611.544" stroke="url(#paint160_linear_140_3712)" stroke-miterlimit="10"/>
<path d="M79.2354 611.544L70.6464 613.197" stroke="url(#paint161_linear_140_3712)" stroke-miterlimit="10"/>
<path d="M36.252 750.245V749.829" stroke="url(#paint162_linear_140_3712)" stroke-miterlimit="10"/>
<path d="M46.1182 750.949V750.568" stroke="url(#paint163_linear_140_3712)" stroke-miterlimit="10"/>
<path d="M26.1711 748.916V621.738" stroke="url(#paint164_linear_140_3712)" stroke-miterlimit="10"/>
<path d="M26.1711 621.738V605.542" stroke="url(#paint165_linear_140_3712)" stroke-miterlimit="10"/>
<path d="M93.3584 750.295V617.959" stroke="url(#paint166_linear_140_3712)" stroke-miterlimit="10"/>
<path d="M93.3584 617.96V615.381" stroke="url(#paint167_linear_140_3712)" stroke-miterlimit="10"/>
<path d="M36.252 749.829V604.591" stroke="url(#paint168_linear_140_3712)" stroke-miterlimit="10"/>
<path d="M36.252 604.591V603.269" stroke="url(#paint169_linear_140_3712)" stroke-miterlimit="10"/>
<path d="M46.1182 750.569V602.245" stroke="url(#paint170_linear_140_3712)" stroke-miterlimit="10"/>
<path d="M46.1182 602.245V601.045" stroke="url(#paint171_linear_140_3712)" stroke-miterlimit="10"/>
</g>
<defs>
<linearGradient id="paint0_linear_140_3712" x1="431.345" y1="41.4304" x2="431.345" y2="71.9112" gradientUnits="userSpaceOnUse">
<stop stop-color="#F1D16A"/>
<stop offset="1" stop-color="#71581D"/>
</linearGradient>
<linearGradient id="paint1_linear_140_3712" x1="431.653" y1="41.5261" x2="431.653" y2="68.7151" gradientUnits="userSpaceOnUse">
<stop stop-color="#F1D16A"/>
<stop offset="1" stop-color="#71581D"/>
</linearGradient>
<linearGradient id="paint2_linear_140_3712" x1="556.252" y1="25.9219" x2="556.252" y2="316.331" gradientUnits="userSpaceOnUse">
<stop stop-color="#F1D16A"/>
<stop offset="1" stop-color="#71581D"/>
</linearGradient>
<linearGradient id="paint3_linear_140_3712" x1="556.258" y1="25.9219" x2="556.258" y2="290.788" gradientUnits="userSpaceOnUse">
<stop stop-color="#F1D16A"/>
<stop offset="1" stop-color="#71581D"/>
</linearGradient>
<radialGradient id="paint4_angular_140_3712" cx="0" cy="0" r="1" gradientUnits="userSpaceOnUse" gradientTransform="translate(556.255 10.4745) rotate(90) scale(9.47448 16.248)">
<stop stop-color="#F1D16A"/>
<stop offset="1" stop-color="#71581D"/>
</radialGradient>
<linearGradient id="paint5_linear_140_3712" x1="609.702" y1="41.0164" x2="609.702" y2="72.3201" gradientUnits="userSpaceOnUse">
<stop stop-color="#F1D16A"/>
<stop offset="1" stop-color="#71581D"/>
</linearGradient>
<radialGradient id="paint6_angular_140_3712" cx="0" cy="0" r="1" gradientUnits="userSpaceOnUse" gradientTransform="translate(315.893 99.7712) rotate(90) scale(10.0366 6.50448)">
<stop stop-color="#F1D16A"/>
<stop offset="1" stop-color="#71581D"/>
</radialGradient>
<radialGradient id="paint7_angular_140_3712" cx="0" cy="0" r="1" gradientUnits="userSpaceOnUse" gradientTransform="translate(315.891 47.2654) rotate(90) scale(7.1782 7.1683)">
<stop stop-color="#F1D16A"/>
<stop offset="1" stop-color="#71581D"/>
</radialGradient>
<radialGradient id="paint8_angular_140_3712" cx="0" cy="0" r="1" gradientUnits="userSpaceOnUse" gradientTransform="translate(316.392 67.7196) rotate(90) scale(13.2759 0.5)">
<stop stop-color="#F1D16A"/>
<stop offset="1" stop-color="#71581D"/>
</radialGradient>
<radialGradient id="paint9_angular_140_3712" cx="0" cy="0" r="1" gradientUnits="userSpaceOnUse" gradientTransform="translate(315.971 85.365) rotate(-90) scale(4.36957 8.71117)">
<stop stop-color="#F1D16A"/>
<stop offset="1" stop-color="#71581D"/>
</radialGradient>
<linearGradient id="paint10_linear_140_3712" x1="610.619" y1="138.787" x2="610.619" y2="212.937" gradientUnits="userSpaceOnUse">
<stop stop-color="#F1D16A"/>
<stop offset="1" stop-color="#71581D"/>
</linearGradient>
<linearGradient id="paint11_linear_140_3712" x1="515.614" y1="221.807" x2="515.614" y2="794.352" gradientUnits="userSpaceOnUse">
<stop stop-color="#4E3607"/>
<stop offset="1" stop-color="#F6D66D"/>
</linearGradient>
<linearGradient id="paint12_linear_140_3712" x1="584.808" y1="656.99" x2="584.808" y2="794.19" gradientUnits="userSpaceOnUse">
<stop stop-color="#4E3607"/>
<stop offset="1" stop-color="#F6D66D"/>
</linearGradient>
<linearGradient id="paint13_linear_140_3712" x1="473.282" y1="410.856" x2="473.282" y2="791.162" gradientUnits="userSpaceOnUse">
<stop stop-color="#F6D66D"/>
<stop offset="1" stop-color="#4E3607"/>
</linearGradient>
<linearGradient id="paint14_linear_140_3712" x1="550.046" y1="232.888" x2="550.046" y2="790.242" gradientUnits="userSpaceOnUse">
<stop stop-color="#4E3607"/>
<stop offset="1" stop-color="#F6D66D"/>
</linearGradient>
<linearGradient id="paint15_linear_140_3712" x1="505.228" y1="686.041" x2="505.228" y2="790.712" gradientUnits="userSpaceOnUse">
<stop stop-color="#4E3607"/>
<stop offset="1" stop-color="#F6D66D"/>
</linearGradient>
<linearGradient id="paint16_linear_140_3712" x1="473.292" y1="410.866" x2="473.292" y2="757.659" gradientUnits="userSpaceOnUse">
<stop stop-color="#4E3607"/>
<stop offset="1" stop-color="#F6D66D"/>
</linearGradient>
<linearGradient id="paint17_linear_140_3712" x1="555.951" y1="314.125" x2="555.951" y2="789.352" gradientUnits="userSpaceOnUse">
<stop stop-color="#4E3607"/>
<stop offset="1" stop-color="#F6D66D"/>
</linearGradient>
<linearGradient id="paint18_linear_140_3712" x1="652.275" y1="386.405" x2="652.275" y2="438.87" gradientUnits="userSpaceOnUse">
<stop stop-color="#4E3607"/>
<stop offset="1" stop-color="#F6D66D"/>
</linearGradient>
<linearGradient id="paint19_linear_140_3712" x1="693.953" y1="656.667" x2="693.953" y2="656.691" gradientUnits="userSpaceOnUse">
<stop stop-color="#4E3607"/>
<stop offset="1" stop-color="#F6D66D"/>
</linearGradient>
<linearGradient id="paint20_linear_140_3712" x1="475.68" y1="760.115" x2="475.68" y2="762.557" gradientUnits="userSpaceOnUse">
<stop stop-color="#4E3607"/>
<stop offset="1" stop-color="#F6D66D"/>
</linearGradient>
<linearGradient id="paint21_linear_140_3712" x1="475.68" y1="758.902" x2="475.68" y2="760.115" gradientUnits="userSpaceOnUse">
<stop stop-color="#4E3607"/>
<stop offset="1" stop-color="#F6D66D"/>
</linearGradient>
<linearGradient id="paint22_linear_140_3712" x1="475.68" y1="756.495" x2="475.68" y2="758.902" gradientUnits="userSpaceOnUse">
<stop stop-color="#4E3607"/>
<stop offset="1" stop-color="#F6D66D"/>
</linearGradient>
<linearGradient id="paint23_linear_140_3712" x1="475.68" y1="746.989" x2="475.68" y2="756.495" gradientUnits="userSpaceOnUse">
<stop stop-color="#4E3607"/>
<stop offset="1" stop-color="#F6D66D"/>
</linearGradient>
<linearGradient id="paint24_linear_140_3712" x1="431.955" y1="674.201" x2="431.955" y2="674.23" gradientUnits="userSpaceOnUse">
<stop stop-color="#4E3607"/>
<stop offset="1" stop-color="#F6D66D"/>
</linearGradient>
<linearGradient id="paint25_linear_140_3712" x1="564.195" y1="779.479" x2="564.195" y2="780.961" gradientUnits="userSpaceOnUse">
<stop stop-color="#4E3607"/>
<stop offset="1" stop-color="#F6D66D"/>
</linearGradient>
<linearGradient id="paint26_linear_140_3712" x1="571.005" y1="754.504" x2="571.005" y2="762.4" gradientUnits="userSpaceOnUse">
<stop stop-color="#4E3607"/>
<stop offset="1" stop-color="#F6D66D"/>
</linearGradient>
<linearGradient id="paint27_linear_140_3712" x1="571.005" y1="693.506" x2="571.005" y2="754.504" gradientUnits="userSpaceOnUse">
<stop stop-color="#4E3607"/>
<stop offset="1" stop-color="#F6D66D"/>
</linearGradient>
<linearGradient id="paint28_linear_140_3712" x1="482.734" y1="690.184" x2="482.734" y2="690.674" gradientUnits="userSpaceOnUse">
<stop stop-color="#4E3607"/>
<stop offset="1" stop-color="#F6D66D"/>
</linearGradient>
<linearGradient id="paint29_linear_140_3712" x1="482.734" y1="690.116" x2="482.734" y2="690.184" gradientUnits="userSpaceOnUse">
<stop stop-color="#4E3607"/>
<stop offset="1" stop-color="#F6D66D"/>
</linearGradient>
<linearGradient id="paint30_linear_140_3712" x1="489.92" y1="691.031" x2="489.92" y2="691.178" gradientUnits="userSpaceOnUse">
<stop stop-color="#4E3607"/>
<stop offset="1" stop-color="#F6D66D"/>
</linearGradient>
<linearGradient id="paint31_linear_140_3712" x1="406.122" y1="688.746" x2="406.122" y2="688.902" gradientUnits="userSpaceOnUse">
<stop stop-color="#4E3607"/>
<stop offset="1" stop-color="#F6D66D"/>
</linearGradient>
<linearGradient id="paint32_linear_140_3712" x1="428.002" y1="690.121" x2="428.002" y2="690.209" gradientUnits="userSpaceOnUse">
<stop stop-color="#4E3607"/>
<stop offset="1" stop-color="#F6D66D"/>
</linearGradient>
<linearGradient id="paint33_linear_140_3712" x1="429.942" y1="690.209" x2="429.942" y2="690.356" gradientUnits="userSpaceOnUse">
<stop stop-color="#4E3607"/>
<stop offset="1" stop-color="#F6D66D"/>
</linearGradient>
<linearGradient id="paint34_linear_140_3712" x1="439.533" y1="690.825" x2="439.533" y2="690.908" gradientUnits="userSpaceOnUse">
<stop stop-color="#4E3607"/>
<stop offset="1" stop-color="#F6D66D"/>
</linearGradient>
<linearGradient id="paint35_linear_140_3712" x1="441.426" y1="690.908" x2="441.426" y2="691.055" gradientUnits="userSpaceOnUse">
<stop stop-color="#4E3607"/>
<stop offset="1" stop-color="#F6D66D"/>
</linearGradient>
<linearGradient id="paint36_linear_140_3712" x1="652.275" y1="333.944" x2="652.275" y2="386.405" gradientUnits="userSpaceOnUse">
<stop stop-color="#4E3607"/>
<stop offset="1" stop-color="#F6D66D"/>
</linearGradient>
<linearGradient id="paint37_linear_140_3712" x1="422.931" y1="673.722" x2="422.931" y2="674.201" gradientUnits="userSpaceOnUse">
<stop stop-color="#4E3607"/>
<stop offset="1" stop-color="#F6D66D"/>
</linearGradient>
<linearGradient id="paint38_linear_140_3712" x1="409.766" y1="673.462" x2="409.766" y2="673.721" gradientUnits="userSpaceOnUse">
<stop stop-color="#4E3607"/>
<stop offset="1" stop-color="#F6D66D"/>
</linearGradient>
<linearGradient id="paint39_linear_140_3712" x1="564.195" y1="776.637" x2="564.195" y2="779.479" gradientUnits="userSpaceOnUse">
<stop stop-color="#4E3607"/>
<stop offset="1" stop-color="#F6D66D"/>
</linearGradient>
<linearGradient id="paint40_linear_140_3712" x1="564.195" y1="775.223" x2="564.195" y2="776.637" gradientUnits="userSpaceOnUse">
<stop stop-color="#4E3607"/>
<stop offset="1" stop-color="#F6D66D"/>
</linearGradient>
<linearGradient id="paint41_linear_140_3712" x1="491.958" y1="691.177" x2="491.958" y2="691.261" gradientUnits="userSpaceOnUse">
<stop stop-color="#4E3607"/>
<stop offset="1" stop-color="#F6D66D"/>
</linearGradient>
<linearGradient id="paint42_linear_140_3712" x1="450.79" y1="691.515" x2="450.79" y2="691.598" gradientUnits="userSpaceOnUse">
<stop stop-color="#4E3607"/>
<stop offset="1" stop-color="#F6D66D"/>
</linearGradient>
<linearGradient id="paint43_linear_140_3712" x1="452.642" y1="691.598" x2="452.642" y2="691.74" gradientUnits="userSpaceOnUse">
<stop stop-color="#4E3607"/>
<stop offset="1" stop-color="#F6D66D"/>
</linearGradient>
<linearGradient id="paint44_linear_140_3712" x1="458.608" y1="691.74" x2="458.608" y2="692.327" gradientUnits="userSpaceOnUse">
<stop stop-color="#4E3607"/>
<stop offset="1" stop-color="#F6D66D"/>
</linearGradient>
<linearGradient id="paint45_linear_140_3712" x1="652.275" y1="310.681" x2="652.275" y2="333.944" gradientUnits="userSpaceOnUse">
<stop stop-color="#4E3607"/>
<stop offset="1" stop-color="#F6D66D"/>
</linearGradient>
<linearGradient id="paint46_linear_140_3712" x1="528.527" y1="691.295" x2="528.527" y2="695.233" gradientUnits="userSpaceOnUse">
<stop stop-color="#4E3607"/>
<stop offset="1" stop-color="#F6D66D"/>
</linearGradient>
<linearGradient id="paint47_linear_140_3712" x1="493.034" y1="691.26" x2="493.034" y2="691.295" gradientUnits="userSpaceOnUse">
<stop stop-color="#4E3607"/>
<stop offset="1" stop-color="#F6D66D"/>
</linearGradient>
<linearGradient id="paint48_linear_140_3712" x1="418.175" y1="689.485" x2="418.175" y2="689.636" gradientUnits="userSpaceOnUse">
<stop stop-color="#4E3607"/>
<stop offset="1" stop-color="#F6D66D"/>
</linearGradient>
<linearGradient id="paint49_linear_140_3712" x1="424.095" y1="689.881" x2="424.095" y2="689.969" gradientUnits="userSpaceOnUse">
<stop stop-color="#4E3607"/>
<stop offset="1" stop-color="#F6D66D"/>
</linearGradient>
<linearGradient id="paint50_linear_140_3712" x1="447.067" y1="691.285" x2="447.067" y2="691.368" gradientUnits="userSpaceOnUse">
<stop stop-color="#4E3607"/>
<stop offset="1" stop-color="#F6D66D"/>
</linearGradient>
<linearGradient id="paint51_linear_140_3712" x1="448.93" y1="691.368" x2="448.93" y2="691.515" gradientUnits="userSpaceOnUse">
<stop stop-color="#4E3607"/>
<stop offset="1" stop-color="#F6D66D"/>
</linearGradient>
<linearGradient id="paint52_linear_140_3712" x1="652.275" y1="297.653" x2="652.275" y2="310.681" gradientUnits="userSpaceOnUse">
<stop stop-color="#4E3607"/>
<stop offset="1" stop-color="#F6D66D"/>
</linearGradient>
<linearGradient id="paint53_linear_140_3712" x1="652.275" y1="241.122" x2="652.275" y2="297.653" gradientUnits="userSpaceOnUse">
<stop stop-color="#4E3607"/>
<stop offset="1" stop-color="#F6D66D"/>
</linearGradient>
<linearGradient id="paint54_linear_140_3712" x1="416.187" y1="689.396" x2="416.187" y2="689.485" gradientUnits="userSpaceOnUse">
<stop stop-color="#4E3607"/>
<stop offset="1" stop-color="#F6D66D"/>
</linearGradient>
<linearGradient id="paint55_linear_140_3712" x1="420.159" y1="689.636" x2="420.159" y2="689.729" gradientUnits="userSpaceOnUse">
<stop stop-color="#4E3607"/>
<stop offset="1" stop-color="#F6D66D"/>
</linearGradient>
<linearGradient id="paint56_linear_140_3712" x1="422.131" y1="689.729" x2="422.131" y2="689.881" gradientUnits="userSpaceOnUse">
<stop stop-color="#4E3607"/>
<stop offset="1" stop-color="#F6D66D"/>
</linearGradient>
<linearGradient id="paint57_linear_140_3712" x1="414.191" y1="689.24" x2="414.191" y2="689.397" gradientUnits="userSpaceOnUse">
<stop stop-color="#4E3607"/>
<stop offset="1" stop-color="#F6D66D"/>
</linearGradient>
<linearGradient id="paint58_linear_140_3712" x1="412.188" y1="689.152" x2="412.188" y2="689.24" gradientUnits="userSpaceOnUse">
<stop stop-color="#4E3607"/>
<stop offset="1" stop-color="#F6D66D"/>
</linearGradient>
<linearGradient id="paint59_linear_140_3712" x1="408.152" y1="688.902" x2="408.152" y2="688.995" gradientUnits="userSpaceOnUse">
<stop stop-color="#4E3607"/>
<stop offset="1" stop-color="#F6D66D"/>
</linearGradient>
<linearGradient id="paint60_linear_140_3712" x1="410.172" y1="688.995" x2="410.172" y2="689.152" gradientUnits="userSpaceOnUse">
<stop stop-color="#4E3607"/>
<stop offset="1" stop-color="#F6D66D"/>
</linearGradient>
<linearGradient id="paint61_linear_140_3712" x1="565.713" y1="600.978" x2="565.713" y2="601.609" gradientUnits="userSpaceOnUse">
<stop stop-color="#4E3607"/>
<stop offset="1" stop-color="#F6D66D"/>
</linearGradient>
<linearGradient id="paint62_linear_140_3712" x1="127.687" y1="544.43" x2="127.687" y2="552.459" gradientUnits="userSpaceOnUse">
<stop stop-color="#4E3607"/>
<stop offset="1" stop-color="#F6D66D"/>
</linearGradient>
<linearGradient id="paint63_linear_140_3712" x1="127.687" y1="746.098" x2="127.687" y2="749.031" gradientUnits="userSpaceOnUse">
<stop stop-color="#4E3607"/>
<stop offset="1" stop-color="#F6D66D"/>
</linearGradient>
<linearGradient id="paint64_linear_140_3712" x1="140.109" y1="747.624" x2="140.109" y2="749.031" gradientUnits="userSpaceOnUse">
<stop stop-color="#4E3607"/>
<stop offset="1" stop-color="#F6D66D"/>
</linearGradient>
<linearGradient id="paint65_linear_140_3712" x1="126.77" y1="552.459" x2="126.77" y2="746.098" gradientUnits="userSpaceOnUse">
<stop stop-color="#4E3607"/>
<stop offset="1" stop-color="#F6D66D"/>
</linearGradient>
<linearGradient id="paint66_linear_140_3712" x1="129.604" y1="544.43" x2="129.604" y2="749.031" gradientUnits="userSpaceOnUse">
<stop stop-color="#4E3607"/>
<stop offset="1" stop-color="#F6D66D"/>
</linearGradient>
<linearGradient id="paint67_linear_140_3712" x1="140.109" y1="544.43" x2="140.109" y2="548.282" gradientUnits="userSpaceOnUse">
<stop stop-color="#4E3607"/>
<stop offset="1" stop-color="#F6D66D"/>
</linearGradient>
<linearGradient id="paint68_linear_140_3712" x1="179.765" y1="514.862" x2="179.765" y2="538.619" gradientUnits="userSpaceOnUse">
<stop stop-color="#4E3607"/>
<stop offset="1" stop-color="#F6D66D"/>
</linearGradient>
<linearGradient id="paint69_linear_140_3712" x1="204.754" y1="514.862" x2="204.754" y2="522.804" gradientUnits="userSpaceOnUse">
<stop stop-color="#4E3607"/>
<stop offset="1" stop-color="#F6D66D"/>
</linearGradient>
<linearGradient id="paint70_linear_140_3712" x1="187.604" y1="514.862" x2="187.604" y2="751.119" gradientUnits="userSpaceOnUse">
<stop stop-color="#4E3607"/>
<stop offset="1" stop-color="#F6D66D"/>
</linearGradient>
<linearGradient id="paint71_linear_140_3712" x1="204.754" y1="748.609" x2="204.754" y2="751.119" gradientUnits="userSpaceOnUse">
<stop stop-color="#4E3607"/>
<stop offset="1" stop-color="#F6D66D"/>
</linearGradient>
<linearGradient id="paint72_linear_140_3712" x1="185.888" y1="541.108" x2="185.888" y2="750.243" gradientUnits="userSpaceOnUse">
<stop stop-color="#4E3607"/>
<stop offset="1" stop-color="#F6D66D"/>
</linearGradient>
<linearGradient id="paint73_linear_140_3712" x1="186.246" y1="750.243" x2="186.246" y2="751.119" gradientUnits="userSpaceOnUse">
<stop stop-color="#4E3607"/>
<stop offset="1" stop-color="#F6D66D"/>
</linearGradient>
<linearGradient id="paint74_linear_140_3712" x1="292.23" y1="721.745" x2="292.23" y2="742.803" gradientUnits="userSpaceOnUse">
<stop stop-color="#4E3607"/>
<stop offset="1" stop-color="#F6D66D"/>
</linearGradient>
<linearGradient id="paint75_linear_140_3712" x1="153.362" y1="749.042" x2="153.362" y2="752.326" gradientUnits="userSpaceOnUse">
<stop stop-color="#4E3607"/>
<stop offset="1" stop-color="#F6D66D"/>
</linearGradient>
<linearGradient id="paint76_linear_140_3712" x1="156.11" y1="535.4" x2="156.11" y2="752.326" gradientUnits="userSpaceOnUse">
<stop stop-color="#4E3607"/>
<stop offset="1" stop-color="#F6D66D"/>
</linearGradient>
<linearGradient id="paint77_linear_140_3712" x1="153.362" y1="535.4" x2="153.362" y2="544.398" gradientUnits="userSpaceOnUse">
<stop stop-color="#4E3607"/>
<stop offset="1" stop-color="#F6D66D"/>
</linearGradient>
<linearGradient id="paint78_linear_140_3712" x1="170.499" y1="750.243" x2="170.499" y2="752.326" gradientUnits="userSpaceOnUse">
<stop stop-color="#4E3607"/>
<stop offset="1" stop-color="#F6D66D"/>
</linearGradient>
<linearGradient id="paint79_linear_140_3712" x1="261.988" y1="553.975" x2="261.988" y2="557.611" gradientUnits="userSpaceOnUse">
<stop stop-color="#4E3607"/>
<stop offset="1" stop-color="#F6D66D"/>
</linearGradient>
<linearGradient id="paint80_linear_140_3712" x1="272.118" y1="742.803" x2="272.118" y2="745.546" gradientUnits="userSpaceOnUse">
<stop stop-color="#4E3607"/>
<stop offset="1" stop-color="#F6D66D"/>
</linearGradient>
<linearGradient id="paint81_linear_140_3712" x1="278.315" y1="557.61" x2="278.315" y2="565.542" gradientUnits="userSpaceOnUse">
<stop stop-color="#4E3607"/>
<stop offset="1" stop-color="#F6D66D"/>
</linearGradient>
<linearGradient id="paint82_linear_140_3712" x1="288.445" y1="720.912" x2="288.445" y2="721.745" gradientUnits="userSpaceOnUse">
<stop stop-color="#4E3607"/>
<stop offset="1" stop-color="#F6D66D"/>
</linearGradient>
<linearGradient id="paint83_linear_140_3712" x1="278.315" y1="720.912" x2="278.315" y2="722.546" gradientUnits="userSpaceOnUse">
<stop stop-color="#4E3607"/>
<stop offset="1" stop-color="#F6D66D"/>
</linearGradient>
<linearGradient id="paint84_linear_140_3712" x1="281.6" y1="721.745" x2="281.6" y2="722.546" gradientUnits="userSpaceOnUse">
<stop stop-color="#4E3607"/>
<stop offset="1" stop-color="#F6D66D"/>
</linearGradient>
<linearGradient id="paint85_linear_140_3712" x1="285.66" y1="565.542" x2="285.66" y2="720.912" gradientUnits="userSpaceOnUse">
<stop stop-color="#4E3607"/>
<stop offset="1" stop-color="#F6D66D"/>
</linearGradient>
<linearGradient id="paint86_linear_140_3712" x1="271.97" y1="557.61" x2="271.97" y2="722.546" gradientUnits="userSpaceOnUse">
<stop stop-color="#4E3607"/>
<stop offset="1" stop-color="#F6D66D"/>
</linearGradient>
<linearGradient id="paint87_linear_140_3712" x1="246.182" y1="528.042" x2="246.182" y2="746.953" gradientUnits="userSpaceOnUse">
<stop stop-color="#4E3607"/>
<stop offset="1" stop-color="#F6D66D"/>
</linearGradient>
<linearGradient id="paint88_linear_140_3712" x1="249.093" y1="528.042" x2="249.093" y2="529.578" gradientUnits="userSpaceOnUse">
<stop stop-color="#4E3607"/>
<stop offset="1" stop-color="#F6D66D"/>
</linearGradient>
<linearGradient id="paint89_linear_140_3712" x1="249.093" y1="746.466" x2="249.093" y2="746.953" gradientUnits="userSpaceOnUse">
<stop stop-color="#4E3607"/>
<stop offset="1" stop-color="#F6D66D"/>
</linearGradient>
<linearGradient id="paint90_linear_140_3712" x1="240.67" y1="746.445" x2="240.67" y2="746.921" gradientUnits="userSpaceOnUse">
<stop stop-color="#4E3607"/>
<stop offset="1" stop-color="#F6D66D"/>
</linearGradient>
<linearGradient id="paint91_linear_140_3712" x1="244.546" y1="529.643" x2="244.546" y2="746.445" gradientUnits="userSpaceOnUse">
<stop stop-color="#4E3607"/>
<stop offset="1" stop-color="#F6D66D"/>
</linearGradient>
<linearGradient id="paint92_linear_140_3712" x1="240.67" y1="528.145" x2="240.67" y2="529.643" gradientUnits="userSpaceOnUse">
<stop stop-color="#4E3607"/>
<stop offset="1" stop-color="#F6D66D"/>
</linearGradient>
<linearGradient id="paint93_linear_140_3712" x1="244.864" y1="746.445" x2="244.864" y2="746.953" gradientUnits="userSpaceOnUse">
<stop stop-color="#4E3607"/>
<stop offset="1" stop-color="#F6D66D"/>
</linearGradient>
<linearGradient id="paint94_linear_140_3712" x1="244.864" y1="528.042" x2="244.864" y2="529.643" gradientUnits="userSpaceOnUse">
<stop stop-color="#4E3607"/>
<stop offset="1" stop-color="#F6D66D"/>
</linearGradient>
<linearGradient id="paint95_linear_140_3712" x1="231.941" y1="524.839" x2="231.941" y2="747.965" gradientUnits="userSpaceOnUse">
<stop stop-color="#4E3607"/>
<stop offset="1" stop-color="#F6D66D"/>
</linearGradient>
<linearGradient id="paint96_linear_140_3712" x1="234.367" y1="524.839" x2="234.367" y2="526.153" gradientUnits="userSpaceOnUse">
<stop stop-color="#4E3607"/>
<stop offset="1" stop-color="#F6D66D"/>
</linearGradient>
<linearGradient id="paint97_linear_140_3712" x1="234.367" y1="747.548" x2="234.367" y2="747.965" gradientUnits="userSpaceOnUse">
<stop stop-color="#4E3607"/>
<stop offset="1" stop-color="#F6D66D"/>
</linearGradient>
<linearGradient id="paint98_linear_140_3712" x1="226.245" y1="524.611" x2="226.245" y2="526.321" gradientUnits="userSpaceOnUse">
<stop stop-color="#4E3607"/>
<stop offset="1" stop-color="#F6D66D"/>
</linearGradient>
<linearGradient id="paint99_linear_140_3712" x1="226.245" y1="747.494" x2="226.245" y2="748.035" gradientUnits="userSpaceOnUse">
<stop stop-color="#4E3607"/>
<stop offset="1" stop-color="#F6D66D"/>
</linearGradient>
<linearGradient id="paint100_linear_140_3712" x1="230.586" y1="526.321" x2="230.586" y2="747.494" gradientUnits="userSpaceOnUse">
<stop stop-color="#4E3607"/>
<stop offset="1" stop-color="#F6D66D"/>
</linearGradient>
<linearGradient id="paint101_linear_140_3712" x1="230.764" y1="524.839" x2="230.764" y2="526.321" gradientUnits="userSpaceOnUse">
<stop stop-color="#4E3607"/>
<stop offset="1" stop-color="#F6D66D"/>
</linearGradient>
<linearGradient id="paint102_linear_140_3712" x1="230.764" y1="747.494" x2="230.764" y2="747.965" gradientUnits="userSpaceOnUse">
<stop stop-color="#4E3607"/>
<stop offset="1" stop-color="#F6D66D"/>
</linearGradient>
<linearGradient id="paint103_linear_140_3712" x1="253.006" y1="745.546" x2="253.006" y2="746.466" gradientUnits="userSpaceOnUse">
<stop stop-color="#4E3607"/>
<stop offset="1" stop-color="#F6D66D"/>
</linearGradient>
<linearGradient id="paint104_linear_140_3712" x1="151.613" y1="747.624" x2="151.613" y2="749.042" gradientUnits="userSpaceOnUse">
<stop stop-color="#4E3607"/>
<stop offset="1" stop-color="#F6D66D"/>
</linearGradient>
<linearGradient id="paint105_linear_140_3712" x1="164.018" y1="535.4" x2="164.018" y2="538.619" gradientUnits="userSpaceOnUse">
<stop stop-color="#4E3607"/>
<stop offset="1" stop-color="#F6D66D"/>
</linearGradient>
<linearGradient id="paint106_linear_140_3712" x1="178.907" y1="538.619" x2="178.907" y2="541.108" gradientUnits="userSpaceOnUse">
<stop stop-color="#4E3607"/>
<stop offset="1" stop-color="#F6D66D"/>
</linearGradient>
<linearGradient id="paint107_linear_140_3712" x1="237.793" y1="746.921" x2="237.793" y2="747.548" gradientUnits="userSpaceOnUse">
<stop stop-color="#4E3607"/>
<stop offset="1" stop-color="#F6D66D"/>
</linearGradient>
<linearGradient id="paint108_linear_140_3712" x1="222.904" y1="748.035" x2="222.904" y2="748.609" gradientUnits="userSpaceOnUse">
<stop stop-color="#4E3607"/>
<stop offset="1" stop-color="#F6D66D"/>
</linearGradient>
<linearGradient id="paint109_linear_140_3712" x1="253.006" y1="553.975" x2="253.006" y2="745.547" gradientUnits="userSpaceOnUse">
<stop stop-color="#4E3607"/>
<stop offset="1" stop-color="#F6D66D"/>
</linearGradient>
<linearGradient id="paint110_linear_140_3712" x1="253.006" y1="529.578" x2="253.006" y2="553.975" gradientUnits="userSpaceOnUse">
<stop stop-color="#4E3607"/>
<stop offset="1" stop-color="#F6D66D"/>
</linearGradient>
<linearGradient id="paint111_linear_140_3712" x1="151.613" y1="548.283" x2="151.613" y2="747.624" gradientUnits="userSpaceOnUse">
<stop stop-color="#4E3607"/>
<stop offset="1" stop-color="#F6D66D"/>
</linearGradient>
<linearGradient id="paint112_linear_140_3712" x1="151.613" y1="544.398" x2="151.613" y2="548.283" gradientUnits="userSpaceOnUse">
<stop stop-color="#4E3607"/>
<stop offset="1" stop-color="#F6D66D"/>
</linearGradient>
<linearGradient id="paint113_linear_140_3712" x1="237.793" y1="528.145" x2="237.793" y2="746.921" gradientUnits="userSpaceOnUse">
<stop stop-color="#4E3607"/>
<stop offset="1" stop-color="#F6D66D"/>
</linearGradient>
<linearGradient id="paint114_linear_140_3712" x1="237.793" y1="526.153" x2="237.793" y2="528.144" gradientUnits="userSpaceOnUse">
<stop stop-color="#4E3607"/>
<stop offset="1" stop-color="#F6D66D"/>
</linearGradient>
<linearGradient id="paint115_linear_140_3712" x1="222.904" y1="524.611" x2="222.904" y2="748.035" gradientUnits="userSpaceOnUse">
<stop stop-color="#4E3607"/>
<stop offset="1" stop-color="#F6D66D"/>
</linearGradient>
<linearGradient id="paint116_linear_140_3712" x1="222.904" y1="522.804" x2="222.904" y2="524.611" gradientUnits="userSpaceOnUse">
<stop stop-color="#4E3607"/>
<stop offset="1" stop-color="#F6D66D"/>
</linearGradient>
<linearGradient id="paint117_linear_140_3712" x1="108.882" y1="615.402" x2="108.882" y2="620.732" gradientUnits="userSpaceOnUse">
<stop offset="0.151042" stop-color="#4E3607"/>
<stop offset="1" stop-color="#F6D66D"/>
</linearGradient>
<linearGradient id="paint118_linear_140_3712" x1="108.882" y1="749.282" x2="108.882" y2="751.229" gradientUnits="userSpaceOnUse">
<stop offset="0.151042" stop-color="#4E3607"/>
<stop offset="1" stop-color="#F6D66D"/>
</linearGradient>
<linearGradient id="paint119_linear_140_3712" x1="100.651" y1="750.295" x2="100.651" y2="751.229" gradientUnits="userSpaceOnUse">
<stop offset="0.151042" stop-color="#4E3607"/>
<stop offset="1" stop-color="#F6D66D"/>
</linearGradient>
<linearGradient id="paint120_linear_140_3712" x1="109.321" y1="620.732" x2="109.321" y2="749.283" gradientUnits="userSpaceOnUse">
<stop offset="0.151042" stop-color="#4E3607"/>
<stop offset="1" stop-color="#F6D66D"/>
</linearGradient>
<linearGradient id="paint121_linear_140_3712" x1="107.443" y1="615.402" x2="107.443" y2="751.229" gradientUnits="userSpaceOnUse">
<stop offset="0.151042" stop-color="#4E3607"/>
<stop offset="1" stop-color="#F6D66D"/>
</linearGradient>
<linearGradient id="paint122_linear_140_3712" x1="100.651" y1="615.402" x2="100.651" y2="617.96" gradientUnits="userSpaceOnUse">
<stop offset="0.151042" stop-color="#4E3607"/>
<stop offset="1" stop-color="#F6D66D"/>
</linearGradient>
<linearGradient id="paint123_linear_140_3712" x1="74.3721" y1="595.772" x2="74.3721" y2="611.544" gradientUnits="userSpaceOnUse">
<stop offset="0.151042" stop-color="#4E3607"/>
<stop offset="1" stop-color="#F6D66D"/>
</linearGradient>
<linearGradient id="paint124_linear_140_3712" x1="57.813" y1="595.772" x2="57.813" y2="601.045" gradientUnits="userSpaceOnUse">
<stop offset="0.151042" stop-color="#4E3607"/>
<stop offset="1" stop-color="#F6D66D"/>
</linearGradient>
<linearGradient id="paint125_linear_140_3712" x1="69.0088" y1="595.772" x2="69.0088" y2="752.616" gradientUnits="userSpaceOnUse">
<stop offset="0.151042" stop-color="#4E3607"/>
<stop offset="1" stop-color="#F6D66D"/>
</linearGradient>
<linearGradient id="paint126_linear_140_3712" x1="57.813" y1="750.949" x2="57.813" y2="752.616" gradientUnits="userSpaceOnUse">
<stop offset="0.151042" stop-color="#4E3607"/>
<stop offset="1" stop-color="#F6D66D"/>
</linearGradient>
<linearGradient id="paint127_linear_140_3712" x1="70.1465" y1="613.197" x2="70.1465" y2="752.034" gradientUnits="userSpaceOnUse">
<stop offset="0.151042" stop-color="#4E3607"/>
<stop offset="1" stop-color="#F6D66D"/>
</linearGradient>
<linearGradient id="paint128_linear_140_3712" x1="70.0777" y1="752.034" x2="70.0777" y2="752.616" gradientUnits="userSpaceOnUse">
<stop offset="0.151042" stop-color="#4E3607"/>
<stop offset="1" stop-color="#F6D66D"/>
</linearGradient>
<linearGradient id="paint129_linear_140_3712" x1="-0.321136" y1="733.115" x2="-0.321136" y2="747.095" gradientUnits="userSpaceOnUse">
<stop offset="0.151042" stop-color="#4E3607"/>
<stop offset="1" stop-color="#F6D66D"/>
</linearGradient>
<linearGradient id="paint130_linear_140_3712" x1="91.8685" y1="751.237" x2="91.8685" y2="753.417" gradientUnits="userSpaceOnUse">
<stop offset="0.151042" stop-color="#4E3607"/>
<stop offset="1" stop-color="#F6D66D"/>
</linearGradient>
<linearGradient id="paint131_linear_140_3712" x1="89.8789" y1="609.407" x2="89.8789" y2="753.417" gradientUnits="userSpaceOnUse">
<stop offset="0.151042" stop-color="#4E3607"/>
<stop offset="1" stop-color="#F6D66D"/>
</linearGradient>
<linearGradient id="paint132_linear_140_3712" x1="91.8685" y1="609.407" x2="91.8685" y2="615.381" gradientUnits="userSpaceOnUse">
<stop offset="0.151042" stop-color="#4E3607"/>
<stop offset="1" stop-color="#F6D66D"/>
</linearGradient>
<linearGradient id="paint133_linear_140_3712" x1="80.5129" y1="752.034" x2="80.5129" y2="753.417" gradientUnits="userSpaceOnUse">
<stop offset="0.151042" stop-color="#4E3607"/>
<stop offset="1" stop-color="#F6D66D"/>
</linearGradient>
<linearGradient id="paint134_linear_140_3712" x1="19.8876" y1="621.738" x2="19.8876" y2="624.152" gradientUnits="userSpaceOnUse">
<stop offset="0.151042" stop-color="#4E3607"/>
<stop offset="1" stop-color="#F6D66D"/>
</linearGradient>
<linearGradient id="paint135_linear_140_3712" x1="13.175" y1="747.095" x2="13.175" y2="748.916" gradientUnits="userSpaceOnUse">
<stop offset="0.151042" stop-color="#4E3607"/>
<stop offset="1" stop-color="#F6D66D"/>
</linearGradient>
<linearGradient id="paint136_linear_140_3712" x1="9.06856" y1="624.152" x2="9.06856" y2="629.418" gradientUnits="userSpaceOnUse">
<stop offset="0.151042" stop-color="#4E3607"/>
<stop offset="1" stop-color="#F6D66D"/>
</linearGradient>
<linearGradient id="paint137_linear_140_3712" x1="2.3556" y1="732.562" x2="2.3556" y2="733.115" gradientUnits="userSpaceOnUse">
<stop offset="0.151042" stop-color="#4E3607"/>
<stop offset="1" stop-color="#F6D66D"/>
</linearGradient>
<linearGradient id="paint138_linear_140_3712" x1="9.06856" y1="732.562" x2="9.06856" y2="733.647" gradientUnits="userSpaceOnUse">
<stop offset="0.151042" stop-color="#4E3607"/>
<stop offset="1" stop-color="#F6D66D"/>
</linearGradient>
<linearGradient id="paint139_linear_140_3712" x1="6.89181" y1="733.115" x2="6.89181" y2="733.647" gradientUnits="userSpaceOnUse">
<stop offset="0.151042" stop-color="#4E3607"/>
<stop offset="1" stop-color="#F6D66D"/>
</linearGradient>
<linearGradient id="paint140_linear_140_3712" x1="4.03235" y1="629.418" x2="4.03235" y2="732.562" gradientUnits="userSpaceOnUse">
<stop offset="0.151042" stop-color="#4E3607"/>
<stop offset="1" stop-color="#F6D66D"/>
</linearGradient>
<linearGradient id="paint141_linear_140_3712" x1="13.1045" y1="624.152" x2="13.1045" y2="733.647" gradientUnits="userSpaceOnUse">
<stop offset="0.151042" stop-color="#4E3607"/>
<stop offset="1" stop-color="#F6D66D"/>
</linearGradient>
<linearGradient id="paint142_linear_140_3712" x1="30.1924" y1="604.522" x2="30.1924" y2="749.85" gradientUnits="userSpaceOnUse">
<stop offset="0.151042" stop-color="#4E3607"/>
<stop offset="1" stop-color="#F6D66D"/>
</linearGradient>
<linearGradient id="paint143_linear_140_3712" x1="28.4316" y1="604.522" x2="28.4316" y2="605.542" gradientUnits="userSpaceOnUse">
<stop offset="0.151042" stop-color="#4E3607"/>
<stop offset="1" stop-color="#F6D66D"/>
</linearGradient>
<linearGradient id="paint144_linear_140_3712" x1="28.4316" y1="749.527" x2="28.4316" y2="749.85" gradientUnits="userSpaceOnUse">
<stop offset="0.151042" stop-color="#4E3607"/>
<stop offset="1" stop-color="#F6D66D"/>
</linearGradient>
<linearGradient id="paint145_linear_140_3712" x1="34.0144" y1="749.512" x2="34.0144" y2="749.829" gradientUnits="userSpaceOnUse">
<stop offset="0.151042" stop-color="#4E3607"/>
<stop offset="1" stop-color="#F6D66D"/>
</linearGradient>
<linearGradient id="paint146_linear_140_3712" x1="31.2766" y1="605.585" x2="31.2766" y2="749.512" gradientUnits="userSpaceOnUse">
<stop offset="0.151042" stop-color="#4E3607"/>
<stop offset="1" stop-color="#F6D66D"/>
</linearGradient>
<linearGradient id="paint147_linear_140_3712" x1="34.0144" y1="604.591" x2="34.0144" y2="605.586" gradientUnits="userSpaceOnUse">
<stop offset="0.151042" stop-color="#4E3607"/>
<stop offset="1" stop-color="#F6D66D"/>
</linearGradient>
<linearGradient id="paint148_linear_140_3712" x1="31.2346" y1="749.512" x2="31.2346" y2="749.85" gradientUnits="userSpaceOnUse">
<stop offset="0.151042" stop-color="#4E3607"/>
<stop offset="1" stop-color="#F6D66D"/>
</linearGradient>
<linearGradient id="paint149_linear_140_3712" x1="31.2346" y1="604.522" x2="31.2346" y2="605.585" gradientUnits="userSpaceOnUse">
<stop offset="0.151042" stop-color="#4E3607"/>
<stop offset="1" stop-color="#F6D66D"/>
</linearGradient>
<linearGradient id="paint150_linear_140_3712" x1="39.6299" y1="602.396" x2="39.6299" y2="750.522" gradientUnits="userSpaceOnUse">
<stop offset="0.151042" stop-color="#4E3607"/>
<stop offset="1" stop-color="#F6D66D"/>
</linearGradient>
<linearGradient id="paint151_linear_140_3712" x1="38.191" y1="602.396" x2="38.191" y2="603.269" gradientUnits="userSpaceOnUse">
<stop offset="0.151042" stop-color="#4E3607"/>
<stop offset="1" stop-color="#F6D66D"/>
</linearGradient>
<linearGradient id="paint152_linear_140_3712" x1="38.191" y1="750.245" x2="38.191" y2="750.522" gradientUnits="userSpaceOnUse">
<stop offset="0.151042" stop-color="#4E3607"/>
<stop offset="1" stop-color="#F6D66D"/>
</linearGradient>
<linearGradient id="paint153_linear_140_3712" x1="43.573" y1="602.245" x2="43.573" y2="603.38" gradientUnits="userSpaceOnUse">
<stop offset="0.151042" stop-color="#4E3607"/>
<stop offset="1" stop-color="#F6D66D"/>
</linearGradient>
<linearGradient id="paint154_linear_140_3712" x1="43.573" y1="750.209" x2="43.573" y2="750.568" gradientUnits="userSpaceOnUse">
<stop offset="0.151042" stop-color="#4E3607"/>
<stop offset="1" stop-color="#F6D66D"/>
</linearGradient>
<linearGradient id="paint155_linear_140_3712" x1="40.5273" y1="603.38" x2="40.5273" y2="750.209" gradientUnits="userSpaceOnUse">
<stop offset="0.151042" stop-color="#4E3607"/>
<stop offset="1" stop-color="#F6D66D"/>
</linearGradient>
<linearGradient id="paint156_linear_140_3712" x1="40.5784" y1="602.396" x2="40.5784" y2="603.38" gradientUnits="userSpaceOnUse">
<stop offset="0.151042" stop-color="#4E3607"/>
<stop offset="1" stop-color="#F6D66D"/>
</linearGradient>
<linearGradient id="paint157_linear_140_3712" x1="40.5784" y1="750.209" x2="40.5784" y2="750.522" gradientUnits="userSpaceOnUse">
<stop offset="0.151042" stop-color="#4E3607"/>
<stop offset="1" stop-color="#F6D66D"/>
</linearGradient>
<linearGradient id="paint158_linear_140_3712" x1="25.6711" y1="748.916" x2="25.6711" y2="749.527" gradientUnits="userSpaceOnUse">
<stop offset="0.151042" stop-color="#4E3607"/>
<stop offset="1" stop-color="#F6D66D"/>
</linearGradient>
<linearGradient id="paint159_linear_140_3712" x1="92.8584" y1="750.295" x2="92.8584" y2="751.236" gradientUnits="userSpaceOnUse">
<stop offset="0.151042" stop-color="#4E3607"/>
<stop offset="1" stop-color="#F6D66D"/>
</linearGradient>
<linearGradient id="paint160_linear_140_3712" x1="84.8073" y1="609.407" x2="84.8073" y2="611.544" gradientUnits="userSpaceOnUse">
<stop offset="0.151042" stop-color="#4E3607"/>
<stop offset="1" stop-color="#F6D66D"/>
</linearGradient>
<linearGradient id="paint161_linear_140_3712" x1="74.9409" y1="611.544" x2="74.9409" y2="613.197" gradientUnits="userSpaceOnUse">
<stop offset="0.151042" stop-color="#4E3607"/>
<stop offset="1" stop-color="#F6D66D"/>
</linearGradient>
<linearGradient id="paint162_linear_140_3712" x1="35.752" y1="749.829" x2="35.752" y2="750.245" gradientUnits="userSpaceOnUse">
<stop offset="0.151042" stop-color="#4E3607"/>
<stop offset="1" stop-color="#F6D66D"/>
</linearGradient>
<linearGradient id="paint163_linear_140_3712" x1="45.6182" y1="750.568" x2="45.6182" y2="750.949" gradientUnits="userSpaceOnUse">
<stop offset="0.151042" stop-color="#4E3607"/>
<stop offset="1" stop-color="#F6D66D"/>
</linearGradient>
<linearGradient id="paint164_linear_140_3712" x1="25.6711" y1="621.738" x2="25.6711" y2="748.916" gradientUnits="userSpaceOnUse">
<stop offset="0.151042" stop-color="#4E3607"/>
<stop offset="1" stop-color="#F6D66D"/>
</linearGradient>
<linearGradient id="paint165_linear_140_3712" x1="25.6711" y1="605.542" x2="25.6711" y2="621.738" gradientUnits="userSpaceOnUse">
<stop offset="0.151042" stop-color="#4E3607"/>
<stop offset="1" stop-color="#F6D66D"/>
</linearGradient>
<linearGradient id="paint166_linear_140_3712" x1="92.8584" y1="617.959" x2="92.8584" y2="750.295" gradientUnits="userSpaceOnUse">
<stop offset="0.151042" stop-color="#4E3607"/>
<stop offset="1" stop-color="#F6D66D"/>
</linearGradient>
<linearGradient id="paint167_linear_140_3712" x1="92.8584" y1="615.381" x2="92.8584" y2="617.96" gradientUnits="userSpaceOnUse">
<stop offset="0.151042" stop-color="#4E3607"/>
<stop offset="1" stop-color="#F6D66D"/>
</linearGradient>
<linearGradient id="paint168_linear_140_3712" x1="35.752" y1="604.591" x2="35.752" y2="749.829" gradientUnits="userSpaceOnUse">
<stop offset="0.151042" stop-color="#4E3607"/>
<stop offset="1" stop-color="#F6D66D"/>
</linearGradient>
<linearGradient id="paint169_linear_140_3712" x1="35.752" y1="603.269" x2="35.752" y2="604.591" gradientUnits="userSpaceOnUse">
<stop offset="0.151042" stop-color="#4E3607"/>
<stop offset="1" stop-color="#F6D66D"/>
</linearGradient>
<linearGradient id="paint170_linear_140_3712" x1="45.6182" y1="602.245" x2="45.6182" y2="750.569" gradientUnits="userSpaceOnUse">
<stop offset="0.151042" stop-color="#4E3607"/>
<stop offset="1" stop-color="#F6D66D"/>
</linearGradient>
<linearGradient id="paint171_linear_140_3712" x1="45.6182" y1="601.045" x2="45.6182" y2="602.245" gradientUnits="userSpaceOnUse">
<stop offset="0.151042" stop-color="#4E3607"/>
<stop offset="1" stop-color="#F6D66D"/>
</linearGradient>
<clipPath id="clip0_140_3712">
<rect width="476" height="573" fill="white" transform="translate(292 221.596)"/>
</clipPath>
<clipPath id="clip1_140_3712">
<rect width="166" height="238" fill="white" transform="translate(126 514.596)"/>
</clipPath>
<clipPath id="clip2_140_3712">
<rect width="110" height="158" fill="white" transform="matrix(-1 0 0 1 110 595.596)"/>
</clipPath>
</defs>
</svg>
