<svg width="406" height="28" viewBox="0 0 406 28" fill="none" xmlns="http://www.w3.org/2000/svg">
<path d="M405.048 24.4495H0.116211V28.0001H405.048V24.4495Z" fill="url(#paint0_radial_186_2030)"/>
<path d="M16.168 10.4581H21.2193C21.2193 11.2718 21.2193 11.8001 21.2193 12.0326C21.2698 13.0641 21.0742 14.0928 20.6486 15.0338C20.3845 15.4747 20.0256 15.8514 19.5979 16.1365C19.1702 16.4216 18.6845 16.608 18.1759 16.6823C16.0834 17.0492 13.9586 17.1979 11.8354 17.1261C8.6793 17.1261 6.42843 17.0662 5.08285 16.9465C4.0377 16.8937 3.01049 16.6539 2.05001 16.2384C1.48135 15.9572 1.01013 15.5117 0.697355 14.9598C0.352837 14.2749 0.15155 13.527 0.105648 12.7618C0.0316764 12.0115 0 10.6483 0 8.67218C0 6.69608 -2.58009e-05 5.37515 0.105648 4.51919C0.142088 3.84137 0.288452 3.17398 0.538948 2.54309C0.798581 1.99557 1.19059 1.5214 1.67953 1.16346C2.16848 0.805516 2.73883 0.575088 3.3392 0.493015C6.16612 0.0869579 9.02345 -0.0686377 11.8777 0.0280475C13.9912 0.0280475 15.5658 0.0280526 16.538 0.165429C17.3367 0.227277 18.1209 0.412654 18.8628 0.714938C19.5705 1.03053 20.1382 1.59441 20.4585 2.30005C20.8096 3.29281 20.9639 4.34448 20.9128 5.39629C20.9128 5.47026 20.9128 5.74501 20.9128 6.22054H15.8617C15.8478 5.86648 15.8125 5.51359 15.7559 5.1638C15.7155 4.98676 15.6193 4.82744 15.4813 4.70941C15.0306 4.4643 14.5253 4.33707 14.0124 4.33955C13.2198 4.25501 12.0363 4.2233 10.4406 4.2233C9.34403 4.20324 8.24716 4.23852 7.15415 4.32898C6.69628 4.34543 6.25105 4.48408 5.86483 4.73055C5.52615 5.05822 5.30674 5.48967 5.24139 5.95636C5.099 6.86493 5.03883 7.78451 5.06169 8.70389C5.03599 9.59097 5.08906 10.4786 5.22023 11.3563C5.27951 11.7924 5.49786 12.1914 5.83322 12.4765C6.24037 12.7326 6.70556 12.8816 7.18575 12.9097C7.80923 12.9837 8.89765 13.0154 10.4722 13.0154C12.4096 13.0154 13.6988 12.9837 14.3399 12.9203C14.8103 12.9211 15.269 12.7732 15.6502 12.4976C16.0607 11.9013 16.2444 11.1779 16.168 10.4581Z" fill="black"/>
<path d="M38.6019 0.0385995C41.0706 -0.0105852 43.5402 0.0776128 45.9991 0.302784C46.809 0.323384 47.5914 0.602019 48.2319 1.09811C48.8725 1.59421 49.3379 2.28185 49.5604 3.06088C50.1663 6.70983 50.1663 10.4337 49.5604 14.0827C49.3409 14.8634 48.8762 15.5529 48.235 16.0495C47.5938 16.5461 46.8099 16.8235 45.9991 16.8408C43.5616 17.07 41.1132 17.1617 38.6654 17.1155C36.1965 17.1612 33.7269 17.0695 31.2682 16.8408C30.4578 16.8218 29.6749 16.5438 29.034 16.0474C28.3931 15.5511 27.9281 14.8625 27.707 14.0827C27.3311 12.2372 27.1784 10.3533 27.2526 8.47138C27.182 6.65607 27.3347 4.83898 27.707 3.06088C27.931 2.28268 28.3969 1.59596 29.0371 1.10011C29.6773 0.604264 30.4587 0.32502 31.2682 0.302784C33.7061 0.0794807 36.1543 -0.00871586 38.6019 0.0385995ZM38.6019 4.3501C36.9856 4.29138 35.3672 4.36205 33.7621 4.56144C33.4834 4.61535 33.2236 4.74124 33.0085 4.92662C32.7935 5.112 32.6306 5.35042 32.5363 5.61818C32.291 6.72047 32.1951 7.85074 32.251 8.97861C32.2289 9.71477 32.282 10.4513 32.4095 11.1766C32.509 11.5864 32.7434 11.9509 33.0749 12.2116C33.4065 12.4722 33.816 12.6139 34.2377 12.6138C35.6992 12.7443 37.1667 12.7937 38.6337 12.7617C40.6626 12.7617 42.0153 12.7617 42.6916 12.6561C43.2228 12.6299 43.7372 12.462 44.1815 12.17C44.4923 11.9166 44.7022 11.5606 44.7734 11.1661C44.9018 10.4515 44.9549 9.72541 44.9319 8.99975C44.9512 8.12105 44.9123 7.24203 44.8156 6.36846C44.767 5.92216 44.6191 5.49244 44.3824 5.11095C44.2158 4.91707 44.0122 4.75833 43.7836 4.64402C43.555 4.52971 43.3059 4.46213 43.0509 4.4452C42.4486 4.39236 40.9691 4.32896 38.6654 4.32896L38.6019 4.3501Z" fill="black"/>
<path d="M56.0176 0.281738H64.8836L73.57 12.6456H74.0878L73.9716 0.281738H79.1073V16.8725H70.3681L61.6394 4.49813H61.0898L61.2061 16.8725H56.0598L56.0176 0.281738Z" fill="black"/>
<path d="M85.1621 0.281738H105.24V4.5087H97.843V16.8725H92.5593V4.5087H85.1621V0.281738Z" fill="black"/>
<path d="M111.359 16.8725V0.281738H123.565C126.439 0.281738 128.151 0.28174 128.722 0.366279C129.305 0.424761 129.866 0.620282 130.36 0.936912C130.968 1.28801 131.43 1.84715 131.659 2.51146C131.948 3.54208 132.07 4.61251 132.019 5.68168C132.051 6.57552 131.973 7.46993 131.786 8.34467C131.663 8.87776 131.37 9.35633 130.951 9.70785C130.354 10.128 129.659 10.3865 128.933 10.4581C129.785 10.4552 130.604 10.7851 131.215 11.3775C131.486 11.704 131.662 12.0989 131.723 12.5188C131.817 13.4597 131.852 14.4055 131.828 15.3508V16.8937H126.851V15.9532C126.869 15.2927 126.834 14.6318 126.745 13.9771C126.708 13.644 126.576 13.3287 126.365 13.0683C126.154 12.8654 125.884 12.7357 125.594 12.6984C124.892 12.6239 124.186 12.5957 123.48 12.6139H116.358V16.8408L111.359 16.8725ZM116.41 8.50317H123.522C124.762 8.50317 125.502 8.48204 125.742 8.43977C125.958 8.42486 126.168 8.35974 126.354 8.24956C126.577 8.10898 126.739 7.89041 126.809 7.63665C126.919 7.23419 126.965 6.81704 126.946 6.40027C126.961 5.98991 126.911 5.57974 126.798 5.18501C126.703 4.93058 126.514 4.72245 126.27 4.6038C126.064 4.52096 125.847 4.47104 125.625 4.45586H123.512H116.41V8.50317Z" fill="black"/>
<path d="M157.136 16.8725L155.709 14.0616H144.74L143.314 16.8725H137.544L146.347 0.281738H154.198L162.874 16.8725H157.136ZM153.966 10.4264L150.795 4.08601H149.739L146.569 10.4264H153.966Z" fill="black"/>
<path d="M183.651 10.4581H188.723C188.723 11.2718 188.723 11.8002 188.723 12.0326C188.774 13.0641 188.578 14.0928 188.153 15.0338C187.891 15.4745 187.534 15.8511 187.108 16.1363C186.682 16.4215 186.198 16.608 185.69 16.6823C183.598 17.0482 181.473 17.1969 179.35 17.1261C176.194 17.1261 173.943 17.0663 172.597 16.9465C171.552 16.8951 170.525 16.6553 169.564 16.2385C168.992 15.9589 168.517 15.5133 168.201 14.9598C167.861 14.2741 167.663 13.5263 167.62 12.7618C167.546 12.0115 167.504 10.6483 167.504 8.67222C167.504 6.69611 167.504 5.37518 167.62 4.51922C167.654 3.84216 167.797 3.17499 168.043 2.54312C168.305 1.99538 168.699 1.52131 169.19 1.16349C169.68 0.805668 170.252 0.575294 170.854 0.493047C173.677 0.0864011 176.531 -0.0691988 179.382 0.0280788C181.495 0.0280788 183.08 0.028084 184.052 0.16546C184.848 0.225819 185.629 0.41127 186.367 0.714969C187.074 1.03056 187.642 1.59445 187.962 2.30008C188.318 3.29193 188.476 4.34378 188.427 5.39632C188.427 5.47029 188.427 5.74504 188.427 6.22057H183.439C183.436 5.86588 183.4 5.51223 183.334 5.16383C183.293 4.98679 183.197 4.82747 183.059 4.70944C182.609 4.46259 182.103 4.33524 181.59 4.33958C180.808 4.25504 179.614 4.22334 178.018 4.22334C176.925 4.2032 175.832 4.23847 174.743 4.32902C174.284 4.34177 173.838 4.48072 173.453 4.73058C173.108 5.0536 172.888 5.48739 172.83 5.95639C172.682 6.86435 172.622 7.78443 172.65 8.70392C172.625 9.591 172.677 10.4786 172.809 11.3563C172.869 11.7898 173.083 12.1872 173.411 12.4765C173.822 12.7322 174.291 12.8811 174.774 12.9097C175.867 13 176.964 13.0352 178.061 13.0154C179.998 13.0154 181.287 12.9837 181.928 12.9203C182.399 12.9197 182.857 12.7719 183.239 12.4976C183.617 11.8894 183.763 11.1654 183.651 10.4581Z" fill="black"/>
<path d="M194.715 0.281738H214.793V4.5087H207.396V16.8725H202.112V4.5087H194.715V0.281738Z" fill="black"/>
<path d="M232.219 0.0385995C234.688 -0.0105852 237.157 0.0776128 239.616 0.302784C240.426 0.32502 241.207 0.604264 241.847 1.10011C242.488 1.59596 242.953 2.28268 243.178 3.06088C243.783 6.70983 243.783 10.4337 243.178 14.0827C242.956 14.8625 242.491 15.5511 241.851 16.0474C241.21 16.5438 240.427 16.8218 239.616 16.8408C237.179 17.07 234.73 17.1617 232.282 17.1155C229.814 17.1612 227.344 17.0695 224.885 16.8408C224.074 16.8235 223.291 16.5461 222.65 16.0495C222.008 15.5529 221.544 14.8634 221.324 14.0827C220.948 12.2372 220.796 10.3533 220.87 8.47138C220.799 6.65607 220.952 4.83898 221.324 3.06088C221.547 2.28185 222.012 1.59421 222.653 1.09811C223.293 0.602019 224.075 0.323384 224.885 0.302784C227.323 0.0794807 229.772 -0.00871586 232.219 0.0385995ZM232.219 4.3501C230.603 4.29138 228.984 4.36205 227.379 4.56144C227.1 4.61535 226.841 4.74124 226.626 4.92662C226.411 5.112 226.248 5.35042 226.153 5.61818C225.908 6.72047 225.812 7.85074 225.868 8.97861C225.846 9.71477 225.899 10.4513 226.027 11.1766C226.126 11.5864 226.36 11.9509 226.692 12.2116C227.024 12.4722 227.433 12.6139 227.855 12.6138C229.313 12.7442 230.777 12.7936 232.24 12.7617C234.28 12.7617 235.632 12.7617 236.309 12.6561C236.84 12.6299 237.354 12.462 237.799 12.17C238.109 11.9166 238.319 11.5606 238.39 11.1661C238.519 10.4515 238.572 9.72541 238.549 8.99975C238.563 8.12112 238.524 7.24244 238.433 6.36846C238.386 5.92011 238.234 5.48918 237.989 5.11095C237.826 4.91601 237.624 4.75642 237.397 4.64195C237.17 4.52749 236.922 4.46053 236.668 4.4452C236.066 4.39236 234.576 4.32896 232.23 4.32896L232.219 4.3501Z" fill="black"/>
<path d="M249.633 16.8725V0.281738H261.849C264.712 0.281738 266.435 0.28174 267.006 0.366279C267.589 0.426313 268.149 0.621712 268.644 0.936912C269.252 1.28801 269.714 1.84715 269.943 2.51146C270.222 3.54392 270.34 4.61328 270.292 5.68168C270.321 6.57492 270.246 7.46849 270.07 8.34467C269.943 8.87856 269.647 9.35688 269.225 9.70785C268.628 10.128 267.933 10.3865 267.206 10.4581C268.059 10.4507 268.88 10.7812 269.489 11.3775C269.767 11.7006 269.947 12.0967 270.007 12.5188C270.101 13.4597 270.136 14.4055 270.112 15.3508V16.8937H265.135V15.9532C265.148 15.2928 265.113 14.6324 265.029 13.9771C264.982 13.6466 264.851 13.3338 264.649 13.0683C264.438 12.8654 264.168 12.7357 263.878 12.6984C263.193 12.6265 262.505 12.5983 261.817 12.6139H254.695V16.8408L249.633 16.8725ZM254.695 8.50317H261.796C263.043 8.50317 263.783 8.48204 264.015 8.43977C264.232 8.42645 264.442 8.36122 264.628 8.24956C264.854 8.11094 265.02 7.89212 265.093 7.63665C265.203 7.23419 265.249 6.81704 265.23 6.40027C265.248 5.98906 265.195 5.57784 265.072 5.18501C264.977 4.93058 264.788 4.72245 264.543 4.6038C264.341 4.52203 264.127 4.47213 263.909 4.45586H261.796H254.705L254.695 8.50317Z" fill="black"/>
<path d="M275.926 11.3775H280.818C280.818 12.1912 280.977 12.7196 281.326 12.9521C281.611 13.1211 281.935 13.2156 282.266 13.2268C282.647 13.2268 283.862 13.2796 285.901 13.3008C287.941 13.3219 289.325 13.3008 289.758 13.2479C290.119 13.2561 290.478 13.1951 290.815 13.0683C291.196 12.9098 291.375 12.4977 291.375 11.8108C291.404 11.6254 291.383 11.4357 291.314 11.2611C291.246 11.0865 291.132 10.9334 290.984 10.8174C290.472 10.6079 289.919 10.5175 289.367 10.5532C288.744 10.5532 287.423 10.5532 285.415 10.4053C283.407 10.2574 282.002 10.2468 281.379 10.2362C280.435 10.2306 279.495 10.1135 278.578 9.8875C277.986 9.73715 277.453 9.41333 277.046 8.95758C276.328 7.9124 275.999 6.64851 276.116 5.38579C275.972 3.98011 276.348 2.57038 277.173 1.42302C277.846 0.757088 278.733 0.349354 279.677 0.271177C281.96 0.055858 284.254 -0.0253098 286.546 0.0281154C288.26 -0.00632404 289.975 0.0607226 291.682 0.228898C292.852 0.27682 293.971 0.724378 294.852 1.497C295.502 2.43935 295.801 3.57987 295.697 4.72004C295.697 4.85742 295.697 5.11105 295.697 5.49147H290.805C290.806 5.17083 290.767 4.85129 290.688 4.5404C290.621 4.36475 290.494 4.21868 290.329 4.12827C289.967 3.96655 289.574 3.88371 289.177 3.88522C288.617 3.88522 287.455 3.83238 285.669 3.83238C284.359 3.7751 283.046 3.84233 281.748 4.03317C281.273 4.15998 281.04 4.52984 281.04 5.14275C281.009 5.37489 281.064 5.61034 281.195 5.8049C281.325 5.99946 281.522 6.13977 281.748 6.19949C283.527 6.40147 285.316 6.50378 287.106 6.50593C289.79 6.57991 291.576 6.67502 292.485 6.79126C293.223 6.85899 293.941 7.07081 294.598 7.41473C295.185 7.75548 295.639 8.28421 295.888 8.9153C296.178 9.79723 296.307 10.7245 296.268 11.6522C296.342 12.8489 296.125 14.0456 295.634 15.1395C295.333 15.6843 294.872 16.1233 294.313 16.397C293.559 16.7215 292.755 16.9111 291.935 16.9571C290.879 17.0522 288.765 17.105 285.827 17.105C283.334 17.105 281.484 17.0311 280.301 16.9042C279.367 16.8457 278.453 16.6127 277.606 16.2174C277.026 15.9073 276.571 15.4073 276.317 14.8013C276.034 13.9434 275.912 13.0406 275.958 12.1384L275.926 11.3775Z" fill="black"/>
<path d="M314.982 9.25344H328.434V7.30905H314.982V2.21555H329.026V0.271157H312.763V16.862H329.037V14.8964H314.982V9.25344ZM354.715 2.58542C354.414 2.07079 354.005 1.62759 353.516 1.28642C353.027 0.945257 352.47 0.714235 351.883 0.609305C350.114 0.347008 348.324 0.240921 346.536 0.29228H335.092V16.8831H346.716C348.305 16.9181 349.894 16.8369 351.471 16.64C352.328 16.5256 353.131 16.1576 353.777 15.5833C354.423 15.0089 354.882 14.2545 355.096 13.417C355.522 11.8329 355.722 10.1962 355.687 8.55599C355.707 7.2845 355.637 6.0132 355.476 4.75172C355.37 3.986 355.111 3.24938 354.715 2.58542ZM352.792 12.9415C352.644 13.3747 352.39 13.7637 352.052 14.0722C351.714 14.3808 351.303 14.5989 350.858 14.7062C350.439 14.8139 350.011 14.8811 349.579 14.907C349.199 14.907 348.206 14.907 346.61 14.907H337.3V2.21555H346.504C348.195 2.21555 349.252 2.21555 349.675 2.21555C350.25 2.24863 350.819 2.35881 351.365 2.54314C351.752 2.68875 352.095 2.93278 352.359 3.25115C353.035 4.08598 353.415 5.7979 353.415 8.40805C353.479 9.94426 353.268 11.4795 352.792 12.9415ZM371.359 10.4158H379.992C380.051 11.5333 379.915 12.6524 379.591 13.7234C379.409 14.0046 379.162 14.2384 378.872 14.4056C378.582 14.5728 378.256 14.6686 377.921 14.6851C376.436 14.8774 374.938 14.9586 373.441 14.9281C371.063 14.9886 368.685 14.9003 366.318 14.6639C365.873 14.6185 365.447 14.4583 365.082 14.199C364.768 13.9227 364.553 13.5517 364.469 13.1422C364.203 11.5257 364.1 9.88659 364.163 8.24954C364.139 7.03162 364.199 5.81351 364.342 4.60378C364.382 4.02517 364.604 3.47402 364.976 3.02925C365.577 2.62246 366.28 2.39518 367.005 2.37406C368.674 2.22979 370.349 2.16983 372.025 2.19441C373.8 2.19441 375.279 2.19441 376.463 2.31066C377.102 2.35066 377.737 2.43186 378.365 2.55372C378.705 2.6305 379.021 2.79022 379.284 3.01867C379.718 3.75074 379.907 4.60228 379.823 5.44917H382.106C382.114 4.67678 382.025 3.90643 381.842 3.15605C381.68 2.61568 381.39 2.12253 380.996 1.71888C380.297 1.02856 379.384 0.596309 378.407 0.493063C377.89 0.419091 376.917 0.355684 375.501 0.29228C374.085 0.228875 372.796 0.197177 371.655 0.197177C369.308 0.0875319 366.957 0.279319 364.659 0.767826C364.099 0.924351 363.593 1.2319 363.196 1.65685C362.799 2.0818 362.526 2.60777 362.408 3.17719C362.021 4.94287 361.851 6.74911 361.901 8.55599C361.901 11.8742 362.208 14.0088 362.82 14.981C363.115 15.4223 363.503 15.7926 363.959 16.065C364.414 16.3373 364.924 16.5049 365.452 16.5555C367.819 16.8272 370.202 16.9366 372.585 16.8831C374.893 16.9935 377.206 16.8267 379.475 16.3864C380.121 16.1949 380.702 15.8293 381.155 15.3297C381.579 14.7657 381.855 14.1045 381.958 13.4064C382.171 11.7457 382.255 10.0712 382.212 8.39749H371.338L371.359 10.4158ZM390.983 14.8964V9.21116H404.445V7.26677H390.983V2.21555H405.037V0.271157H388.774V16.862H405.048V14.8964H390.983Z" fill="black"/>
<defs>
<radialGradient id="paint0_radial_186_2030" cx="0" cy="0" r="1" gradientUnits="userSpaceOnUse" gradientTransform="translate(205.22 30.9801) scale(143.406 110.731)">
<stop stop-color="#FFFACB"/>
<stop offset="0.12" stop-color="#FAF1BA"/>
<stop offset="0.35" stop-color="#EED98D"/>
<stop offset="0.37" stop-color="#EDD688"/>
<stop offset="0.69" stop-color="#EABA10"/>
<stop offset="1" stop-color="#C2912E"/>
</radialGradient>
</defs>
</svg>
