<svg width="32" height="32" viewBox="0 0 32 32" fill="none" xmlns="http://www.w3.org/2000/svg">
<path d="M21.5625 10H10.5C10.9375 7.1875 11.6875 4.875 12.6875 3.125C13.6875 1.375 14.75 0.5 16 0.5C17.1875 0.5 18.3125 1.375 19.3125 3.125C20.3125 4.875 21.0625 7.1875 21.5625 10ZM10 16C10 14.6875 10.0625 13.375 10.1875 12H21.8125C21.9375 13.375 22 14.6875 22 16C22 17.375 21.9375 18.6875 21.8125 20H10.1875C10.0625 18.6875 10 17.375 10 16ZM30.3125 10H23.5625C22.9375 6.1875 21.875 3.25 20.4375 1.125C22.625 1.8125 24.5625 2.9375 26.3125 4.5C28.0625 6.0625 29.375 7.875 30.3125 10ZM11.5625 1.125C10.0625 3.25 9 6.1875 8.4375 10H1.6875C2.5625 7.875 3.875 6.0625 5.625 4.5C7.375 2.9375 9.3125 1.8125 11.5625 1.125ZM30.9375 12C31.3125 13.375 31.5 14.6875 31.5 16C31.5 17.375 31.3125 18.6875 30.9375 20H23.8125C23.9375 18.625 24 17.3125 24 16C24 14.75 23.9375 13.375 23.8125 12H30.9375ZM8 16C8 17.25 8.0625 18.625 8.1875 20H1.0625C0.6875 18.625 0.5 17.3125 0.5 16C0.5 14.75 0.6875 13.375 1.0625 12H8.1875C8.0625 13.375 8 14.75 8 16ZM10.5 22H21.5C21 24.875 20.3125 27.125 19.3125 28.875C18.3125 30.625 17.1875 31.5 16 31.5C14.75 31.5 13.6875 30.625 12.6875 28.875C11.6875 27.125 10.9375 24.875 10.5 22ZM20.4375 30.875C21.9375 28.8125 22.9375 25.875 23.5625 22H30.3125C29.375 24.125 28.0625 26 26.3125 27.5625C24.5625 29.125 22.625 30.25 20.4375 30.875ZM1.6875 22H8.4375C9.0625 25.875 10.0625 28.8125 11.5625 30.875C9.3125 30.25 7.375 29.125 5.625 27.5625C3.875 26 2.5625 24.125 1.6875 22Z" fill="white"/>
</svg>
