<svg width="41" height="32" viewBox="0 0 41 32" fill="none" xmlns="http://www.w3.org/2000/svg">
<path d="M32.5 11.9375L32 12.8125C31.875 13 31.75 13.125 31.5625 13.1875C31.375 13.25 31.1875 13.25 31.0625 13.1875C30.3125 12.9375 29.625 12.5 29.0625 12C28.875 11.875 28.75 11.75 28.75 11.5625C28.75 11.375 28.75 11.1875 28.875 11L29.375 10.125C28.9375 9.625 28.625 9.0625 28.375 8.4375H27.375C27.125 8.4375 26.9375 8.375 26.8125 8.25C26.6875 8.125 26.625 8 26.625 7.75C26.4375 7 26.4375 6.25 26.5625 5.4375C26.5625 5.3125 26.6875 5.125 26.8125 5C26.9375 4.875 27.125 4.8125 27.375 4.8125H28.375C28.625 4.1875 28.9375 3.625 29.375 3.0625L28.875 2.1875C28.75 2.0625 28.75 1.875 28.75 1.6875C28.75 1.5 28.875 1.3125 29.0625 1.1875C29.625 0.75 30.3125 0.375 31.0625 0.0625C31.1875 0 31.375 0 31.5625 0.0625C31.75 0.125 31.875 0.25 32 0.375L32.5 1.3125C33.125 1.1875 33.8125 1.1875 34.5 1.3125L35 0.375C35.0625 0.25 35.1875 0.125 35.375 0.0625C35.5625 0 35.75 0 35.9375 0.0625C36.6875 0.3125 37.3125 0.6875 37.9375 1.1875C38.0625 1.3125 38.1875 1.5 38.1875 1.6875C38.1875 1.875 38.1875 2.0625 38.125 2.1875L37.625 3.0625C38 3.625 38.375 4.1875 38.625 4.8125H39.625C39.8125 4.8125 40 4.875 40.125 5C40.25 5.125 40.375 5.3125 40.375 5.4375C40.5 6.25 40.5 7 40.375 7.75C40.375 8 40.25 8.125 40.125 8.25C40 8.375 39.8125 8.4375 39.625 8.4375H38.625C38.375 9.0625 38 9.625 37.625 10.125L38.125 11C38.1875 11.1875 38.1875 11.375 38.1875 11.5625C38.1875 11.75 38.0625 11.875 37.9375 12C37.3125 12.5 36.6875 12.9375 35.9375 13.1875C35.75 13.25 35.5625 13.25 35.375 13.1875C35.1875 13.125 35.0625 13 35 12.8125L34.5 11.9375C33.8125 12.0625 33.125 12.0625 32.5 11.9375ZM31.875 8.25C32.625 8.875 33.375 9.0625 34.125 8.8125C34.875 8.5625 35.375 8.0625 35.625 7.3125C35.875 6.5625 35.6875 5.75 35.125 4.9375C34.375 4.375 33.5625 4.1875 32.8125 4.4375C32.0625 4.6875 31.5625 5.25 31.3125 6C31.0625 6.75 31.25 7.5 31.875 8.25ZM24.625 17.875L26.75 18.9375C27.0625 19.125 27.3125 19.375 27.4375 19.75C27.5625 20.125 27.5 20.4375 27.375 20.75C27 21.875 26.125 23.25 24.75 24.875C24.5 25.125 24.1875 25.3125 23.8125 25.375C23.4375 25.4375 23.125 25.375 22.875 25.1875L21.0625 24.125C20 25 18.875 25.6875 17.625 26.125V28.25C17.625 28.625 17.5 28.9375 17.25 29.1875C17 29.5 16.6875 29.6875 16.375 29.6875C14.75 30 13.1875 30 11.625 29.6875C11.25 29.6875 10.9375 29.5 10.6875 29.1875C10.4375 28.9375 10.375 28.625 10.375 28.25V26.125C9.0625 25.6875 7.9375 25 6.9375 24.125L5.125 25.1875C4.75 25.375 4.4375 25.4375 4.0625 25.375C3.6875 25.3125 3.4375 25.125 3.25 24.875C1.875 23.25 1 21.875 0.625 20.75C0.4375 20.4375 0.4375 20.125 0.5625 19.75C0.6875 19.375 0.875 19.125 1.25 18.9375L3.3125 17.875C3.0625 16.5625 3.0625 15.25 3.3125 13.9375L1.25 12.875C0.875 12.6875 0.6875 12.4375 0.5625 12.0625C0.4375 11.75 0.4375 11.4375 0.625 11.0625C1 9.9375 1.875 8.5625 3.25 6.9375C3.4375 6.6875 3.6875 6.5 4.0625 6.4375C4.4375 6.375 4.75 6.4375 5.125 6.625L6.9375 7.625C7.9375 6.75 9.125 6.125 10.375 5.6875V3.5625C10.375 3.1875 10.4375 2.875 10.6875 2.625C10.9375 2.375 11.25 2.1875 11.625 2.125C13.1875 1.875 14.75 1.8125 16.375 2.0625C16.6875 2.1875 17 2.375 17.25 2.625C17.5 2.875 17.625 3.1875 17.625 3.5625V5.6875C18.875 6.1875 20 6.8125 21.0625 7.625L22.875 6.625C23.125 6.4375 23.4375 6.375 23.8125 6.4375C24.1875 6.5 24.5 6.6875 24.75 6.9375C26.0625 8.5625 26.9375 9.9375 27.375 11.0625C27.5 11.4375 27.5 11.75 27.375 12.0625C27.25 12.4375 27.0625 12.6875 26.75 12.875L24.625 13.9375C24.875 15.25 24.875 16.5625 24.625 17.875ZM17.3125 19.1875C18.1875 18.0625 18.5625 16.875 18.5 15.625C18.375 14.5 17.9375 13.5625 17.1875 12.75C16.375 11.9375 15.375 11.5 14.25 11.375C13 11.3125 11.8125 11.75 10.6875 12.625C9.8125 13.75 9.375 14.9375 9.5 16.1875C9.5 17.3125 9.9375 18.3125 10.75 19.125C11.5625 19.9375 12.5625 20.375 13.6875 20.375C14.9375 20.5 16.125 20.0625 17.3125 19.1875ZM32.5 30.625L32 31.5C31.875 31.6875 31.75 31.8125 31.5625 31.875C31.375 31.9375 31.1875 31.9375 31.0625 31.875C30.3125 31.625 29.625 31.1875 29.0625 30.6875C28.875 30.5625 28.75 30.4375 28.75 30.25C28.75 30.0625 28.75 29.875 28.875 29.6875L29.375 28.8125C28.9375 28.3125 28.625 27.75 28.375 27.125H27.375C27.125 27.125 26.9375 27.0625 26.8125 26.9375C26.6875 26.8125 26.625 26.6875 26.625 26.4375C26.4375 25.6875 26.4375 24.9375 26.5625 24.125C26.5625 24 26.6875 23.8125 26.8125 23.6875C26.9375 23.5625 27.125 23.5 27.375 23.5H28.375C28.625 22.875 28.9375 22.3125 29.375 21.75L28.875 20.875C28.75 20.75 28.75 20.5625 28.75 20.375C28.75 20.1875 28.875 20 29.0625 19.875C29.625 19.375 30.3125 19 31.0625 18.75C31.1875 18.6875 31.375 18.6875 31.5625 18.75C31.75 18.8125 31.875 18.9375 32 19.0625L32.5 19.9375C33.125 19.875 33.8125 19.875 34.5 20L35 19.0625C35.0625 18.9375 35.1875 18.8125 35.375 18.75C35.5625 18.6875 35.75 18.6875 35.9375 18.75C36.6875 19 37.3125 19.375 37.9375 19.875C38.0625 20 38.1875 20.1875 38.1875 20.375C38.1875 20.5625 38.1875 20.75 38.125 20.875L37.625 21.75C38 22.3125 38.375 22.875 38.625 23.5H39.625C39.8125 23.5 40 23.5625 40.125 23.6875C40.25 23.8125 40.375 24 40.375 24.125C40.5 24.9375 40.5 25.6875 40.375 26.4375C40.375 26.6875 40.25 26.8125 40.125 26.9375C40 27.0625 39.8125 27.125 39.625 27.125H38.625C38.375 27.75 38 28.3125 37.625 28.8125L38.125 29.6875C38.1875 29.875 38.1875 30.0625 38.1875 30.25C38.1875 30.4375 38.0625 30.5625 37.9375 30.6875C37.3125 31.1875 36.6875 31.625 35.9375 31.875C35.75 31.9375 35.5625 31.9375 35.375 31.875C35.1875 31.8125 35.0625 31.6875 35 31.5L34.5 30.625C33.8125 30.75 33.125 30.75 32.5 30.625ZM31.875 26.9375C32.625 27.5625 33.375 27.6875 34.125 27.4375C34.875 27.1875 35.375 26.6875 35.625 25.9375C35.875 25.1875 35.6875 24.4375 35.125 23.625C34.375 23.0625 33.5625 22.875 32.8125 23.125C32.0625 23.375 31.5625 23.9375 31.3125 24.6875C31.0625 25.4375 31.25 26.1875 31.875 26.9375Z" fill="white"/>
</svg>
