<svg width="32" height="24" viewBox="0 0 32 24" fill="none" xmlns="http://www.w3.org/2000/svg">
<path d="M31.375 7.9375C29.875 9.125 26.625 11.5 21.75 15L21.125 15.5C20.125 16.25 19.375 16.8125 18.75 17.125C17.75 17.75 16.8125 18 16 18C15.125 18 14.25 17.75 13.25 17.1875C12.625 16.875 11.875 16.3125 10.875 15.5625L10.25 15C5.1875 11.375 2 9 0.625 7.9375C0.5 7.875 0.3125 7.875 0.1875 7.9375C0.0625 8 0 8.125 0 8.25V21C0 21.875 0.25 22.5625 0.875 23.125C1.4375 23.75 2.125 24 3 24H29C29.8125 24 30.5 23.75 31.125 23.125C31.6875 22.5625 32 21.875 32 21V8.25C32 8.125 31.875 8 31.75 7.875C31.625 7.8125 31.5 7.8125 31.375 7.9375ZM16 16C15.4375 16 14.75 15.75 14 15.25C13.5 15 12.875 14.5625 12.0625 13.875L11.4375 13.4375C6.3125 9.6875 2.8125 7.125 1 5.6875L0.5625 5.375C0.1875 5.125 0 4.6875 0 4.1875V3C0 2.1875 0.25 1.5 0.875 0.875C1.4375 0.3125 2.125 0 3 0H29C29.8125 0 30.5 0.3125 31.125 0.875C31.6875 1.5 32 2.1875 32 3V4.1875C32 4.6875 31.8125 5.125 31.4375 5.375L31.125 5.625C29.3125 7.0625 25.8125 9.6875 20.5625 13.4375L19.9375 13.875C19.0625 14.5625 18.4375 15 18 15.25C17.1875 15.75 16.5 16 16 16Z" fill="white"/>
</svg>
