<svg width="40" height="28" viewBox="0 0 40 28" fill="none" xmlns="http://www.w3.org/2000/svg">
<path d="M6 12C4.875 12 3.9375 11.625 3.1875 10.8125C2.375 10.0625 2 9.125 2 8C2 6.9375 2.375 6 3.1875 5.1875C3.9375 4.4375 4.875 4 6 4C7.0625 4 8 4.4375 8.8125 5.1875C9.5625 6 10 6.9375 10 8C10 9.125 9.5625 10.0625 8.8125 10.8125C8 11.625 7.0625 12 6 12ZM34 12C32.875 12 31.9375 11.625 31.1875 10.8125C30.375 10.0625 30 9.125 30 8C30 6.9375 30.375 6 31.1875 5.1875C31.9375 4.4375 32.875 4 34 4C35.0625 4 36 4.4375 36.8125 5.1875C37.5625 6 38 6.9375 38 8C38 9.125 37.5625 10.0625 36.8125 10.8125C36 11.625 35.0625 12 34 12ZM36 14C37.0625 14 38 14.4375 38.8125 15.1875C39.5625 16 40 16.9375 40 18V20C40 20.5625 39.75 21.0625 39.375 21.4375C39 21.8125 38.5 22 38 22H33.875C33.625 20.5625 33.125 19.25 32.3125 18C31.4375 16.8125 30.4375 15.875 29.1875 15.1875C29.9375 14.4375 30.875 14 32 14H36ZM20 14C18.75 14 17.5625 13.6875 16.5 13.0625C15.375 12.4375 14.5625 11.625 13.9375 10.5C13.3125 9.4375 13 8.25 13 7C13 5.75 13.3125 4.625 13.9375 3.5C14.5625 2.4375 15.375 1.5625 16.5 0.9375C17.5625 0.3125 18.75 0 20 0C21.25 0 22.375 0.3125 23.5 0.9375C24.5625 1.5625 25.4375 2.4375 26.0625 3.5C26.6875 4.625 27 5.75 27 7C27 8.25 26.6875 9.4375 26.0625 10.5C25.4375 11.625 24.5625 12.4375 23.5 13.0625C22.375 13.6875 21.25 14 20 14ZM24.8125 16C26.0625 16 27.25 16.375 28.375 17C29.5 17.625 30.375 18.5 31 19.625C31.625 20.75 32 21.9375 32 23.1875V25C32 25.875 31.6875 26.5625 31.125 27.125C30.5 27.75 29.8125 28 29 28H11C10.125 28 9.4375 27.75 8.875 27.125C8.25 26.5625 8 25.875 8 25V23.1875C8 21.9375 8.3125 20.75 8.9375 19.625C9.5625 18.5 10.4375 17.625 11.5625 17C12.6875 16.375 13.875 16 15.1875 16H15.6875C17.0625 16.6875 18.5 17 20 17C21.4375 17 22.875 16.6875 24.3125 16H24.8125ZM10.8125 15.1875C9.5625 15.875 8.5 16.8125 7.6875 18C6.8125 19.25 6.3125 20.5625 6.125 22H2C1.4375 22 0.9375 21.8125 0.5625 21.4375C0.1875 21.0625 0 20.5625 0 20V18C0 16.9375 0.375 16 1.1875 15.1875C1.9375 14.4375 2.875 14 4 14H8C9.0625 14 10 14.4375 10.8125 15.1875Z" fill="white"/>
</svg>
